<svg width="20" height="19" viewBox="0 0 20 19" fill="none" xmlns="http://www.w3.org/2000/svg">
<g clip-path="url(#clip0)">
<path d="M5.48265 9.17314C5.43999 9.91447 6.01065 10.5491 6.75199 10.5918C6.77865 10.5918 6.80532 10.5918 6.83199 10.5918C7.57865 10.5918 8.18132 9.98914 8.17599 9.24247C8.17599 8.49581 7.57332 7.89314 6.82665 7.89847C6.11199 7.89847 5.51999 8.45847 5.48265 9.17314Z" fill="white"/>
<path d="M0.458656 8.82664C0.218656 8.81064 0.0106562 8.99731 -1.04192e-05 9.23731C-0.0106771 9.47731 0.170656 9.68531 0.410656 9.69597C0.650656 9.71197 0.853323 9.52531 0.869323 9.28531C0.885323 9.04531 0.698656 8.84264 0.458656 8.82664Z" fill="white"/>
<path d="M5.3973 1.35486C5.61063 1.24819 5.69596 0.981528 5.5893 0.768195C5.48263 0.554861 5.21596 0.469528 5.00263 0.576195C4.7893 0.682861 4.70396 0.944195 4.81063 1.15753C4.9173 1.37619 5.17863 1.46686 5.3973 1.35486C5.39196 1.35486 5.3973 1.35486 5.3973 1.35486Z" fill="white"/>
<path d="M6.76264 3.73873C7.0933 3.5734 7.22664 3.16807 7.0613 2.8374C6.89597 2.50673 6.49064 2.3734 6.15997 2.53873C5.8293 2.70407 5.69597 3.1094 5.8613 3.44007C6.02664 3.77073 6.43197 3.90407 6.76264 3.73873Z" fill="white"/>
<path d="M2.1653 5.37598C2.4213 5.54132 2.76263 5.47198 2.9333 5.21598C3.09863 4.95998 3.0293 4.61865 2.7733 4.44798C2.5173 4.28265 2.17597 4.35198 2.0053 4.60798C1.83463 4.86398 1.9093 5.21065 2.1653 5.37598Z" fill="white"/>
<path d="M2.98131 8.58658C2.60798 8.56525 2.29331 8.84791 2.27198 9.22125C2.25064 9.59458 2.53331 9.90925 2.90664 9.93058C3.27998 9.95191 3.59464 9.66925 3.61598 9.29591C3.63731 8.92791 3.35464 8.60791 2.98131 8.58658Z" fill="white"/>
<path d="M2.23997 13.104C1.96797 13.2427 1.85597 13.5734 1.99464 13.8507C2.13331 14.1227 2.46397 14.2347 2.74131 14.096C3.01331 13.9574 3.12531 13.6267 2.98664 13.3494C2.84797 13.0774 2.51197 12.9654 2.23997 13.104Z" fill="white"/>
<path d="M4.8533 7.19438C5.2213 7.43438 5.71197 7.33304 5.94663 6.96504C6.18663 6.59704 6.0853 6.10638 5.7173 5.87171C5.3493 5.63171 4.85863 5.73304 4.62397 6.10104C4.38397 6.46371 4.4853 6.95438 4.8533 7.19438Z" fill="white"/>
<path d="M13.1467 3.68546C13.456 3.88812 13.8773 3.80279 14.08 3.49346C14.2827 3.18412 14.1973 2.76279 13.888 2.56012C13.5787 2.35746 13.1573 2.44279 12.9547 2.75212C12.7467 3.06679 12.832 3.48279 13.1467 3.68546Z" fill="white"/>
<path d="M14.5226 1.3118C14.7253 1.44513 14.992 1.38647 15.1253 1.1838C15.2586 0.981134 15.2 0.714467 14.9973 0.581134C14.7946 0.4478 14.528 0.506467 14.3946 0.7038C14.2666 0.906467 14.3253 1.17847 14.5226 1.3118Z" fill="white"/>
<path d="M13.248 7.88799C12.5066 7.84532 11.8666 8.41599 11.8293 9.15732C11.7866 9.89865 12.3573 10.5387 13.0986 10.576C13.1253 10.576 13.152 10.576 13.1733 10.576C13.9146 10.576 14.5173 9.97332 14.5173 9.22665C14.5226 8.51732 13.9626 7.92532 13.248 7.88799Z" fill="white"/>
<path d="M7.20532 7.0987C7.43465 7.55203 7.89865 7.84003 8.41065 7.84003C9.15198 7.84003 9.75465 7.23736 9.75465 6.4907C9.75465 6.2827 9.70665 6.0747 9.61065 5.8827C9.27465 5.21603 8.46398 4.94936 7.80265 5.28536C7.13598 5.6267 6.86932 6.43736 7.20532 7.0987Z" fill="white"/>
<path d="M17.76 5.37601C18.032 5.23734 18.1387 4.90134 18 4.62934C17.8613 4.35734 17.5253 4.25067 17.2533 4.38934C16.9813 4.52801 16.8747 4.85867 17.008 5.13067C17.152 5.40267 17.4827 5.51467 17.76 5.37601Z" fill="white"/>
<path d="M14.3466 5.80252C13.9573 5.99986 13.7973 6.47452 13.9946 6.86386C14.192 7.25319 14.6666 7.41319 15.056 7.21586C15.4453 7.01852 15.6053 6.54386 15.408 6.15452C15.2106 5.76519 14.736 5.61052 14.3466 5.80252Z" fill="white"/>
<path d="M9.94666 1.10915C10.2507 1.12515 10.512 0.890479 10.5333 0.586479C10.5547 0.282479 10.3147 0.0211454 10.0107 -0.000187933C9.70666 -0.0161879 9.44532 0.213145 9.42399 0.517145C9.40799 0.826479 9.64266 1.08781 9.94666 1.10915Z" fill="white"/>
<path d="M9.94131 4.59187C10.3786 4.61854 10.752 4.28254 10.7733 3.8452C10.8 3.40787 10.464 3.03454 10.0266 3.0132C9.58931 2.98654 9.21597 3.32254 9.19464 3.75987C9.17331 4.1972 9.50397 4.57054 9.94131 4.59187Z" fill="white"/>
<path d="M5.65328 12.6772C6.04261 12.4798 6.20261 12.0052 6.00528 11.6158C5.80794 11.2265 5.33328 11.0665 4.94394 11.2638C4.55461 11.4612 4.39461 11.9358 4.59194 12.3252C4.78928 12.7145 5.26394 12.8745 5.65328 12.6772Z" fill="white"/>
<path d="M10.4533 5.74911C10.048 6.37311 10.2186 7.20511 10.8426 7.61045C11.4666 8.01578 12.2986 7.84511 12.704 7.22111C13.1093 6.59711 12.9386 5.76511 12.3146 5.35978C12.096 5.21578 11.84 5.14111 11.5786 5.14111C11.1253 5.14111 10.704 5.37045 10.4533 5.74911Z" fill="white"/>
<path d="M12.7946 11.3812C12.4586 10.7146 11.648 10.4479 10.9866 10.7839C10.32 11.1199 10.0533 11.9306 10.3893 12.5919C10.7253 13.2586 11.536 13.5252 12.1973 13.1892C12.8586 12.8586 13.1306 12.0586 12.8 11.3919C12.8 11.3866 12.8 11.3866 12.7946 11.3812Z" fill="white"/>
<path d="M15.1466 11.2853C14.7786 11.0453 14.288 11.1466 14.0533 11.5146C13.8133 11.8826 13.9146 12.3733 14.2826 12.6079C14.6506 12.8479 15.1413 12.7466 15.376 12.3786C15.616 12.016 15.5146 11.5253 15.1466 11.2853Z" fill="white"/>
<path d="M17.728 9.26369C17.7493 8.89036 17.4666 8.57569 17.0933 8.55435C16.72 8.53302 16.4053 8.81569 16.384 9.18902C16.3626 9.56236 16.6453 9.87702 17.0186 9.89836C17.3866 9.91969 17.7066 9.63169 17.728 9.26369Z" fill="white"/>
<path d="M19.5893 8.78416C19.3493 8.76816 19.1413 8.95483 19.1306 9.19483C19.12 9.43483 19.3013 9.64283 19.5413 9.65349C19.7813 9.66949 19.984 9.48283 20 9.24283C20.0106 9.00283 19.8293 8.80016 19.5893 8.78416Z" fill="white"/>
<path d="M17.8347 13.1037C17.5787 12.9384 17.2373 13.0077 17.0667 13.2637C16.9013 13.5197 16.9707 13.8611 17.2267 14.0317C17.4827 14.1971 17.824 14.1277 17.9947 13.8717C18.1653 13.6157 18.0907 13.2691 17.8347 13.1037Z" fill="white"/>
<path d="M5.47195 17.168C5.26928 17.0347 5.00261 17.0934 4.86928 17.2907C4.73595 17.4934 4.79461 17.76 4.99195 17.8934C5.19461 18.0267 5.46128 17.968 5.59461 17.7707C5.73328 17.5734 5.67461 17.3014 5.47195 17.168Z" fill="white"/>
<path d="M14.6026 17.1253C14.3893 17.2319 14.304 17.4986 14.4106 17.7119C14.5173 17.9253 14.784 18.0106 14.9973 17.9039C15.2106 17.7973 15.296 17.5359 15.1893 17.3226C15.0826 17.1039 14.8213 17.0133 14.6026 17.1253C14.608 17.1253 14.6026 17.1253 14.6026 17.1253Z" fill="white"/>
<path d="M9.54661 12.7308C9.95195 12.1068 9.78128 11.2748 9.15728 10.8641C8.53328 10.4588 7.70128 10.6295 7.29061 11.2535C6.87995 11.8775 7.05595 12.7095 7.67995 13.1201C7.89861 13.2641 8.15461 13.3388 8.41595 13.3388C8.87461 13.3441 9.29595 13.1148 9.54661 12.7308Z" fill="white"/>
<path d="M6.85332 14.7945C6.54399 14.5918 6.12265 14.6772 5.91999 14.9865C5.71732 15.2958 5.80265 15.7172 6.11199 15.9198C6.42132 16.1225 6.84265 16.0372 7.04532 15.7278C7.25332 15.4185 7.16799 14.9972 6.85332 14.7945Z" fill="white"/>
<path d="M9.99463 17.3704C9.69063 17.3544 9.4293 17.5891 9.40797 17.8931C9.38663 18.1971 9.62663 18.4584 9.93063 18.4797C10.2346 18.4957 10.496 18.2664 10.5173 17.9624C10.5333 17.6531 10.2986 17.3917 9.99463 17.3704Z" fill="white"/>
<path d="M9.99996 13.8877C9.56262 13.861 9.18929 14.197 9.16796 14.6344C9.14129 15.0717 9.47729 15.445 9.91462 15.4664C10.352 15.4877 10.7253 15.157 10.7466 14.7197C10.7733 14.2877 10.4373 13.909 9.99996 13.8877Z" fill="white"/>
<path d="M13.2373 14.7413C12.9066 14.9119 12.7733 15.3173 12.944 15.6479C13.1146 15.9786 13.52 16.1119 13.8506 15.9413C14.1813 15.7759 14.3146 15.3706 14.1493 15.0399C13.9786 14.7093 13.5733 14.5706 13.2373 14.7413Z" fill="white"/>
</g>
<defs>
<clipPath id="clip0">
<rect width="20" height="18.48" fill="white"/>
</clipPath>
</defs>
</svg>
