<svg width="10" height="10" viewBox="0 0 10 10" fill="none" xmlns="http://www.w3.org/2000/svg">
<g clip-path="url(#clip0_9004_4627)">
<path d="M5 0C2.25371 0 0 2.25371 0 5C0 7.74629 2.25371 10 5 10C7.74629 10 10 7.74629 10 5C10 2.25371 7.74629 0 5 0ZM5.58594 7.92969H4.41406V3.82812H5.58594V7.92969ZM5 3.24219C4.67699 3.24219 4.41406 2.97926 4.41406 2.65625C4.41406 2.33324 4.67699 2.07031 5 2.07031C5.32301 2.07031 5.58594 2.33324 5.58594 2.65625C5.58594 2.97926 5.32301 3.24219 5 3.24219Z" fill="white"/>
<path d="M5 0C2.25371 0 0 2.25371 0 5C0 7.74629 2.25371 10 5 10C7.74629 10 10 7.74629 10 5C10 2.25371 7.74629 0 5 0ZM5.58594 7.92969H4.41406V3.82812H5.58594V7.92969ZM5 3.24219C4.67699 3.24219 4.41406 2.97926 4.41406 2.65625C4.41406 2.33324 4.67699 2.07031 5 2.07031C5.32301 2.07031 5.58594 2.33324 5.58594 2.65625C5.58594 2.97926 5.32301 3.24219 5 3.24219Z" fill="url(#paint0_linear_9004_4627)"/>
</g>
<defs>
<linearGradient id="paint0_linear_9004_4627" x1="-1.66618" y1="5.00155" x2="10" y2="5.00152" gradientUnits="userSpaceOnUse">
<stop stopColor="#F1C6FF"/>
<stop offset="0.348958" stopColor="#BD0AF8"/>
<stop offset="0.994097" stopColor="#365CFC"/>
</linearGradient>
<clipPath id="clip0_9004_4627">
<rect width="10" height="10" fill="white"/>
</clipPath>
</defs>
</svg>
