<svg width="30" height="30" viewBox="0 0 30 30" fill="none" xmlns="http://www.w3.org/2000/svg">
<rect width="30" height="30" rx="3" fill="white"/>
<path d="M14.8483 4C12.6377 4.00827 10.52 4.89009 8.95688 6.45322C7.39375 8.01634 6.51194 10.134 6.50366 12.3446C6.50356 13.2663 6.65204 14.1819 6.9434 15.0563C7.04802 15.3425 7.25811 15.5778 7.53064 15.7141C7.80317 15.8504 8.1175 15.8772 8.4092 15.7892C8.69232 15.6816 8.92367 15.47 9.056 15.1976C9.18832 14.9252 9.21163 14.6125 9.12117 14.3234C8.87331 13.6434 8.76299 12.921 8.7966 12.198C8.83122 11.0309 9.20447 9.89911 9.8709 8.94038C10.5373 7.98165 11.4682 7.2374 12.55 6.79828C13.6319 6.35916 14.8181 6.24411 15.9642 6.46715C17.1103 6.69019 18.1668 7.2417 19.0051 8.05449C19.8433 8.86729 20.4271 9.9063 20.6854 11.045C20.9436 12.1837 20.8652 13.3729 20.4596 14.4678C20.054 15.5626 19.3388 16.516 18.4011 17.2116C17.4633 17.9073 16.3435 18.3152 15.1781 18.3858C15.1781 18.3858 14.0107 18.4591 13.4243 18.5324C13.2093 18.5627 12.9961 18.6047 12.7857 18.658C12.7705 18.6694 12.7518 18.6749 12.733 18.6735C12.7141 18.6722 12.6964 18.6641 12.683 18.6507C12.6697 18.6374 12.6616 18.6196 12.6602 18.6008C12.6589 18.5819 12.6644 18.5632 12.6757 18.5481L12.859 17.5587L13.9583 12.5802C14.0215 12.2837 13.9643 11.9744 13.7994 11.7201C13.6344 11.4658 13.3753 11.2875 13.0788 11.2243C12.7824 11.1611 12.473 11.2183 12.2188 11.3832C11.9645 11.5482 11.7861 11.8074 11.723 12.1038C11.723 12.1038 9.10546 24.2595 9.10546 24.3694C9.06942 24.5161 9.06369 24.6686 9.08862 24.8175C9.11356 24.9665 9.16863 25.1088 9.25048 25.2357C9.33232 25.3626 9.43921 25.4715 9.5646 25.5557C9.68999 25.6399 9.83124 25.6976 9.97971 25.7253C10.1267 25.7605 10.2793 25.7655 10.4283 25.7399C10.5773 25.7143 10.7195 25.6587 10.8463 25.5764C10.9731 25.4941 11.0819 25.387 11.166 25.2614C11.2501 25.1358 11.3078 24.9944 11.3356 24.8458C11.3722 24.6992 11.702 23.0868 11.702 23.0868C11.8235 22.4933 12.124 21.9513 12.563 21.5339C13.002 21.1164 13.5584 20.8435 14.1572 20.752C14.4085 20.7154 15.4712 20.6421 15.4712 20.6421C17.5949 20.4458 19.5627 19.4433 20.97 17.8408C22.3772 16.2382 23.117 14.1574 23.0373 12.0262C22.9575 9.89492 22.0642 7.87523 20.541 6.38237C19.0179 4.88952 16.9807 4.03696 14.8483 4Z" fill="#1E1E1E"/>
<path d="M21.8172 23.2178C21.6367 23.1812 21.4507 23.1807 21.27 23.2162C21.0893 23.2517 20.9174 23.3225 20.7641 23.4247C20.6109 23.5269 20.4793 23.6583 20.3771 23.8114C20.2748 23.9646 20.2038 24.1365 20.1681 24.3172C20.1293 24.4978 20.1272 24.6844 20.1617 24.8659C20.1963 25.0474 20.2669 25.2202 20.3694 25.3739C20.4719 25.5277 20.6042 25.6593 20.7585 25.761C20.9127 25.8627 21.0858 25.9325 21.2675 25.9662C21.448 26.0072 21.6349 26.0111 21.8169 25.9774C21.9989 25.9437 22.1722 25.8733 22.326 25.7704C22.4799 25.6675 22.6111 25.5343 22.7118 25.3789C22.8124 25.2236 22.8803 25.0493 22.9113 24.8668C22.973 24.5044 22.8941 24.132 22.6908 23.8256C22.4876 23.5192 22.1751 23.3019 21.8172 23.2178Z" fill="#E6007A"/>
</svg>
