<svg width="30" height="30" viewBox="0 0 30 30" fill="none" xmlns="http://www.w3.org/2000/svg">
<rect width="30" height="29.6024" rx="3" fill="url(#paint0_linear)"/>
<path d="M6.78266 19.6602C6.92508 19.5198 7.11818 19.4409 7.31952 19.4409H25.8955C26.2338 19.4409 26.4033 19.8447 26.1639 20.0807L22.4933 23.6997C22.3509 23.8402 22.1578 23.919 21.9565 23.919H3.3805C3.04213 23.919 2.87273 23.5153 3.11207 23.2792L6.78266 19.6602Z" fill="white"/>
<path d="M6.78266 6.13973C6.92508 5.99928 7.11818 5.92041 7.31952 5.92041H25.8955C26.2338 5.92041 26.4033 6.32419 26.1639 6.56023L22.4933 10.1793C22.3509 10.3197 22.1578 10.3985 21.9565 10.3985H3.3805C3.04213 10.3985 2.87273 9.99475 3.11207 9.75875L6.78266 6.13973Z" fill="white"/>
<path d="M22.4933 12.857C22.3509 12.7166 22.1578 12.6377 21.9565 12.6377H3.3805C3.04213 12.6377 2.87273 13.0415 3.11207 13.2775L6.78266 16.8965C6.92508 17.0369 7.11818 17.1158 7.31952 17.1158H25.8955C26.2338 17.1158 26.4033 16.712 26.1639 16.476L22.4933 12.857Z" fill="white"/>
<defs>
<linearGradient id="paint0_linear" x1="15" y1="0" x2="15" y2="29.6024" gradientUnits="userSpaceOnUse">
<stop stopColor="#0DF3A9"/>
<stop offset="0.5" stopColor="#9865E3"/>
<stop offset="1" stopColor="#CD2FF9"/>
</linearGradient>
</defs>
</svg>
