<svg width="16" height="14" viewBox="0 0 16 14" fill="none" xmlns="http://www.w3.org/2000/svg">
<path d="M15.6036 11.6092L9.45086 1.40537C9.20846 1.00339 8.76628 0.753662 8.29686 0.753662C7.82743 0.753662 7.38526 1.00339 7.14283 1.4054L0.990101 11.6092C0.739583 12.0247 0.732171 12.5453 0.970736 12.9677C1.20936 13.3902 1.65895 13.6526 2.1441 13.6526H14.4496C14.9348 13.6526 15.3844 13.3902 15.623 12.9677C15.8616 12.5452 15.8542 12.0247 15.6036 11.6092ZM14.7726 12.4875C14.707 12.6038 14.5832 12.6761 14.4496 12.6761H2.1441C2.01054 12.6761 1.88676 12.6038 1.82111 12.4875C1.75542 12.3712 1.75747 12.2279 1.82641 12.1136L7.97919 1.90969C8.04593 1.79903 8.16766 1.73027 8.29689 1.73027C8.42609 1.73027 8.54781 1.79903 8.61455 1.90969L14.7673 12.1136C14.8363 12.2279 14.8383 12.3712 14.7726 12.4875Z" fill="white"/>
<path d="M15.6036 11.6092L9.45086 1.40537C9.20846 1.00339 8.76628 0.753662 8.29686 0.753662C7.82743 0.753662 7.38526 1.00339 7.14283 1.4054L0.990101 11.6092C0.739583 12.0247 0.732171 12.5453 0.970736 12.9677C1.20936 13.3902 1.65895 13.6526 2.1441 13.6526H14.4496C14.9348 13.6526 15.3844 13.3902 15.623 12.9677C15.8616 12.5452 15.8542 12.0247 15.6036 11.6092ZM14.7726 12.4875C14.707 12.6038 14.5832 12.6761 14.4496 12.6761H2.1441C2.01054 12.6761 1.88676 12.6038 1.82111 12.4875C1.75542 12.3712 1.75747 12.2279 1.82641 12.1136L7.97919 1.90969C8.04593 1.79903 8.16766 1.73027 8.29689 1.73027C8.42609 1.73027 8.54781 1.79903 8.61455 1.90969L14.7673 12.1136C14.8363 12.2279 14.8383 12.3712 14.7726 12.4875Z" fill="white"/>
</svg>
