<svg width="20" height="19" viewBox="0 0 20 19" fill="none" xmlns="http://www.w3.org/2000/svg">
<path d="M14.979 11.423C15.468 10.5783 16.2571 10.5783 16.7461 11.423L19.7913 16.7687C20.2803 17.6134 19.8802 18.3024 18.9022 18.3024H12.7673C11.8004 18.3024 11.4003 17.6134 11.8782 16.7687L14.979 11.423ZM9.08867 1.13154C9.57767 0.286884 10.3556 0.286884 10.8447 1.13154L11.5226 2.35406L13.123 5.16586C13.512 5.96606 13.512 6.91073 13.123 7.71093L7.755 17.0132C7.266 17.769 6.45469 18.2469 5.55446 18.3024H1.09781C0.119795 18.3024 -0.280303 17.6245 0.208706 16.7687L9.08867 1.13154Z" fill="white"/>
</svg>
