<svg width="22" height="23" viewBox="0 0 22 23" fill="none" xmlns="http://www.w3.org/2000/svg">
<g clip-path="url(#clip0_884_2700)">
<path d="M15.2387 13.5514L17.7292 16.0433L10.989 22.7894L4.24967 16.0442L6.74025 13.5514L10.9899 17.8268L15.2387 13.5514ZM19.4893 9.29804L22 11.7899L19.5112 14.2817L17.0207 11.7899L19.4893 9.29804ZM10.9899 9.29804L13.4796 11.7679L10.989 14.2606L8.49933 11.7899L10.989 9.29896L10.9899 9.29804ZM2.48967 9.29804L4.95917 11.7899L2.4915 14.2597L0 11.7899L2.48967 9.29804ZM10.9908 0.789429L17.7302 7.51448L15.2396 10.0054L10.9899 5.75202L6.74117 10.0274L4.25058 7.53558L10.9899 0.790346L10.9908 0.789429Z" fill="#6567D1"/>
</g>
<defs>
<clipPath id="clip0_884_2700">
<rect width="22" height="21.4211" fill="white" transform="translate(0 0.789429)"/>
</clipPath>
</defs>
</svg>