<svg width="31" height="22" viewBox="0 0 31 22" fill="none" xmlns="http://www.w3.org/2000/svg">
<rect opacity="0.7" width="31" height="22" fill="url(#paint0_linear_9172_3932)"/>
<rect opacity="0.7" width="31" height="22" fill="url(#paint1_linear_9172_3932)"/>
<path d="M12.0002 10.8874L16.0001 5.00012L19.9999 10.8874L16.0001 13.0282L12.0002 10.8874Z" fill="white"/>
<path d="M15.9995 5L19.9994 10.8873L15.9995 13.0281V5Z" fill="#D9D9D9"/>
<path d="M12 11.6901L15.9998 13.8309L19.9997 11.6901L15.9998 16.7745L12 11.6901Z" fill="white"/>
<path d="M15.9998 13.831L19.9997 11.6902L15.9998 16.7746V13.831ZM12 10.8874L15.9998 9.28174L19.9997 10.8874L15.9998 13.0282L12 10.8874Z" fill="#D9D9D9"/>
<path d="M15.9995 9.28174L19.9994 10.8874L15.9995 13.0282V9.28174Z" fill="white"/>
<defs>
<linearGradient id="paint0_linear_9172_3932" x1="-5.16515" y1="11.0034" x2="31" y2="11.0033" gradientUnits="userSpaceOnUse">
<stop stopColor="#F1C6FF"/>
<stop offset="0.348958" stopColor="#BD0AF8"/>
<stop offset="0.994097" stopColor="#365CFC"/>
</linearGradient>
<linearGradient id="paint1_linear_9172_3932" x1="-5.16515" y1="11.0034" x2="31" y2="11.0033" gradientUnits="userSpaceOnUse">
<stop stopColor="#F1C6FF"/>
<stop offset="0.348958" stopColor="#BD0AF8"/>
<stop offset="0.994097" stopColor="#365CFC"/>
</linearGradient>
</defs>
</svg>

