<svg width="16" height="16" viewBox="0 0 16 16" fill="none" xmlns="http://www.w3.org/2000/svg">
<g clip-path="url(#clip0_79_6362)">
<path d="M14.7031 0.703125H1.89062C1.2875 0.703125 0.796875 1.19375 0.796875 1.79688V3.35938C0.796875 3.9625 1.2875 4.45312 1.89062 4.45312H14.7031C15.3062 4.45312 15.7969 3.9625 15.7969 3.35938V1.79688C15.7969 1.19375 15.3062 0.703125 14.7031 0.703125Z" fill="white"/>
<path d="M1.89062 15.703H6.57812C7.18125 15.703 7.67188 15.2124 7.67188 14.6093V6.79681C7.67188 6.19369 7.18125 5.70306 6.57812 5.70306H1.89062C1.2875 5.70306 0.796875 6.19369 0.796875 6.79681V14.6093C0.796875 15.2124 1.2875 15.703 1.89062 15.703Z" fill="white"/>
<path d="M14.7031 5.70306H10.0156C9.4125 5.70306 8.92188 6.19369 8.92188 6.79681V8.98431C8.92188 9.58744 9.4125 10.0781 10.0156 10.0781H14.7031C15.3062 10.0781 15.7969 9.58744 15.7969 8.98431V6.79681C15.7969 6.19369 15.3062 5.70306 14.7031 5.70306Z" fill="white"/>
<path d="M14.7031 11.3281H10.0156C9.4125 11.3281 8.92188 11.8187 8.92188 12.4218V14.6093C8.92188 15.2124 9.4125 15.703 10.0156 15.703H14.7031C15.3062 15.703 15.7969 15.2124 15.7969 14.6093V12.4218C15.7969 11.8187 15.3062 11.3281 14.7031 11.3281Z" fill="white"/>
</g>
<defs>
<clipPath id="clip0_79_6362">
<rect width="15" height="15" fill="white" transform="translate(0.796875 0.703125)"/>
</clipPath>
</defs>
</svg>
