<svg width="29" height="29" viewBox="0 0 29 29" fill="none" xmlns="http://www.w3.org/2000/svg">
<path d="M28.1357 14.5138V27.727C28.1357 27.8929 28.0013 28.0273 27.8354 28.0273H14.6222" stroke="white" stroke-width="0.300302"/>
<path d="M1.1084 14.5136V1.3003C1.1084 1.13445 1.24285 1 1.4087 1H14.622" stroke="white" stroke-width="0.300302"/>
<rect x="4.11133" y="4.00293" width="21.0211" height="21.0211" rx="0.300302" fill="white" fill-opacity="0.25"/>
<path d="M9.08222 18.9932H13.0358V17.4364H9.08222V18.9932ZM9.08222 12.71H13.0358V11.1532H9.08222V12.71ZM9.08222 15.6332H12.8118V14.11H9.08222V15.6332ZM7.82782 11.1532V18.9932H9.64222V11.1532H7.82782ZM19.9859 11.1532V15.566L14.5763 10.7612V18.9932H16.3907V14.5804L21.8115 19.3852V11.1532H19.9859Z" fill="white"/>
</svg>
