<svg width="22" height="22" viewBox="0 0 22 22" fill="none" xmlns="http://www.w3.org/2000/svg">
<path d="M21.0762 11.0189V20.8152C21.0762 20.9382 20.9765 21.0378 20.8535 21.0378H11.0573" stroke="white" stroke-width="0.222643"/>
<path d="M1.03809 11.0189V1.22264C1.03809 1.09968 1.13777 1 1.26073 1H11.057" stroke="white" stroke-width="0.222643"/>
<rect x="3.26465" y="3.22656" width="15.585" height="15.585" rx="0.222643" fill="white" fill-opacity="0.25"/>
<path d="M8.1709 11.0534L11.3708 6.34363L14.5706 11.0534L11.3708 12.7661L8.1709 11.0534Z" fill="white"/>
<path d="M11.3701 6.34351L14.57 11.0533L11.3701 12.7659V6.34351Z" fill="#D9D9D9"/>
<path d="M8.1709 11.6956L11.3708 13.4082L14.5706 11.6956L11.3708 15.7631L8.1709 11.6956Z" fill="white"/>
<path d="M11.3708 13.4083L14.5706 11.6957L11.3708 15.7632V13.4083ZM8.1709 11.0534L11.3708 9.76892L14.5706 11.0534L11.3708 12.7661L8.1709 11.0534Z" fill="#D9D9D9"/>
<path d="M11.3701 9.76892L14.57 11.0534L11.3701 12.7661V9.76892Z" fill="white"/>
</svg>
