<svg width="22" height="23" viewBox="0 0 22 23" fill="none" xmlns="http://www.w3.org/2000/svg">
    <path d="M10.9164 10.56L10.0346 11.4185C9.98846 11.4635 9.98846 11.5364 10.0346 11.5813L10.9164 12.4399C10.9626 12.4849 11.0374 12.4849 11.0836 12.4399L11.9654 11.5813C12.0115 11.5364 12.0115 11.4635 11.9654 11.4185L11.0836 10.56C11.0374 10.515 10.9626 10.515 10.9164 10.56Z" fill="#6567D1"/>
    <path d="M10.9979 2.73682C6.02947 2.73585 2.00098 6.68464 2 11.5567C1.99937 14.7392 3.74685 17.6754 6.57294 19.2402C6.65928 19.289 6.76206 19.3015 6.85794 19.2748C6.95316 19.2487 7.03399 19.1869 7.08297 19.1027L9.8579 14.2936C9.95964 14.1169 9.89623 13.8927 9.71612 13.7927C8.45214 13.0966 8.00299 11.5274 8.71299 10.2879C9.42294 9.04846 11.0231 8.60801 12.2871 9.30421C13.5511 10.0004 14.0003 11.5695 13.2903 12.809C13.0543 13.2211 12.7072 13.5614 12.2871 13.7927C12.107 13.8927 12.0436 14.1169 12.1453 14.2936L14.9128 19.1027C14.9616 19.1872 15.0425 19.2493 15.1378 19.2755C15.1705 19.2848 15.2043 19.2895 15.2383 19.2894C15.303 19.2894 15.3665 19.2729 15.4228 19.2417C19.75 16.8476 21.2788 11.467 18.8374 7.22367C17.2417 4.45014 14.2454 2.73523 10.9979 2.73682Z" fill="#6567D1"/>
</svg>