<svg width="22" height="22" viewBox="0 0 22 22" fill="none" xmlns="http://www.w3.org/2000/svg">
<path d="M21.0381 11.0189V20.8152C21.0381 20.9382 20.9384 21.0378 20.8154 21.0378H11.0192" stroke="white" stroke-width="0.222643"/>
<path d="M1 11.0189V1.22264C1 1.09968 1.09968 1 1.22264 1H11.0189" stroke="white" stroke-width="0.222643"/>
<rect x="3.22656" y="3.22656" width="15.585" height="15.585" rx="0.222643" fill="white" fill-opacity="0.25"/>
<rect x="10.4707" y="10.9686" width="0.770906" height="0.770906" rx="0.0614493" transform="rotate(-45 10.4707 10.9686)" fill="url(#paint0_linear_476_4666)"/>
<g filter="url(#filter0_i_476_4666)">
<path d="M11.0172 6.34351C8.43663 6.343 6.34426 8.425 6.34375 10.9938C6.34342 12.6718 7.25105 14.2199 8.7189 15.0449C8.76375 15.0707 8.81714 15.0772 8.86694 15.0632C8.91638 15.0494 8.95838 15.0168 8.9838 14.9724L10.4251 12.4368C10.4779 12.3437 10.445 12.2255 10.3515 12.1728C9.69495 11.8057 9.46167 10.9784 9.83042 10.3248C10.1992 9.67132 11.0303 9.4391 11.6868 9.80618C12.3433 10.1732 12.5766 11.0006 12.2078 11.6541C12.0853 11.8713 11.905 12.0508 11.6868 12.1728C11.5933 12.2255 11.5603 12.3437 11.6132 12.4368L13.0506 14.9724C13.0759 15.017 13.1179 15.0497 13.1674 15.0636C13.1844 15.0684 13.202 15.0709 13.2196 15.0709C13.2532 15.0709 13.2863 15.0622 13.3155 15.0457C15.563 13.7835 16.357 10.9465 15.089 8.70921C14.2602 7.24686 12.7039 6.34267 11.0172 6.34351Z" fill="url(#paint1_linear_476_4666)" fill-opacity="0.5"/>
</g>
<path d="M8.73748 15.0119L8.73776 15.0121C8.77376 15.0327 8.81664 15.038 8.85663 15.0267L8.85679 15.0267C8.89662 15.0156 8.9304 14.9893 8.95085 14.9537L8.73748 15.0119ZM8.73748 15.0119C7.28151 14.1936 6.38133 12.6581 6.38165 10.9938C6.38216 8.4461 8.45739 6.3809 11.0172 6.38141L11.0172 6.38141C12.6903 6.38058 14.234 7.27748 15.056 8.7279C16.3137 10.9469 15.5262 13.7606 13.2969 15.0127L13.2968 15.0127C13.2733 15.026 13.2467 15.033 13.2196 15.033C13.2055 15.033 13.1915 15.031 13.1779 15.0271L13.1776 15.027C13.1377 15.0159 13.1039 14.9895 13.0835 14.9537C13.0835 14.9537 13.0835 14.9537 13.0835 14.9537L11.6462 12.4181L11.6461 12.4181C11.6037 12.3433 11.6301 12.2483 11.7053 12.2058C11.9296 12.0805 12.1149 11.896 12.2408 11.6727C12.62 11.0009 12.3801 10.1504 11.7053 9.77309C11.0306 9.39587 10.1765 9.63445 9.79741 10.3062C9.4183 10.9781 9.65821 11.8286 10.333 12.2059L10.3515 12.1728M8.73748 15.0119L8.95091 14.9536L10.3921 12.4181C10.4346 12.3433 10.4082 12.2482 10.3329 12.2058L10.3515 12.1728M10.3515 12.1728C9.69495 11.8057 9.46167 10.9784 9.83042 10.3248C10.1992 9.67132 11.0303 9.4391 11.6868 9.80618C12.3433 10.1732 12.5766 11.0006 12.2078 11.6541C12.0853 11.8713 11.905 12.0508 11.6868 12.1728L10.4251 12.4368C10.4779 12.3437 10.445 12.2255 10.3515 12.1728Z" stroke="white" stroke-opacity="0.5" stroke-width="0.0758033"/>
<defs>
<filter id="filter0_i_476_4666" x="6.34375" y="6.34351" width="9.34863" height="9.48545" filterUnits="userSpaceOnUse" color-interpolation-filters="sRGB">
<feFlood flood-opacity="0" result="BackgroundImageFix"/>
<feBlend mode="normal" in="SourceGraphic" in2="BackgroundImageFix" result="shape"/>
<feColorMatrix in="SourceAlpha" type="matrix" values="0 0 0 0 0 0 0 0 0 0 0 0 0 0 0 0 0 0 127 0" result="hardAlpha"/>
<feOffset dy="1.26339"/>
<feGaussianBlur stdDeviation="0.379017"/>
<feComposite in2="hardAlpha" operator="arithmetic" k2="-1" k3="1"/>
<feColorMatrix type="matrix" values="0 0 0 0 1 0 0 0 0 1 0 0 0 0 1 0 0 0 0.4 0"/>
<feBlend mode="normal" in2="shape" result="effect1_innerShadow_476_4666"/>
</filter>
<linearGradient id="paint0_linear_476_4666" x1="10.4786" y1="10.8603" x2="11.2607" y2="11.6424" gradientUnits="userSpaceOnUse">
<stop offset="0.375" stopColor="#BD0AF8"/>
<stop offset="1" stopColor="#365CFC"/>
</linearGradient>
<linearGradient id="paint1_linear_476_4666" x1="6.34375" y1="10.7072" x2="15.6928" y2="10.7072" gradientUnits="userSpaceOnUse">
<stop stopColor="#EAFAFD"/>
<stop offset="0.269312" stopColor="#58E4DC"/>
<stop offset="0.690256" stopColor="#D0F6FF"/>
<stop offset="0.994097" stopColor="#58E4DC"/>
</linearGradient>
</defs>
</svg>
