<svg width="18" height="17" viewBox="0 0 18 17" fill="none" xmlns="http://www.w3.org/2000/svg">
<rect x="7.94531" y="8.90527" width="1.48424" height="1.48424" transform="rotate(-45 7.94531 8.90527)" fill="white"/>
<g filter="url(#filter0_i_10227_770)">
<path d="M8.99788 1.11549e-06C4.02947 -0.00097876 0.00098453 4.00755 1.71805e-07 8.95333C-0.00063263 12.184 1.74685 15.1646 4.57294 16.7531C4.65928 16.8026 4.76208 16.8153 4.85795 16.7882C4.95315 16.7617 5.03401 16.6989 5.08294 16.6135L7.85788 11.7316C7.95966 11.5522 7.89624 11.3247 7.71614 11.2232C6.45215 10.5165 6.003 8.92359 6.71297 7.66536C7.42294 6.40713 9.02312 5.96002 10.2871 6.66676C11.5511 7.37349 12.0002 8.96639 11.2903 10.2246C11.0543 10.6428 10.7072 10.9883 10.2871 11.2232C10.107 11.3247 10.0436 11.5522 10.1454 11.7316L12.9128 16.6135C12.9616 16.6992 13.0425 16.7623 13.1378 16.7889C13.1705 16.7983 13.2043 16.8031 13.2383 16.8031C13.303 16.803 13.3666 16.7863 13.4228 16.7545C17.75 14.3243 19.2788 8.86228 16.8374 4.55474C15.2417 1.73925 12.2454 -0.00160868 8.99788 1.11549e-06Z" fill="white"/>
</g>
<defs>
<filter id="filter0_i_10227_770" x="0" y="0" width="18" height="19.8872" filterUnits="userSpaceOnUse" color-interpolation-filters="sRGB">
<feFlood flood-opacity="0" result="BackgroundImageFix"/>
<feBlend mode="normal" in="SourceGraphic" in2="BackgroundImageFix" result="shape"/>
<feColorMatrix in="SourceAlpha" type="matrix" values="0 0 0 0 0 0 0 0 0 0 0 0 0 0 0 0 0 0 127 0" result="hardAlpha"/>
<feOffset dy="5.13996"/>
<feGaussianBlur stdDeviation="1.54199"/>
<feComposite in2="hardAlpha" operator="arithmetic" k2="-1" k3="1"/>
<feColorMatrix type="matrix" values="0 0 0 0 1 0 0 0 0 1 0 0 0 0 1 0 0 0 0.4 0"/>
<feBlend mode="normal" in2="shape" result="effect1_innerShadow_10227_770"/>
</filter>
</defs>
</svg>
