<svg width="32" height="22" viewBox="0 0 32 22" fill="none" xmlns="http://www.w3.org/2000/svg">
<rect x="1" width="31" height="22" fill="url(#paint0_linear_9172_3930)"/>
<rect opacity="0.7" width="31" height="22" fill="url(#paint1_linear_9172_3930)"/>
<rect x="14.621" y="11.4211" width="1.23687" height="1.23687" rx="0.25" transform="rotate(-45 14.621 11.4211)" fill="white"/>
<g filter="url(#filter0_i_9172_3930)">
<path d="M15.4982 4C11.3579 3.99918 8.00082 7.33963 8 11.4611C7.99947 14.1533 9.45571 16.6372 11.8108 17.9609C11.8827 18.0022 11.9684 18.0127 12.0483 17.9901C12.1276 17.9681 12.195 17.9158 12.2358 17.8446L14.5482 13.7764C14.6331 13.6269 14.5802 13.4373 14.4301 13.3527C13.3768 12.7638 13.0025 11.4363 13.5941 10.3878C14.1858 9.33927 15.5193 8.96669 16.5726 9.55563C17.6259 10.1446 18.0002 11.472 17.4086 12.5205C17.2119 12.869 16.9227 13.1569 16.5726 13.3527C16.4225 13.4373 16.3697 13.6269 16.4545 13.7764L18.7607 17.8446C18.8013 17.916 18.8687 17.9686 18.9482 17.9908C18.9754 17.9986 19.0036 18.0026 19.0319 18.0026C19.0858 18.0025 19.1388 17.9886 19.1857 17.9621C22.7917 15.9369 24.0657 11.3852 22.0312 7.79562C20.7014 5.44937 18.2045 3.99866 15.4982 4Z" fill="white" fill-opacity="0.35"/>
</g>
<path d="M11.8863 17.8265L11.8875 17.8271C11.9235 17.8478 11.9664 17.8531 12.0064 17.8418L12.007 17.8416C12.0473 17.8304 12.0813 17.8039 12.1019 17.7681C12.1019 17.7681 12.1019 17.768 12.102 17.7679L14.4141 13.7003L11.8863 17.8265ZM11.8863 17.8265C9.57964 16.53 8.15368 14.0974 8.1542 11.4611C8.155 7.42548 11.4424 4.1534 15.4982 4.1542L15.4983 4.1542M11.8863 17.8265L15.4983 4.1542M15.4983 4.1542C18.1492 4.15289 20.5947 5.57394 21.8971 7.87165C23.8892 11.3867 22.642 15.8441 19.1102 17.8277L19.1099 17.8278C19.0861 17.8412 19.0592 17.8483 19.0318 17.8484C19.018 17.8484 19.0043 17.8464 18.9909 17.8426L18.9896 17.8422C18.9493 17.831 18.9152 17.8043 18.8947 17.7683L16.5886 13.7003L16.5886 13.7003M15.4983 4.1542L16.5886 13.7003M16.5886 13.7003C16.5461 13.6253 16.5722 13.53 16.6481 13.4871L16.5886 13.7003ZM14.3546 13.4871C14.4304 13.53 14.4566 13.6253 14.4142 13.7002L14.3546 13.4871ZM14.3546 13.4871C13.2273 12.8567 12.8261 11.4351 13.4598 10.312C14.0934 9.18924 15.5207 8.79082 16.6478 9.42104C17.7754 10.0515 18.1766 11.4731 17.5429 12.5963C17.5429 12.5963 17.5429 12.5963 17.5429 12.5963L17.4086 12.5205L14.3546 13.4871ZM11.8108 17.9609C11.8827 18.0022 11.9684 18.0127 12.0483 17.9901L11.8108 17.9609Z" stroke="white" stroke-opacity="0.5" stroke-width="0.308398"/>
<defs>
<filter id="filter0_i_9172_3930" x="8" y="4" width="15" height="17.0865" filterUnits="userSpaceOnUse" color-interpolation-filters="sRGB">
<feFlood flood-opacity="0" result="BackgroundImageFix"/>
<feBlend mode="normal" in="SourceGraphic" in2="BackgroundImageFix" result="shape"/>
<feColorMatrix in="SourceAlpha" type="matrix" values="0 0 0 0 0 0 0 0 0 0 0 0 0 0 0 0 0 0 127 0" result="hardAlpha"/>
<feOffset dy="5.13996"/>
<feGaussianBlur stdDeviation="1.54199"/>
<feComposite in2="hardAlpha" operator="arithmetic" k2="-1" k3="1"/>
<feColorMatrix type="matrix" values="0 0 0 0 1 0 0 0 0 1 0 0 0 0 1 0 0 0 0.4 0"/>
<feBlend mode="normal" in2="shape" result="effect1_innerShadow_9172_3930"/>
</filter>
<linearGradient id="paint0_linear_9172_3930" x1="-4.16515" y1="11.0034" x2="32" y2="11.0033" gradientUnits="userSpaceOnUse">
<stop stop-color="#F1C6FF"/>
<stop offset="0.348958" stop-color="#BD0AF8"/>
<stop offset="0.994097" stop-color="#365CFC"/>
</linearGradient>
<linearGradient id="paint1_linear_9172_3930" x1="-5.16515" y1="11.0034" x2="31" y2="11.0033" gradientUnits="userSpaceOnUse">
<stop stop-color="#F1C6FF"/>
<stop offset="0.348958" stop-color="#BD0AF8"/>
<stop offset="0.994097" stop-color="#365CFC"/>
</linearGradient>
</defs>
</svg>
