<svg width="16" height="16" viewBox="0 0 16 16" fill="none" xmlns="http://www.w3.org/2000/svg">
<path d="M7.96377 9.3611C8.15385 9.3611 8.33614 9.28559 8.47055 9.15118C8.60496 9.01677 8.68047 8.83448 8.68047 8.6444V1.47741C8.68047 1.28733 8.60496 1.10503 8.47055 0.970628C8.33614 0.836221 8.15385 0.760712 7.96377 0.760712C7.77369 0.760712 7.59139 0.836221 7.45699 0.970628C7.32258 1.10503 7.24707 1.28733 7.24707 1.47741V8.6444C7.24707 8.83448 7.32258 9.01677 7.45699 9.15118C7.59139 9.28559 7.77369 9.3611 7.96377 9.3611Z" fill="white"/>
<path d="M11.2535 2.27297C11.0843 2.18554 10.8874 2.16888 10.7059 2.22668C10.5245 2.28447 10.3734 2.41198 10.286 2.58115C10.1985 2.75032 10.1819 2.9473 10.2397 3.12875C10.2975 3.3102 10.425 3.46126 10.5942 3.5487C11.7362 4.1383 12.647 5.09452 13.1804 6.26385C13.7138 7.43319 13.8388 8.74783 13.5354 9.99675C13.2321 11.2457 12.5179 12.3565 11.5075 13.1508C10.4971 13.9451 9.24911 14.377 7.96387 14.377C6.67862 14.377 5.43065 13.9451 4.42026 13.1508C3.40987 12.3565 2.69567 11.2457 2.3923 9.99675C2.08892 8.74783 2.21397 7.43319 2.74736 6.26385C3.28075 5.09452 4.19156 4.1383 5.33358 3.5487C5.41735 3.5054 5.49177 3.44603 5.55259 3.37398C5.61341 3.30192 5.65944 3.2186 5.68806 3.12875C5.71667 3.03891 5.72732 2.9443 5.71937 2.85035C5.71143 2.75639 5.68506 2.66492 5.64176 2.58115C5.59847 2.49739 5.5391 2.42297 5.46704 2.36215C5.39499 2.30133 5.31166 2.2553 5.22182 2.22668C5.13197 2.19806 5.03737 2.18742 4.94341 2.19536C4.84946 2.20331 4.75798 2.22968 4.67422 2.27297C3.24705 3.0103 2.10897 4.20571 1.4426 5.66737C0.776243 7.12902 0.620244 8.77216 0.999642 10.3331C1.37904 11.894 2.27184 13.2823 3.53476 14.275C4.79767 15.2677 6.35748 15.8074 7.96387 15.8074C9.57025 15.8074 11.1301 15.2677 12.393 14.275C13.6559 13.2823 14.5487 11.894 14.9281 10.3331C15.3075 8.77216 15.1515 7.12902 14.4851 5.66737C13.8188 4.20571 12.6807 3.0103 11.2535 2.27297Z" fill="white"/>
</svg>
