<svg width="16" height="17" viewBox="0 0 16 17" fill="none" xmlns="http://www.w3.org/2000/svg">
<path d="M14.0274 9.45869C14.0582 9.21196 14.0814 8.96523 14.0814 8.70307C14.0814 8.44092 14.0582 8.19419 14.0274 7.94746L15.6543 6.67524C15.8008 6.55958 15.8393 6.3514 15.7468 6.18177L14.2047 3.51398C14.1122 3.34435 13.904 3.28266 13.7344 3.34435L11.8145 4.11539C11.4136 3.80697 10.9818 3.55253 10.5115 3.35977L10.2185 1.31651C10.1953 1.13146 10.0334 0.992676 9.84066 0.992676H6.7565C6.56374 0.992676 6.40182 1.13146 6.37869 1.31651L6.08569 3.35977C5.61536 3.55253 5.18358 3.81468 4.78264 4.11539L2.86275 3.34435C2.68541 3.27495 2.48494 3.34435 2.39241 3.51398L0.850332 6.18177C0.750097 6.3514 0.79636 6.55958 0.942857 6.67524L2.56975 7.94746C2.53891 8.19419 2.51578 8.44863 2.51578 8.70307C2.51578 8.95752 2.53891 9.21196 2.56975 9.45869L0.942857 10.7309C0.79636 10.8466 0.757808 11.0547 0.850332 11.2244L2.39241 13.8922C2.48494 14.0618 2.69312 14.1235 2.86275 14.0618L4.78264 13.2908C5.18358 13.5992 5.61536 13.8536 6.08569 14.0464L6.37869 16.0896C6.40182 16.2747 6.56374 16.4135 6.7565 16.4135H9.84066C10.0334 16.4135 10.1953 16.2747 10.2185 16.0896L10.5115 14.0464C10.9818 13.8536 11.4136 13.5915 11.8145 13.2908L13.7344 14.0618C13.9117 14.1312 14.1122 14.0618 14.2047 13.8922L15.7468 11.2244C15.8393 11.0547 15.8008 10.8466 15.6543 10.7309L14.0274 9.45869ZM8.29858 11.4017C6.81047 11.4017 5.59994 10.1912 5.59994 8.70307C5.59994 7.21497 6.81047 6.00444 8.29858 6.00444C9.78668 6.00444 10.9972 7.21497 10.9972 8.70307C10.9972 10.1912 9.78668 11.4017 8.29858 11.4017Z" fill="white"/>
</svg>
