<svg width="21" height="22" viewBox="0 0 21 22" fill="none" xmlns="http://www.w3.org/2000/svg">
<path d="M20.3789 11.0189V20.8152C20.3789 20.9382 20.2792 21.0378 20.1563 21.0378H10.36" stroke="white" stroke-width="0.222643"/>
<path d="M0.34082 11.0189V1.22264C0.34082 1.09968 0.440501 1 0.563463 1H10.3597" stroke="white" stroke-width="0.222643"/>
<rect x="2.56738" y="3.22656" width="15.585" height="15.585" rx="0.222643" fill="white" fill-opacity="0.25"/>
<path d="M12.8115 9.25C12.8115 10.525 11.8365 11.5 10.5615 11.5C9.28652 11.5 8.31152 10.525 8.31152 9.25C8.31152 7.975 9.28652 7 10.5615 7C11.8365 7 12.8115 7.975 12.8115 9.25ZM6.06152 15.25C6.06152 13.75 9.06152 12.925 10.5615 12.925C12.0615 12.925 15.0615 13.75 15.0615 15.25C15.0615 15.6642 14.7257 16 14.3115 16H6.81152C6.39731 16 6.06152 15.6642 6.06152 15.25Z" fill="white"/>
</svg>
