<svg width="39" height="36" viewBox="0 0 39 36" fill="none" xmlns="http://www.w3.org/2000/svg">
<rect x="16.7891" y="18.8179" width="3.13635" height="3.13635" rx="0.25" transform="rotate(-45 16.7891 18.8179)" fill="url(#paint0_linear_6141_3930)"/>
<mask id="path-2-inside-1_6141_3930" fill="white">
<path d="M19.0134 2.35713e-06C8.51466 -0.00206821 0.00208041 8.46834 3.63041e-07 18.9193C-0.00133681 25.746 3.69126 32.0443 9.66306 35.4009C9.84551 35.5055 10.0627 35.5323 10.2653 35.475C10.4665 35.4191 10.6373 35.2865 10.7408 35.1059L16.6045 24.7901C16.8195 24.411 16.6855 23.9302 16.3049 23.7157C13.634 22.2224 12.6849 18.8564 14.1852 16.1976C15.6854 13.5389 19.0667 12.5941 21.7376 14.0875C24.4086 15.5809 25.3577 18.9468 23.8574 21.6056C23.3588 22.4894 22.6254 23.2194 21.7376 23.7157C21.3571 23.9302 21.2231 24.411 21.4381 24.7901L27.286 35.1059C27.3891 35.2871 27.5601 35.4204 27.7614 35.4766C27.8305 35.4965 27.9019 35.5066 27.9738 35.5065C28.1105 35.5064 28.2448 35.471 28.3637 35.404C37.5075 30.2686 40.738 18.7268 35.5791 9.62461C32.2071 3.67519 25.8757 -0.0033993 19.0134 2.35713e-06Z"/>
</mask>
<g filter="url(#filter0_i_6141_3930)">
<path d="M19.0134 2.35713e-06C8.51466 -0.00206821 0.00208041 8.46834 3.63041e-07 18.9193C-0.00133681 25.746 3.69126 32.0443 9.66306 35.4009C9.84551 35.5055 10.0627 35.5323 10.2653 35.475C10.4665 35.4191 10.6373 35.2865 10.7408 35.1059L16.6045 24.7901C16.8195 24.411 16.6855 23.9302 16.3049 23.7157C13.634 22.2224 12.6849 18.8564 14.1852 16.1976C15.6854 13.5389 19.0667 12.5941 21.7376 14.0875C24.4086 15.5809 25.3577 18.9468 23.8574 21.6056C23.3588 22.4894 22.6254 23.2194 21.7376 23.7157C21.3571 23.9302 21.2231 24.411 21.4381 24.7901L27.286 35.1059C27.3891 35.2871 27.5601 35.4204 27.7614 35.4766C27.8305 35.4965 27.9019 35.5066 27.9738 35.5065C28.1105 35.5064 28.2448 35.471 28.3637 35.404C37.5075 30.2686 40.738 18.7268 35.5791 9.62461C32.2071 3.67519 25.8757 -0.0033993 19.0134 2.35713e-06Z" fill="white" fill-opacity="0.35"/>
</g>
<path d="M19.0134 2.35713e-06C8.51466 -0.00206821 0.00208041 8.46834 3.63041e-07 18.9193C-0.00133681 25.746 3.69126 32.0443 9.66306 35.4009C9.84551 35.5055 10.0627 35.5323 10.2653 35.475C10.4665 35.4191 10.6373 35.2865 10.7408 35.1059L16.6045 24.7901C16.8195 24.411 16.6855 23.9302 16.3049 23.7157C13.634 22.2224 12.6849 18.8564 14.1852 16.1976C15.6854 13.5389 19.0667 12.5941 21.7376 14.0875C24.4086 15.5809 25.3577 18.9468 23.8574 21.6056C23.3588 22.4894 22.6254 23.2194 21.7376 23.7157C21.3571 23.9302 21.2231 24.411 21.4381 24.7901L27.286 35.1059C27.3891 35.2871 27.5601 35.4204 27.7614 35.4766C27.8305 35.4965 27.9019 35.5066 27.9738 35.5065C28.1105 35.5064 28.2448 35.471 28.3637 35.404C37.5075 30.2686 40.738 18.7268 35.5791 9.62461C32.2071 3.67519 25.8757 -0.0033993 19.0134 2.35713e-06Z" stroke="white" stroke-opacity="0.5" stroke-width="0.616796" mask="url(#path-2-inside-1_6141_3930)"/>
<defs>
<filter id="filter0_i_6141_3930" x="0" y="0" width="38.0361" height="38.5906" filterUnits="userSpaceOnUse" color-interpolation-filters="sRGB">
<feFlood flood-opacity="0" result="BackgroundImageFix"/>
<feBlend mode="normal" in="SourceGraphic" in2="BackgroundImageFix" result="shape"/>
<feColorMatrix in="SourceAlpha" type="matrix" values="0 0 0 0 0 0 0 0 0 0 0 0 0 0 0 0 0 0 127 0" result="hardAlpha"/>
<feOffset dy="5.13996"/>
<feGaussianBlur stdDeviation="1.54199"/>
<feComposite in2="hardAlpha" operator="arithmetic" k2="-1" k3="1"/>
<feColorMatrix type="matrix" values="0 0 0 0 1 0 0 0 0 1 0 0 0 0 1 0 0 0 0.4 0"/>
<feBlend mode="normal" in2="shape" result="effect1_innerShadow_6141_3930"/>
</filter>
<linearGradient id="paint0_linear_6141_3930" x1="16.8213" y1="18.3772" x2="20.0033" y2="21.5592" gradientUnits="userSpaceOnUse">
<stop offset="0.375" stopColor="#BD0AF8"/>
<stop offset="1" stopColor="#365CFC"/>
</linearGradient>
</defs>
</svg>
