<svg width="39" height="37" viewBox="0 0 39 37" fill="none" xmlns="http://www.w3.org/2000/svg">
<path d="M38.4844 18.5V35.6111C38.4844 35.8259 38.3103 36 38.0955 36H20.9843" stroke="white" stroke-width="0.38889"/>
<path d="M0.484375 18.5V1.38889C0.484375 1.17411 0.658487 1 0.873265 1H17.9844" stroke="white" stroke-width="0.38889"/>
<rect x="4.48438" y="5" width="30" height="27" rx="0.38889" fill="white" fill-opacity="0.25"/>
<path d="M16.4844 12H14.4844C11.1707 12 8.48438 14.6863 8.48438 18V18C8.48438 21.3137 11.1707 24 14.4844 24H16.4844" stroke="white" stroke-width="2" stroke-linecap="round"/>
<path d="M22.4844 12H24.4844C27.7981 12 30.4844 14.6863 30.4844 18V18C30.4844 21.3137 27.7981 24 24.4844 24H22.4844" stroke="white" stroke-width="2" stroke-linecap="round"/>
<path d="M13.4844 18H25.9844" stroke="white" stroke-width="2" stroke-linecap="round"/>
</svg>
