<svg width="31" height="31" viewBox="0 0 31 31" fill="none" xmlns="http://www.w3.org/2000/svg">
<path d="M30 15.5V29.7774C30 29.9003 29.9003 30 29.7774 30H15.5" stroke="white" stroke-width="0.222643"/>
<path d="M1 15.5V1.22264C1 1.09968 1.09968 1 1.22264 1H15.5" stroke="white" stroke-width="0.222643"/>
<rect x="4.22266" y="4.22241" width="22.5556" height="22.5556" rx="0.222643" fill="white" fill-opacity="0.25"/>
<rect x="4.22266" y="4.22241" width="22.5556" height="22.5556" rx="0.222643" fill="url(#paint0_radial_6122_3353)"/>
<path d="M11.3242 15.5497L15.9553 8.7334L20.5863 15.5497L15.9553 18.0284L11.3242 15.5497Z" fill="white"/>
<path d="M15.9551 8.7334L20.5861 15.5497L15.9551 18.0284V8.7334Z" fill="#D9D9D9"/>
<path d="M11.3242 16.4792L15.9553 18.9579L20.5863 16.4792L15.9553 22.366L11.3242 16.4792Z" fill="white"/>
<path d="M15.9553 18.9581L20.5863 16.4794L15.9553 22.3662V18.9581ZM11.3242 15.5499L15.9553 13.6909L20.5863 15.5499L15.9553 18.0286L11.3242 15.5499Z" fill="#D9D9D9"/>
<path d="M15.9551 13.6909L20.5861 15.5499L15.9551 18.0286V13.6909Z" fill="white"/>
<defs>
<radialGradient id="paint0_radial_6122_3353" cx="0" cy="0" r="1" gradientUnits="userSpaceOnUse" gradientTransform="translate(21.7862 20.2653) rotate(-136.096) scale(20.1806 20.698)">
<stop stopColor="#365CFC"/>
<stop offset="1" stopColor="#BD0AF8"/>
</radialGradient>
</defs>
</svg>
