<svg width="17" height="17" viewBox="0 0 17 17" fill="none" xmlns="http://www.w3.org/2000/svg">
<path d="M14.5933 16.4604H6.12646C5.09652 16.4604 4.25879 15.6227 4.25879 14.5928V6.12598C4.25879 5.09603 5.09652 4.2583 6.12646 4.2583H14.5933C15.6232 4.2583 16.4609 5.09603 16.4609 6.12598V14.5928C16.4609 15.6227 15.6232 16.4604 14.5933 16.4604ZM6.12646 5.50342C5.78318 5.50342 5.50391 5.78269 5.50391 6.12598V14.5928C5.50391 14.9361 5.78318 15.2153 6.12646 15.2153H14.5933C14.9365 15.2153 15.2158 14.9361 15.2158 14.5928V6.12598C15.2158 5.78269 14.9365 5.50342 14.5933 5.50342H6.12646ZM3.01367 11.48H2.39111C2.04783 11.48 1.76855 11.2007 1.76855 10.8574V2.39062C1.76855 2.04734 2.04783 1.76807 2.39111 1.76807H10.8579C11.2012 1.76807 11.4805 2.04734 11.4805 2.39062V2.98206H12.7256V2.39062C12.7256 1.36068 11.8879 0.522949 10.8579 0.522949H2.39111C1.36117 0.522949 0.523438 1.36068 0.523438 2.39062V10.8574C0.523438 11.8874 1.36117 12.7251 2.39111 12.7251H3.01367V11.48Z" fill="white"/>
<path d="M14.5933 16.4604H6.12646C5.09652 16.4604 4.25879 15.6227 4.25879 14.5928V6.12598C4.25879 5.09603 5.09652 4.2583 6.12646 4.2583H14.5933C15.6232 4.2583 16.4609 5.09603 16.4609 6.12598V14.5928C16.4609 15.6227 15.6232 16.4604 14.5933 16.4604ZM6.12646 5.50342C5.78318 5.50342 5.50391 5.78269 5.50391 6.12598V14.5928C5.50391 14.9361 5.78318 15.2153 6.12646 15.2153H14.5933C14.9365 15.2153 15.2158 14.9361 15.2158 14.5928V6.12598C15.2158 5.78269 14.9365 5.50342 14.5933 5.50342H6.12646ZM3.01367 11.48H2.39111C2.04783 11.48 1.76855 11.2007 1.76855 10.8574V2.39062C1.76855 2.04734 2.04783 1.76807 2.39111 1.76807H10.8579C11.2012 1.76807 11.4805 2.04734 11.4805 2.39062V2.98206H12.7256V2.39062C12.7256 1.36068 11.8879 0.522949 10.8579 0.522949H2.39111C1.36117 0.522949 0.523438 1.36068 0.523438 2.39062V10.8574C0.523438 11.8874 1.36117 12.7251 2.39111 12.7251H3.01367V11.48Z" fill="url(#paint0_linear_1352_5730)"/>
<defs>
<linearGradient id="paint0_linear_1352_5730" x1="-2.13203" y1="8.49417" x2="16.4609" y2="8.49413" gradientUnits="userSpaceOnUse">
<stop stopColor="#F1C6FF"/>
<stop offset="0.348958" stopColor="#BD0AF8"/>
<stop offset="0.994097" stopColor="#365CFC"/>
</linearGradient>
</defs>
</svg>
