<svg width="17" height="18" viewBox="0 0 17 18" fill="none" xmlns="http://www.w3.org/2000/svg">
<path fillRule="evenodd" clipRule="evenodd" d="M7.85021 0.0182425C7.65343 0.034638 7.33587 0.0725849 7.14452 0.102626C6.95313 0.132633 6.59597 0.20918 6.35079 0.272734C6.10565 0.336253 5.75038 0.445248 5.56134 0.51492C5.37229 0.584593 5.00107 0.747551 4.7364 0.877065C4.47174 1.00658 4.06958 1.23612 3.84273 1.38715C3.61587 1.53818 3.29896 1.76748 3.13851 1.89671C2.97806 2.02595 2.69106 2.28636 2.5007 2.4754C2.31038 2.66445 2.02523 2.98153 1.86705 3.18003C1.70887 3.37853 1.48287 3.68802 1.36484 3.86779C1.24681 4.04759 1.05755 4.3724 0.944332 4.5896C0.831075 4.80683 0.666467 5.16808 0.578543 5.39236C0.490619 5.61664 0.366536 5.99044 0.302775 6.22303C0.239015 6.4556 0.154391 6.83826 0.114691 7.07333C0.0749915 7.30844 0.0290705 7.7285 0.0126406 8.00685C-0.00454543 8.29856 -0.00416782 8.72106 0.0135338 9.00436C0.0304449 9.27466 0.0750603 9.67575 0.112629 9.89563C0.150232 10.1155 0.220076 10.4496 0.267819 10.638C0.315596 10.8264 0.41043 11.1396 0.478589 11.3339C0.546749 11.5282 0.700221 11.8921 0.81963 12.1425C0.939039 12.393 1.11571 12.7287 1.21226 12.8885C1.30881 13.0483 1.48772 13.3183 1.60988 13.4884C1.80195 13.7559 1.83196 13.818 1.83196 13.9478C1.83196 14.0304 1.80704 14.1819 1.77662 14.2846C1.74617 14.3873 1.6901 14.5325 1.65202 14.6072C1.6139 14.682 1.49576 14.8346 1.38942 14.9464C1.28307 15.0582 1.1 15.2183 0.982553 15.3023C0.865138 15.3863 0.699842 15.532 0.615252 15.6261C0.502752 15.7512 0.450645 15.8454 0.421291 15.9765C0.391594 16.1092 0.391009 16.1925 0.419023 16.2965C0.439818 16.3738 0.500656 16.4975 0.554139 16.5713C0.607657 16.6451 0.729059 16.7477 0.823926 16.7993C0.918828 16.8509 1.0955 16.9152 1.21656 16.9423C1.33762 16.9694 1.56815 17.0016 1.72884 17.014C1.88953 17.0263 2.22208 17.0193 2.46784 16.9983C2.7136 16.9773 3.06547 16.9296 3.24977 16.8923C3.43408 16.855 3.72796 16.7772 3.90285 16.7194C4.07773 16.6615 4.39186 16.5327 4.60088 16.4331L4.98096 16.2519L5.16802 16.3348C5.27093 16.3804 5.50978 16.4718 5.69882 16.538C5.88787 16.6042 6.2231 16.7026 6.44377 16.7567C6.66444 16.8108 7.01246 16.8833 7.21715 16.9178C7.51237 16.9675 7.77758 16.9805 8.50015 16.9805C9.22273 16.9805 9.48794 16.9675 9.78316 16.9178C9.98785 16.8833 10.3359 16.8108 10.5565 16.7567C10.7772 16.7026 11.1202 16.6017 11.3187 16.5324C11.5172 16.4632 11.8312 16.337 12.0166 16.2521C12.2019 16.1672 12.4803 16.0269 12.6353 15.9402C12.7902 15.8536 13.0522 15.6923 13.2175 15.5817C13.3827 15.4712 13.6688 15.259 13.8533 15.1103C14.0378 14.9615 14.3756 14.6486 14.604 14.4149C14.8323 14.1813 15.151 13.8122 15.3121 13.5948C15.4732 13.3774 15.6936 13.0526 15.802 12.873C15.9104 12.6934 16.0729 12.3918 16.1632 12.2027C16.2534 12.0137 16.3833 11.7121 16.4517 11.5325C16.5201 11.3529 16.6291 11.0203 16.6939 10.7935C16.7586 10.5666 16.8445 10.1861 16.8847 9.94781C16.9249 9.70957 16.9712 9.2881 16.9875 9.01116C17.0042 8.72838 17.0042 8.28705 16.9875 8.00427C16.9712 7.72733 16.9253 7.30844 16.8856 7.07333C16.8459 6.83826 16.7613 6.4556 16.6975 6.22303C16.6338 5.99044 16.5097 5.61664 16.4218 5.39236C16.3339 5.16808 16.1691 4.8067 16.0555 4.58929C15.942 4.37189 15.7358 4.02387 15.5973 3.81592C15.4588 3.60797 15.2399 3.30635 15.1109 3.14566C14.9818 2.98497 14.7138 2.69109 14.5153 2.49259C14.3168 2.29409 14.0229 2.02595 13.8622 1.89671C13.7015 1.76748 13.3844 1.53818 13.1576 1.38715C12.9307 1.23612 12.5286 1.00658 12.2639 0.877065C11.9992 0.747551 11.628 0.584318 11.439 0.514336C11.2499 0.44432 10.8632 0.328589 10.5797 0.257095C10.2961 0.185601 9.87074 0.102764 9.63444 0.0729974C9.39813 0.0432311 8.9805 0.012021 8.70639 0.00363422C8.43227 -0.00471822 8.04699 0.0018126 7.85021 0.0182425ZM9.68599 1.23701C9.85614 1.26825 10.1445 1.3314 10.3268 1.37728C10.5091 1.4232 10.7952 1.50852 10.9627 1.56688C11.1301 1.62524 11.4682 1.77105 11.714 1.89091C11.9597 2.01073 12.3232 2.21541 12.5217 2.34575C12.7202 2.47609 13.0218 2.69913 13.192 2.84143C13.3621 2.98373 13.6487 3.25417 13.8289 3.44247C14.009 3.63072 14.2598 3.92323 14.3861 4.09251C14.5124 4.26176 14.7123 4.562 14.8303 4.75971C14.9483 4.95742 15.1207 5.28894 15.2132 5.49641C15.3058 5.70391 15.4325 6.02935 15.4948 6.21967C15.557 6.40999 15.6418 6.72037 15.6831 6.90941C15.7244 7.09846 15.7796 7.43101 15.8059 7.64841C15.8321 7.86582 15.8541 8.2415 15.8547 8.48328C15.8553 8.72509 15.8395 9.0731 15.8195 9.25665C15.7996 9.44023 15.7459 9.77605 15.7003 10.0029C15.6546 10.2298 15.5608 10.5855 15.4918 10.7935C15.4227 11.0014 15.304 11.3108 15.228 11.4809C15.1519 11.651 15.02 11.914 14.9349 12.0652C14.8498 12.2165 14.6965 12.4664 14.5942 12.6205C14.4919 12.7747 14.2874 13.0454 14.1398 13.222C13.9922 13.3987 13.7494 13.6594 13.6004 13.8015C13.4514 13.9436 13.22 14.1471 13.0861 14.2537C12.9523 14.3604 12.6971 14.5435 12.519 14.6607C12.3409 14.778 12.0173 14.963 11.7999 15.0721C11.5825 15.1811 11.2499 15.3284 11.0609 15.3993C10.8718 15.4702 10.5137 15.5797 10.2651 15.6426C10.0166 15.7055 9.5912 15.7828 9.3199 15.8143C8.95462 15.8569 8.67958 15.8666 8.25955 15.8517C7.94762 15.8407 7.54547 15.8073 7.36587 15.7776C7.18628 15.7478 6.8924 15.6863 6.7128 15.6408C6.53321 15.5953 6.26253 15.5166 6.11129 15.4659C5.96005 15.4151 5.66617 15.2966 5.45822 15.2024C5.20954 15.0898 5.03149 15.0305 4.938 15.0291C4.84471 15.0277 4.73847 15.0588 4.62865 15.1198C4.53667 15.1708 4.29129 15.2963 4.08333 15.3987C3.87538 15.5011 3.56603 15.6251 3.39589 15.6743C3.22575 15.7235 2.9396 15.7861 2.76001 15.8133C2.58041 15.8406 2.36655 15.863 2.28478 15.8632L2.13612 15.8634L2.31915 15.6426C2.41983 15.5211 2.55425 15.3357 2.61788 15.2305C2.6815 15.1253 2.77733 14.9114 2.83085 14.7552C2.88433 14.5991 2.94634 14.3325 2.96861 14.1628C2.99088 13.9932 3.00006 13.7574 2.98899 13.6389C2.97793 13.5203 2.95146 13.3908 2.93018 13.3511C2.90891 13.3113 2.794 13.1525 2.6748 12.9981C2.55563 12.8437 2.37067 12.5783 2.26381 12.4085C2.15691 12.2386 1.98371 11.9242 1.87891 11.7099C1.77408 11.4955 1.61411 11.0933 1.5234 10.8162C1.43269 10.539 1.32576 10.1421 1.28578 9.93416C1.24581 9.72621 1.19779 9.41686 1.17909 9.24672C1.1604 9.07658 1.14544 8.73629 1.14586 8.49053C1.1463 8.24477 1.16816 7.86582 1.19442 7.64841C1.22068 7.43101 1.27595 7.09846 1.31724 6.90941C1.35855 6.72037 1.44328 6.40999 1.50553 6.21967C1.56781 6.02935 1.69433 5.70453 1.78672 5.49785C1.87908 5.29117 2.04238 4.97326 2.14959 4.79143C2.2568 4.60957 2.4631 4.30142 2.60808 4.1066C2.75306 3.91182 3.01285 3.60584 3.18536 3.42669C3.35788 3.24754 3.63821 2.98435 3.80836 2.84185C3.9785 2.69934 4.28011 2.47609 4.47861 2.34575C4.67711 2.21541 5.0406 2.01073 5.28636 1.89091C5.53212 1.77105 5.8702 1.62524 6.03763 1.56688C6.20509 1.50852 6.49124 1.4231 6.67352 1.37704C6.85582 1.33102 7.15191 1.26953 7.3315 1.24038C7.5111 1.21127 7.71217 1.18098 7.77834 1.17308C7.84451 1.16521 8.23119 1.16359 8.63764 1.16947C9.13422 1.17669 9.47811 1.19886 9.68599 1.23701ZM8.64043 4.3689C8.538 4.39646 8.40312 4.45057 8.34067 4.48913C8.27825 4.52773 8.16537 4.62951 8.08982 4.71533C8.0143 4.80113 7.92105 4.95539 7.88259 5.05813C7.84121 5.16877 7.81271 5.32798 7.81271 5.4486C7.81271 5.56986 7.84127 5.72856 7.88331 5.84092C7.92212 5.94469 8.0219 6.10521 8.10498 6.19763C8.20548 6.30941 8.32857 6.39823 8.47252 6.46281C8.64397 6.53977 8.73932 6.55995 8.93129 6.55995C9.11806 6.55995 9.21747 6.53988 9.36516 6.47227C9.47055 6.42401 9.62017 6.32725 9.69768 6.2572C9.77519 6.18718 9.88161 6.04234 9.93416 5.93534C10.016 5.76863 10.0297 5.69889 10.0294 5.4486C10.0291 5.22518 10.0121 5.11962 9.95702 5C9.91739 4.91397 9.83311 4.78453 9.76976 4.71238C9.70638 4.6402 9.59587 4.54409 9.52417 4.49886C9.45247 4.45359 9.30549 4.39354 9.19753 4.36543C9.0896 4.33731 8.96201 4.31535 8.91399 4.31658C8.86598 4.31782 8.74289 4.34137 8.64043 4.3689ZM8.32829 7.78391L7.4518 7.94546L7.25104 8.42423C7.1406 8.68755 6.96815 9.15048 6.86779 9.45295C6.76745 9.75543 6.64505 10.1829 6.59583 10.4028C6.54661 10.6228 6.48904 10.9668 6.4679 11.1674C6.4392 11.4395 6.43948 11.5999 6.46893 11.7987C6.49066 11.9453 6.55208 12.158 6.60539 12.2715C6.6587 12.3849 6.7678 12.5448 6.84785 12.6267C6.9279 12.7087 7.0579 12.805 7.13668 12.8408C7.22646 12.8816 7.35876 12.9061 7.49116 12.9066C7.6073 12.907 7.80065 12.8768 7.92081 12.8395C8.04094 12.8022 8.26299 12.6991 8.41422 12.6104C8.56546 12.5217 8.81294 12.3585 8.96418 12.2476C9.11542 12.1368 9.39737 11.9112 9.59078 11.7463L9.94241 11.4465L9.9431 11.0901L9.94378 10.7336L9.70442 10.9594C9.57277 11.0836 9.38331 11.2501 9.28336 11.3295C9.18344 11.4089 9.02433 11.5101 8.92981 11.5544C8.82473 11.6036 8.6936 11.635 8.59241 11.6352C8.50139 11.6354 8.39714 11.6197 8.36078 11.6002C8.32438 11.5807 8.26921 11.5156 8.2381 11.4555C8.19314 11.3685 8.18558 11.2861 8.20112 11.0526C8.21318 10.8715 8.26646 10.6012 8.34025 10.3466C8.40601 10.1198 8.64679 9.42573 8.87526 8.80431C9.10376 8.18287 9.29071 7.66086 9.29071 7.64425C9.29071 7.62762 9.2714 7.61593 9.24775 7.61823C9.22414 7.6205 8.81036 7.69509 8.32829 7.78391Z" fill="white"/>
</svg>
