<svg xmlns="http://www.w3.org/2000/svg" width="22" height="22" viewBox="0 0 22 22" fill="none">
  <path d="M16.5286 15.2322L20.4547 19.1574L19.1576 20.4545L15.2324 16.5284C13.7719 17.6992 11.9553 18.336 10.0835 18.3333C5.5295 18.3333 1.8335 14.6373 1.8335 10.0833C1.8335 5.52931 5.5295 1.83331 10.0835 1.83331C14.6375 1.83331 18.3335 5.52931 18.3335 10.0833C18.3362 11.9551 17.6994 13.7717 16.5286 15.2322ZM14.6897 14.5521C15.8531 13.3557 16.5028 11.752 16.5002 10.0833C16.5002 6.53765 13.6282 3.66665 10.0835 3.66665C6.53783 3.66665 3.66683 6.53765 3.66683 10.0833C3.66683 13.6281 6.53783 16.5 10.0835 16.5C11.7522 16.5026 13.3559 15.8529 14.5522 14.6896L14.6897 14.5521Z" fill="#6567D1"/>
</svg>