<svg width="195" height="34" viewBox="0 0 195 34" fill="none" xmlns="http://www.w3.org/2000/svg">
<g filter="url(#filter0_i_1015_22799)">
<path d="M17.5962 0.1803C7.88001 0.178384 0.00192534 8.01744 3.35981e-07 17.6894C-0.00123717 24.0073 3.41613 29.8361 8.94281 32.9425C9.11166 33.0393 9.31269 33.0641 9.50017 33.0111C9.68635 32.9594 9.84447 32.8366 9.94017 32.6695L15.3668 23.1226C15.5659 22.7718 15.4418 22.3268 15.0896 22.1283C12.6178 20.7463 11.7394 17.6312 13.1278 15.1706C14.5162 12.71 17.6456 11.8357 20.1174 13.2178C22.5892 14.5999 23.4676 17.7149 22.0792 20.1755C21.6177 20.9934 20.939 21.669 20.1174 22.1283C19.7652 22.3268 19.6412 22.7718 19.8402 23.1226L25.2522 32.6695C25.3476 32.8372 25.5058 32.9606 25.6922 33.0126C25.7561 33.031 25.8222 33.0404 25.8888 33.0403C26.0153 33.0402 26.1396 33.0074 26.2496 32.9454C34.7118 28.1928 37.7015 17.5113 32.9272 9.08752C29.8065 3.58155 23.947 0.177152 17.5962 0.1803Z" fill="#6567D1"/>
</g>
<path d="M17.5015 15.8602C17.5651 15.8875 17.6061 15.9238 17.6548 15.9726C17.6707 15.9884 17.6866 16.0043 17.703 16.0207C17.7205 16.0383 17.738 16.0559 17.7555 16.0736C17.7741 16.0921 17.7926 16.1107 17.8112 16.1292C17.8615 16.1795 17.9117 16.2299 17.9618 16.2803C18.0143 16.333 18.0668 16.3856 18.1194 16.4382C18.2189 16.5378 18.3183 16.6374 18.4176 16.7372C18.5307 16.8507 18.644 16.9641 18.7572 17.0775C18.9901 17.3108 19.2229 17.5443 19.4556 17.7778C19.4283 17.8413 19.3921 17.8823 19.3433 17.931C19.3274 17.9469 19.3115 17.9629 19.2952 17.9793C19.2775 17.9968 19.2599 18.0143 19.2423 18.0318C19.2237 18.0503 19.2052 18.0689 19.1866 18.0874C19.1364 18.1377 19.086 18.1879 19.0355 18.2381C18.9829 18.2905 18.9303 18.3431 18.8777 18.3956C18.7781 18.4951 18.6784 18.5945 18.5787 18.6939C18.4651 18.807 18.3517 18.9202 18.2383 19.0334C18.005 19.2664 17.7716 19.4991 17.5381 19.7318C17.4745 19.7046 17.4335 19.6683 17.3848 19.6195C17.3689 19.6036 17.353 19.5878 17.3365 19.5714C17.319 19.5538 17.3015 19.5361 17.284 19.5185C17.2655 19.5 17.247 19.4814 17.2284 19.4629C17.1781 19.4126 17.1279 19.3622 17.0778 19.3118C17.0253 19.2591 16.9727 19.2065 16.9202 19.1539C16.8207 19.0543 16.7213 18.9546 16.622 18.8549C16.5088 18.7414 16.3956 18.628 16.2824 18.5145C16.0495 18.2812 15.8167 18.0478 15.584 17.8143C15.6113 17.7507 15.6475 17.7097 15.6963 17.6611C15.7122 17.6451 15.7281 17.6292 15.7444 17.6128C15.7621 17.5953 15.7797 17.5778 15.7973 17.5603C15.8159 17.5418 15.8344 17.5232 15.8529 17.5047C15.9032 17.4544 15.9536 17.4042 16.004 17.354C16.0567 17.3016 16.1093 17.249 16.1619 17.1964C16.2615 17.097 16.3612 16.9976 16.4609 16.8982C16.5744 16.7851 16.6879 16.6719 16.8013 16.5586C17.0346 16.3257 17.268 16.0929 17.5015 15.8602Z" fill="url(#paint0_linear_1015_22799)"/>
<g clip-path="url(#clip0_1015_22799)">
<path d="M99.9883 13.0516C101.231 13.0516 102.473 13.0516 103.754 13.0516C104.138 14.014 104.138 14.014 104.255 14.3671C104.281 14.4466 104.307 14.5262 104.334 14.6082C104.375 14.7335 104.375 14.7335 104.417 14.8613C104.447 14.9513 104.477 15.0413 104.508 15.134C104.633 15.5136 104.758 15.8934 104.883 16.2732C105.369 17.7469 105.884 19.2056 106.406 20.6676C107.31 18.8603 108.214 17.053 109.145 15.1909C110.387 15.1909 111.63 15.1909 112.91 15.1909C113.813 16.9982 114.717 18.8055 115.648 20.6676C116.517 18.1332 117.371 15.5943 118.215 13.0516C119.458 13.0516 120.7 13.0516 121.981 13.0516C121.884 13.6292 121.884 13.6292 121.783 13.8986C121.76 13.9597 121.737 14.0208 121.714 14.0837C121.676 14.1817 121.676 14.1817 121.638 14.2817C121.612 14.3519 121.586 14.4221 121.559 14.4944C121.502 14.6467 121.444 14.7989 121.387 14.951C121.262 15.28 121.139 15.6094 121.016 15.9387C120.951 16.1119 120.886 16.2851 120.821 16.4582C120.507 17.2939 120.197 18.1312 119.889 18.9687C119.738 19.3758 119.588 19.7829 119.437 20.1899C119.408 20.2706 119.378 20.3512 119.347 20.4343C119.286 20.5989 119.225 20.7635 119.165 20.9281C119.101 21.1 119.037 21.272 118.974 21.444C118.78 21.9673 118.587 22.4906 118.393 23.0137C118.332 23.1781 118.271 23.3425 118.21 23.507C118.127 23.7333 118.043 23.9596 117.959 24.1858C117.934 24.2533 117.909 24.3209 117.883 24.3904C117.712 24.8509 117.712 24.8509 117.616 24.9462C117.37 24.9538 117.125 24.9561 116.878 24.9546C116.767 24.9544 116.767 24.9544 116.654 24.9542C116.417 24.9538 116.18 24.9527 115.942 24.9516C115.782 24.9512 115.622 24.9508 115.461 24.9504C115.067 24.9495 114.673 24.948 114.279 24.9462C113.439 23.3646 112.635 21.7676 111.866 20.1502C111.593 19.5774 111.315 19.0079 111.027 18.4427C110.514 19.3945 110.029 20.3557 109.565 21.3322C108.987 22.546 108.379 23.7448 107.775 24.9462C106.646 24.9462 105.516 24.9462 104.353 24.9462C104.255 24.6822 104.157 24.4181 104.056 24.146C103.237 21.9335 102.417 19.7214 101.596 17.5097C101.498 17.2452 101.4 16.9806 101.302 16.716C101.185 16.4005 101.068 16.0849 100.95 15.7694C100.907 15.6534 100.864 15.5374 100.821 15.4214C100.561 14.7172 100.561 14.7172 100.292 14.016C100.253 13.9154 100.213 13.8148 100.173 13.7111C100.137 13.6212 100.102 13.5313 100.065 13.4386C99.9883 13.2227 99.9883 13.2227 99.9883 13.0516Z" fill="#6467D0"/>
<path d="M67.8498 12.9523C67.9195 12.9518 67.9892 12.9514 68.0609 12.951C68.29 12.9497 68.5191 12.9491 68.7482 12.9487C68.8271 12.9484 68.9061 12.9482 68.9874 12.9479C69.4057 12.9467 69.8239 12.9459 70.2422 12.9455C70.6706 12.945 71.0989 12.943 71.5273 12.9405C71.8598 12.9389 72.1923 12.9385 72.5248 12.9384C72.6825 12.9381 72.8402 12.9374 72.9979 12.9363C75.0054 12.9229 76.9777 13.2567 78.4932 14.6936C79.7112 15.9783 80.1124 17.6192 80.0709 19.3516C80.0038 20.8624 79.4878 22.4602 78.3541 23.513C77.1056 24.5118 75.6945 25.0585 74.0856 25.0567C74.0076 25.0573 73.9295 25.0579 73.8491 25.0585C73.5936 25.0601 73.3382 25.0604 73.0827 25.0606C72.903 25.0612 72.7233 25.0618 72.5436 25.0624C72.1678 25.0634 71.7919 25.0637 71.416 25.0636C70.9378 25.0636 70.4597 25.0659 69.9816 25.0689C69.6105 25.0708 69.2395 25.0711 68.8684 25.071C68.6923 25.0712 68.5162 25.072 68.3401 25.0733C66.3297 25.0871 64.577 24.6992 63.0472 23.3044C61.7711 21.9456 61.5009 20.1936 61.5541 18.4006C61.6231 17.1302 62.0758 16.0184 62.8493 15.0198C62.9031 14.9481 62.9568 14.8764 63.0121 14.8025C64.1635 13.4517 66.1448 12.9548 67.8498 12.9523ZM65.5202 16.9723C64.8627 17.7739 64.8137 18.7314 64.9031 19.7263C65.0772 20.4993 65.4372 21.1607 66.1045 21.6036C66.7327 21.944 67.4081 22.0492 68.1139 22.052C68.209 22.0528 68.209 22.0528 68.306 22.0537C68.515 22.0553 68.724 22.0564 68.9331 22.0572C69.0408 22.0577 69.0408 22.0577 69.1508 22.0583C69.5316 22.06 69.9124 22.0613 70.2932 22.0621C70.6838 22.063 71.0744 22.066 71.465 22.0694C71.7676 22.0716 72.0702 22.0723 72.3729 22.0726C72.5167 22.073 72.6605 22.074 72.8043 22.0756C73.8363 22.0864 74.9447 22.0604 75.7709 21.3522C76.4544 20.6746 76.7206 20.0347 76.7336 19.0685C76.7245 18.1995 76.5238 17.4799 75.942 16.8168C75.0003 15.9906 73.9111 16.0079 72.7277 16.0126C72.5736 16.0124 72.4196 16.0122 72.2655 16.0119C71.9439 16.0115 71.6223 16.012 71.3006 16.0132C70.8903 16.0147 70.4801 16.0138 70.0698 16.0123C69.7521 16.0114 69.4343 16.0117 69.1166 16.0123C68.9654 16.0125 68.8142 16.0123 68.663 16.0117C67.4678 16.008 66.4091 16.0698 65.5202 16.9723Z" fill="#6467D0"/>
<path d="M129.634 12.9522C129.702 12.9517 129.771 12.9513 129.842 12.9509C130.067 12.9496 130.293 12.9491 130.518 12.9486C130.596 12.9483 130.674 12.9481 130.754 12.9478C131.166 12.9466 131.578 12.9458 131.991 12.9454C132.412 12.9449 132.834 12.9429 133.256 12.9404C133.584 12.9388 133.912 12.9384 134.239 12.9383C134.395 12.938 134.55 12.9373 134.705 12.9362C136.785 12.922 138.663 13.2698 140.255 14.7038C141.494 15.9783 141.802 17.6209 141.788 19.3338C141.742 20.9802 141.222 22.3183 140.036 23.4915C139.969 23.5621 139.969 23.5621 139.902 23.6342C139.582 23.9456 139.198 24.1512 138.806 24.3579C138.73 24.3996 138.73 24.3996 138.652 24.4422C137.426 25.0576 136.084 25.0835 134.744 25.0772C134.567 25.0775 134.39 25.0778 134.214 25.0782C133.846 25.0787 133.478 25.078 133.11 25.0764C132.642 25.0745 132.175 25.0756 131.707 25.0776C131.343 25.0789 130.979 25.0785 130.615 25.0776C130.443 25.0774 130.271 25.0776 130.098 25.0784C128.794 25.0832 127.478 25.008 126.307 24.3686C126.251 24.3391 126.195 24.3095 126.137 24.2791C124.891 23.6027 124.045 22.5744 123.592 21.2295C123.074 19.4494 123.155 17.5708 123.978 15.8985C124.707 14.5923 125.847 13.733 127.264 13.2945C128.056 13.0709 128.813 12.9534 129.634 12.9522ZM127.114 17.159C126.541 17.9609 126.54 18.959 126.686 19.8974C126.863 20.5935 127.222 21.1735 127.83 21.5691C128.765 22.0672 129.703 22.0635 130.734 22.0625C130.878 22.0628 131.022 22.0632 131.167 22.0636C131.468 22.0642 131.769 22.0642 132.071 22.0637C132.454 22.0632 132.837 22.0647 133.221 22.0667C133.519 22.0679 133.816 22.068 134.114 22.0677C134.255 22.0678 134.396 22.0682 134.537 22.0691C135.66 22.0751 136.755 22.0441 137.64 21.2666C138.253 20.6175 138.458 19.9279 138.447 19.0524C138.446 18.939 138.446 18.939 138.445 18.8233C138.423 17.9796 138.207 17.4054 137.621 16.7897C136.734 15.9499 135.64 16.007 134.498 16.0095C134.343 16.0091 134.187 16.0086 134.032 16.0081C133.707 16.0074 133.382 16.0076 133.057 16.0084C132.643 16.0094 132.229 16.0077 131.815 16.0052C131.494 16.0036 131.173 16.0036 130.852 16.0041C130.7 16.0041 130.547 16.0036 130.395 16.0026C129.081 15.9946 128.029 16.1144 127.114 17.159Z" fill="#6467D0"/>
<path d="M49.88 12.9403C50.0397 12.94 50.1994 12.9396 50.3592 12.9392C50.6925 12.9386 51.0259 12.9386 51.3592 12.939C51.782 12.9395 52.2047 12.9381 52.6275 12.9361C52.9571 12.9348 53.2867 12.9348 53.6163 12.935C53.7719 12.935 53.9276 12.9345 54.0832 12.9337C55.865 12.9249 57.6368 13.0907 59.0835 14.2496C59.1951 14.4392 59.1951 14.4392 59.2546 14.5919C59.1946 14.6623 59.1346 14.7327 59.0728 14.8052C58.6324 15.3229 58.1972 15.8428 57.7788 16.3786C57.6246 16.5651 57.4601 16.734 57.2864 16.9024C57.2428 16.8683 57.1991 16.8342 57.1541 16.7991C56.1537 16.0701 55.061 16.0925 53.8745 16.0951C53.7194 16.0948 53.5643 16.0943 53.4092 16.0938C53.0856 16.093 52.7621 16.0932 52.4385 16.0941C52.0267 16.0951 51.615 16.0933 51.2032 16.0908C50.8833 16.0893 50.5634 16.0893 50.2435 16.0898C50.0918 16.0898 49.9401 16.0893 49.7884 16.0882C48.7681 16.082 47.6416 16.0871 46.8031 16.765C46.1188 17.5012 45.9514 18.3045 45.9694 19.2774C46.0263 20.016 46.2854 20.7264 46.8311 21.2429C47.5394 21.8081 48.2793 21.9609 49.1748 21.9637C49.2343 21.9639 49.2937 21.9642 49.355 21.9645C49.5505 21.9653 49.746 21.9655 49.9415 21.9656C50.0786 21.9659 50.2157 21.9662 50.3527 21.9665C50.6398 21.967 50.9269 21.9671 51.2139 21.9671C51.5795 21.9671 51.9451 21.9682 52.3106 21.9697C52.5938 21.9707 52.877 21.9708 53.1602 21.9708C53.2948 21.9709 53.4295 21.9713 53.5641 21.9719C55.0752 22.0122 55.0752 22.0122 56.4307 21.4378C56.5154 21.2966 56.6001 21.1554 56.6874 21.0099C55.3884 21.0099 54.0894 21.0099 52.7511 21.0099C52.7511 20.1345 52.7511 19.2591 52.7511 18.3572C55.0102 18.3572 57.2693 18.3572 59.5969 18.3572C59.5969 20.5316 59.5969 22.706 59.5969 24.9463C58.9192 24.9463 58.2414 24.9463 57.5432 24.9463C57.4584 24.6357 57.3737 24.325 57.2864 24.005C57.1788 24.0968 57.0711 24.1885 56.9602 24.2831C56.2405 24.8457 55.4227 25.0439 54.5256 25.047C54.4189 25.0479 54.4189 25.0479 54.31 25.0487C54.0744 25.0504 53.8387 25.0514 53.6031 25.0523C53.4817 25.0528 53.4817 25.0528 53.3578 25.0533C52.9283 25.0551 52.4989 25.0563 52.0694 25.0571C51.6294 25.0581 51.1895 25.061 50.7495 25.0644C50.4083 25.0667 50.0672 25.0674 49.726 25.0677C49.564 25.0681 49.4021 25.0691 49.2402 25.0707C47.97 25.0825 46.6815 24.9953 45.5362 24.3847C45.4806 24.3558 45.4251 24.327 45.3679 24.2972C44.0989 23.6028 43.269 22.4629 42.8246 21.0955C42.377 19.3844 42.4001 17.4632 43.2524 15.8755C44.1616 14.426 45.4384 13.5213 47.1032 13.1372C48.0291 12.9469 48.9398 12.9395 49.88 12.9403Z" fill="#6466D0"/>
<path d="M178.544 13.0516C180.304 13.0463 182.063 13.0411 183.876 13.0356C184.429 13.0333 184.981 13.0309 185.551 13.0285C186.233 13.0274 186.233 13.0274 186.554 13.0271C186.833 13.0266 187.111 13.0252 187.389 13.0235C189.628 13.0119 191.891 13.1101 193.626 14.7257C194.476 15.6209 194.914 16.6269 194.92 17.8554C194.921 17.9474 194.922 18.0395 194.923 18.1343C194.924 18.3287 194.925 18.5231 194.925 18.7175C194.926 19.0126 194.93 19.3075 194.934 19.6025C194.935 19.7921 194.936 19.9817 194.936 20.1713C194.938 20.2584 194.94 20.3455 194.941 20.4353C194.937 21.0829 194.766 21.555 194.461 22.1224C194.413 22.2117 194.366 22.3011 194.318 22.3932C193.754 23.3057 193.03 23.8927 192.065 24.3473C191.997 24.3797 191.929 24.4122 191.86 24.4456C190.465 25.0601 188.98 24.9813 187.489 24.9723C187.205 24.9708 186.92 24.9708 186.636 24.9706C185.809 24.9693 184.982 24.9657 184.154 24.9624C182.303 24.9571 180.451 24.9518 178.544 24.9463C178.544 21.0211 178.544 17.0958 178.544 13.0516ZM181.967 16.1323C181.967 18.0525 181.967 19.9728 181.967 21.9513C183.172 21.9562 183.172 21.9562 184.376 21.9596C184.869 21.9606 185.361 21.9618 185.853 21.9642C186.25 21.966 186.647 21.967 187.045 21.9675C187.196 21.9678 187.346 21.9684 187.497 21.9693C189.396 22.017 189.396 22.017 191.043 21.1931C191.716 20.468 191.835 19.7153 191.826 18.7486C191.781 18.0001 191.526 17.2674 190.96 16.755C189.971 16.0265 188.785 16.0971 187.616 16.1072C187.453 16.1077 187.289 16.108 187.125 16.1083C186.698 16.1093 186.271 16.1118 185.844 16.1146C185.33 16.1178 184.816 16.1189 184.302 16.1204C183.523 16.1229 182.745 16.1278 181.967 16.1323Z" fill="#6466D0"/>
<path d="M144.229 13.0516C146.026 13.048 147.823 13.0445 149.674 13.0409C150.239 13.0393 150.805 13.0378 151.387 13.0362C152.083 13.0354 152.083 13.0354 152.409 13.0352C152.635 13.035 152.861 13.0344 153.087 13.0335C153.431 13.0321 153.775 13.0321 154.119 13.0321C154.218 13.0315 154.317 13.0309 154.419 13.0303C155.998 13.0342 157.602 13.2844 158.779 14.4161C159.627 15.3287 159.835 16.4003 159.822 17.613C159.757 18.7527 159.36 19.644 158.535 20.4313C158.24 20.6704 157.92 20.8458 157.579 21.0099C157.955 21.6068 158.338 22.1994 158.723 22.7909C158.912 23.0814 159.101 23.372 159.29 23.6626C159.332 23.7264 159.373 23.7901 159.416 23.8558C159.526 24.0248 159.635 24.194 159.745 24.3633C159.806 24.458 159.868 24.5528 159.931 24.6504C160.061 24.8607 160.061 24.8607 160.061 24.9462C156.697 25.2833 156.697 25.2833 156.003 24.7654C155.577 24.3103 155.355 23.7814 155.136 23.2048C154.796 22.2258 154.796 22.2258 154.085 21.5361C153.632 21.4218 153.17 21.4489 152.706 21.4648C152.558 21.4653 152.409 21.4652 152.261 21.4646C151.872 21.4644 151.483 21.4719 151.095 21.4811C150.627 21.4905 150.159 21.4903 149.692 21.4917C148.983 21.4949 148.276 21.5103 147.567 21.5233C147.567 22.6529 147.567 23.7824 147.567 24.9462C146.466 24.9462 145.364 24.9462 144.229 24.9462C144.229 21.021 144.229 17.0958 144.229 13.0516ZM147.567 16.0466C147.567 16.8938 147.567 17.741 147.567 18.6138C148.57 18.6196 149.574 18.6243 150.577 18.6271C151.043 18.6285 151.509 18.6303 151.975 18.6332C152.425 18.636 152.875 18.6375 153.325 18.6382C153.497 18.6387 153.668 18.6396 153.839 18.641C154.08 18.6428 154.321 18.6431 154.561 18.643C154.667 18.6444 154.667 18.6444 154.775 18.6458C155.251 18.6432 155.604 18.5559 156.039 18.3571C156.355 18.033 156.458 17.7997 156.488 17.3463C156.482 16.9283 156.359 16.6239 156.06 16.3247C155.554 16.0438 155.058 16.0222 154.493 16.0272C154.418 16.0272 154.343 16.0272 154.266 16.0271C154.019 16.0272 153.772 16.0286 153.525 16.0299C153.353 16.0302 153.182 16.0305 153.01 16.0307C152.559 16.0313 152.108 16.033 151.657 16.0349C151.197 16.0366 150.736 16.0374 150.275 16.0383C149.372 16.0401 148.47 16.0431 147.567 16.0466Z" fill="#6466D0"/>
<path d="M81.333 13.0516C81.8841 13.032 82.4352 13.0186 82.9866 13.0093C83.174 13.0054 83.3615 13.0002 83.5488 12.9935C83.8187 12.9841 84.0882 12.9798 84.3582 12.9764C84.4416 12.9724 84.5251 12.9684 84.611 12.9644C85.1812 12.9639 85.1812 12.9639 85.43 13.2113C85.564 13.4093 85.6755 13.6083 85.7828 13.8218C85.8338 13.9059 85.8847 13.9901 85.9372 14.0768C85.9796 14.1512 86.0219 14.2257 86.0656 14.3024C86.1148 14.3884 86.164 14.4744 86.2147 14.563C86.2663 14.6537 86.3179 14.7445 86.3711 14.8379C86.4849 15.0366 86.5987 15.2351 86.7128 15.4336C86.7419 15.4843 86.771 15.535 86.8009 15.5872C87.1124 16.1285 87.4315 16.6653 87.751 17.2019C88.2734 18.0797 88.7874 18.9618 89.2948 19.8483C89.5696 20.3275 89.8506 20.8005 90.147 21.2666C90.3546 21.0016 90.5265 20.726 90.6959 20.4353C90.7239 20.3875 90.7518 20.3396 90.7806 20.2904C90.8727 20.1328 90.9645 19.975 91.0563 19.8172C91.1212 19.706 91.1861 19.5948 91.2511 19.4836C91.3862 19.2522 91.5213 19.0208 91.6562 18.7893C91.849 18.4589 92.0423 18.1288 92.2359 17.7989C92.2664 17.747 92.2968 17.6951 92.3282 17.6417C92.3891 17.5378 92.4501 17.4339 92.5111 17.33C93.0471 16.4164 93.5818 15.5021 94.1142 14.5865C94.1591 14.5094 94.204 14.4323 94.2502 14.3529C94.3076 14.2543 94.3076 14.2543 94.3661 14.1536C94.414 14.0724 94.4619 13.9911 94.5113 13.9073C94.5597 13.8008 94.5597 13.8008 94.6092 13.692C94.9059 13.0958 94.9059 13.0958 95.2257 12.9769C95.4729 12.9524 95.7066 12.9552 95.9547 12.968C96.0432 12.9693 96.1317 12.9705 96.223 12.9717C96.5048 12.9765 96.7861 12.9872 97.0678 12.9981C97.2592 13.0024 97.4506 13.0063 97.6421 13.0098C98.1105 13.0192 98.5785 13.0335 99.0467 13.0516C98.8479 13.4594 98.6408 13.8556 98.4039 14.2429C98.3183 14.3833 98.3183 14.3833 98.231 14.5264C98.1695 14.6267 98.108 14.727 98.0465 14.8273C97.9818 14.9333 97.917 15.0394 97.8523 15.1455C97.7181 15.3654 97.5838 15.5853 97.4494 15.8052C97.1692 16.2636 96.8906 16.723 96.612 17.1823C96.4611 17.431 96.3102 17.6796 96.1592 17.9283C96.1293 17.9777 96.0993 18.027 96.0684 18.0779C95.885 18.38 95.7014 18.6821 95.5177 18.9841C95.364 19.2369 95.2104 19.4896 95.0568 19.7424C95.0266 19.792 94.9965 19.8416 94.9654 19.8928C94.5332 20.6041 94.1042 21.3172 93.6769 22.0314C93.2644 22.7207 92.8479 23.4073 92.4254 24.0905C92.378 24.1673 92.3306 24.2441 92.2818 24.3232C92.2385 24.3929 92.1952 24.4626 92.1507 24.5345C92.1127 24.5957 92.0747 24.6569 92.0355 24.72C91.9441 24.8607 91.9441 24.8607 91.8585 24.9463C89.0789 25.2672 89.0789 25.2672 88.1979 24.8277C87.8381 24.4904 87.6879 24.0457 87.5209 23.591C87.3231 23.1139 87.039 22.6853 86.7664 22.2483C86.5962 21.9734 86.4315 21.6952 86.2662 21.4174C85.8921 20.7914 85.5145 20.1676 85.1357 19.5445C85.106 19.4957 85.0763 19.4468 85.0458 19.3965C84.8657 19.1003 84.6855 18.8041 84.5053 18.5079C84.2543 18.0952 84.0034 17.6824 83.7526 17.2695C83.6909 17.1679 83.6291 17.0663 83.5674 16.9647C83.1311 16.2467 82.6976 15.5271 82.2674 14.8055C81.9985 14.3558 81.7203 13.9142 81.4279 13.4791C81.333 13.3083 81.333 13.3083 81.333 13.0516Z" fill="#6467D0"/>
<path d="M162.456 13.0516C163.586 13.0516 164.715 13.0516 165.879 13.0516C165.879 15.932 165.879 18.8124 165.879 21.78C169.296 21.78 172.713 21.78 176.233 21.78C176.233 22.8249 176.233 23.8697 176.233 24.9462C171.687 24.9462 167.14 24.9462 162.456 24.9462C162.456 21.021 162.456 17.0958 162.456 13.0516Z" fill="#6466D0"/>
</g>
<defs>
<filter id="filter0_i_1015_22799" x="0" y="0.180298" width="35.2002" height="35.962" filterUnits="userSpaceOnUse" color-interpolation-filters="sRGB">
<feFlood flood-opacity="0" result="BackgroundImageFix"/>
<feBlend mode="normal" in="SourceGraphic" in2="BackgroundImageFix" result="shape"/>
<feColorMatrix in="SourceAlpha" type="matrix" values="0 0 0 0 0 0 0 0 0 0 0 0 0 0 0 0 0 0 127 0" result="hardAlpha"/>
<feOffset dy="4.13598"/>
<feGaussianBlur stdDeviation="1.55099"/>
<feComposite in2="hardAlpha" operator="arithmetic" k2="-1" k3="1"/>
<feColorMatrix type="matrix" values="0 0 0 0 0 0 0 0 0 0 0 0 0 0 0 0 0 0 0.4 0"/>
<feBlend mode="normal" in2="shape" result="effect1_innerShadow_1015_22799"/>
</filter>
<linearGradient id="paint0_linear_1015_22799" x1="17.7302" y1="16.3231" x2="17.5193" y2="19.7318" gradientUnits="userSpaceOnUse">
<stop offset="0.0456484" stop-color="#BD0AF8"/>
<stop offset="0.994097" stop-color="#133FFA"/>
</linearGradient>
<clipPath id="clip0_1015_22799">
<rect width="152.577" height="12.0658" fill="white" transform="translate(42.3115 12.966)"/>
</clipPath>
</defs>
</svg>
