<svg width="36" height="34" viewBox="0 0 36 34" fill="none" xmlns="http://www.w3.org/2000/svg">
<g filter="url(#filter0_i_1021_16189)">
<path d="M17.5962 0.1803C7.88001 0.178384 0.00192534 8.01744 3.35981e-07 17.6894C-0.00123717 24.0073 3.41613 29.8361 8.94281 32.9425C9.11166 33.0393 9.31269 33.0641 9.50017 33.0111C9.68635 32.9594 9.84447 32.8366 9.94017 32.6695L15.3668 23.1226C15.5659 22.7718 15.4418 22.3268 15.0896 22.1283C12.6178 20.7463 11.7394 17.6312 13.1278 15.1706C14.5162 12.71 17.6456 11.8357 20.1174 13.2178C22.5892 14.5999 23.4676 17.7149 22.0792 20.1755C21.6177 20.9934 20.939 21.669 20.1174 22.1283C19.7652 22.3268 19.6412 22.7718 19.8402 23.1226L25.2522 32.6695C25.3476 32.8372 25.5058 32.9606 25.6922 33.0126C25.7561 33.031 25.8222 33.0404 25.8888 33.0403C26.0153 33.0402 26.1396 33.0074 26.2496 32.9454C34.7118 28.1928 37.7015 17.5113 32.9272 9.08752C29.8065 3.58155 23.947 0.177152 17.5962 0.1803Z" fill="#6567D1"/>
</g>
<path d="M17.5015 15.8602C17.5651 15.8875 17.6061 15.9238 17.6548 15.9726C17.6707 15.9884 17.6866 16.0043 17.703 16.0207C17.7205 16.0383 17.738 16.0559 17.7555 16.0736C17.7741 16.0921 17.7926 16.1107 17.8112 16.1292C17.8615 16.1795 17.9117 16.2299 17.9618 16.2803C18.0143 16.333 18.0668 16.3856 18.1194 16.4382C18.2189 16.5378 18.3183 16.6374 18.4176 16.7372C18.5307 16.8507 18.644 16.9641 18.7572 17.0775C18.9901 17.3108 19.2229 17.5443 19.4556 17.7778C19.4283 17.8413 19.3921 17.8823 19.3433 17.931C19.3274 17.9469 19.3115 17.9629 19.2952 17.9793C19.2775 17.9968 19.2599 18.0143 19.2423 18.0318C19.2237 18.0503 19.2052 18.0689 19.1866 18.0874C19.1364 18.1377 19.086 18.1879 19.0355 18.2381C18.9829 18.2905 18.9303 18.3431 18.8777 18.3956C18.7781 18.4951 18.6784 18.5945 18.5787 18.6939C18.4651 18.807 18.3517 18.9202 18.2383 19.0334C18.005 19.2664 17.7716 19.4991 17.5381 19.7318C17.4745 19.7046 17.4335 19.6683 17.3848 19.6195C17.3689 19.6036 17.353 19.5878 17.3365 19.5714C17.319 19.5538 17.3015 19.5361 17.284 19.5185C17.2655 19.5 17.247 19.4814 17.2284 19.4629C17.1781 19.4126 17.1279 19.3622 17.0778 19.3118C17.0253 19.2591 16.9727 19.2065 16.9202 19.1539C16.8207 19.0543 16.7213 18.9546 16.622 18.8549C16.5088 18.7414 16.3956 18.628 16.2824 18.5145C16.0495 18.2812 15.8167 18.0478 15.584 17.8143C15.6113 17.7507 15.6475 17.7097 15.6963 17.6611C15.7122 17.6451 15.7281 17.6292 15.7444 17.6128C15.7621 17.5953 15.7797 17.5778 15.7973 17.5603C15.8159 17.5418 15.8344 17.5232 15.8529 17.5047C15.9032 17.4544 15.9536 17.4042 16.004 17.354C16.0567 17.3016 16.1093 17.249 16.1619 17.1964C16.2615 17.097 16.3612 16.9976 16.4609 16.8982C16.5744 16.7851 16.6879 16.6719 16.8013 16.5586C17.0346 16.3257 17.268 16.0929 17.5015 15.8602Z" fill="url(#paint0_linear_1021_16189)"/>
<defs>
<filter id="filter0_i_1021_16189" x="0" y="0.180298" width="35.2002" height="35.962" filterUnits="userSpaceOnUse" color-interpolation-filters="sRGB">
<feFlood flood-opacity="0" result="BackgroundImageFix"/>
<feBlend mode="normal" in="SourceGraphic" in2="BackgroundImageFix" result="shape"/>
<feColorMatrix in="SourceAlpha" type="matrix" values="0 0 0 0 0 0 0 0 0 0 0 0 0 0 0 0 0 0 127 0" result="hardAlpha"/>
<feOffset dy="4.13598"/>
<feGaussianBlur stdDeviation="1.55099"/>
<feComposite in2="hardAlpha" operator="arithmetic" k2="-1" k3="1"/>
<feColorMatrix type="matrix" values="0 0 0 0 0 0 0 0 0 0 0 0 0 0 0 0 0 0 0.4 0"/>
<feBlend mode="normal" in2="shape" result="effect1_innerShadow_1021_16189"/>
</filter>
<linearGradient id="paint0_linear_1021_16189" x1="17.7302" y1="16.3231" x2="17.5193" y2="19.7318" gradientUnits="userSpaceOnUse">
<stop offset="0.0456484" stop-color="#BD0AF8"/>
<stop offset="0.994097" stop-color="#133FFA"/>
</linearGradient>
</defs>
</svg>
