<svg preserveAspectRatio="none" width="100%" height="100%"  viewBox="0 0 179 288" fill="none" xmlns="http://www.w3.org/2000/svg">
<path d="M1.00051 283.707C1.00019 283.898 1.08948 284.079 1.2417 284.194L4.671 286.793C4.77689 286.874 4.90612 286.917 5.03898 286.917H53.5651H102.091C102.224 286.917 102.353 286.874 102.459 286.793L106.681 283.593C106.786 283.513 106.916 283.469 107.049 283.469H174.473C174.606 283.469 174.736 283.426 174.842 283.345L177.759 281.131C177.911 281.016 178 280.836 178 280.646V119.063C178 118.872 177.911 118.692 177.759 118.577L175.412 116.796C175.26 116.681 175.171 116.501 175.171 116.31V19.7738C175.171 19.583 175.26 19.4033 175.412 19.2882L177.603 17.6286C177.755 17.5134 177.844 17.3337 177.844 17.143V5.60467C177.844 5.41406 177.755 5.23444 177.603 5.11927L172.334 1.12368C172.228 1.04338 172.099 0.999908 171.966 0.999908H57.3163C57.1833 0.999908 57.054 1.04344 56.948 1.12384L55.0284 2.58084C54.9224 2.66125 54.7931 2.70477 54.6601 2.70477H10.2051C10.0721 2.70477 9.94272 2.7483 9.83678 2.82871L6.93943 5.02771C6.78767 5.14289 6.69854 5.32244 6.69854 5.51295V61.9853V118.458C6.69854 118.648 6.60941 118.828 6.45765 118.943L1.51174 122.697C1.36027 122.812 1.27117 122.991 1.27085 123.181L1.00051 283.707Z" fill="white"/>
<path d="M1.00051 283.707C1.00019 283.898 1.08948 284.079 1.2417 284.194L4.671 286.793C4.77689 286.874 4.90612 286.917 5.03898 286.917H53.5651H102.091C102.224 286.917 102.353 286.874 102.459 286.793L106.681 283.593C106.786 283.513 106.916 283.469 107.049 283.469H174.473C174.606 283.469 174.736 283.426 174.842 283.345L177.759 281.131C177.911 281.016 178 280.836 178 280.646V119.063C178 118.872 177.911 118.692 177.759 118.577L175.412 116.796C175.26 116.681 175.171 116.501 175.171 116.31V19.7738C175.171 19.583 175.26 19.4033 175.412 19.2882L177.603 17.6286C177.755 17.5134 177.844 17.3337 177.844 17.143V5.60467C177.844 5.41406 177.755 5.23444 177.603 5.11927L172.334 1.12368C172.228 1.04338 172.099 0.999908 171.966 0.999908H57.3163C57.1833 0.999908 57.054 1.04344 56.948 1.12384L55.0284 2.58084C54.9224 2.66125 54.7931 2.70477 54.6601 2.70477H10.2051C10.0721 2.70477 9.94272 2.7483 9.83678 2.82871L6.93943 5.02771C6.78767 5.14289 6.69854 5.32244 6.69854 5.51295V61.9853V118.458C6.69854 118.648 6.60941 118.828 6.45765 118.943L1.51174 122.697C1.36027 122.812 1.27117 122.991 1.27085 123.181L1.00051 283.707Z" fill="url(#paint0_linear_7904_2455)"/>
<path d="M1.00051 283.707C1.00019 283.898 1.08948 284.079 1.2417 284.194L4.671 286.793C4.77689 286.874 4.90612 286.917 5.03898 286.917H53.5651H102.091C102.224 286.917 102.353 286.874 102.459 286.793L106.681 283.593C106.786 283.513 106.916 283.469 107.049 283.469H174.473C174.606 283.469 174.736 283.426 174.842 283.345L177.759 281.131C177.911 281.016 178 280.836 178 280.646V119.063C178 118.872 177.911 118.692 177.759 118.577L175.412 116.796C175.26 116.681 175.171 116.501 175.171 116.31V19.7738C175.171 19.583 175.26 19.4033 175.412 19.2882L177.603 17.6286C177.755 17.5134 177.844 17.3337 177.844 17.143V5.60467C177.844 5.41406 177.755 5.23444 177.603 5.11927L172.334 1.12368C172.228 1.04338 172.099 0.999908 171.966 0.999908H57.3163C57.1833 0.999908 57.054 1.04344 56.948 1.12384L55.0284 2.58084C54.9224 2.66125 54.7931 2.70477 54.6601 2.70477H10.2051C10.0721 2.70477 9.94272 2.7483 9.83678 2.82871L6.93943 5.02771C6.78767 5.14289 6.69854 5.32244 6.69854 5.51295V61.9853V118.458C6.69854 118.648 6.60941 118.828 6.45765 118.943L1.51174 122.697C1.36027 122.812 1.27117 122.991 1.27085 123.181L1.00051 283.707Z" stroke="white" stroke-width="0.400031" stroke-miterlimit="10"/>
<path d="M1.30469 123.575L6.78726 119.463C6.25237 119.463 6.56439 35.1647 6.78726 5.2644L1.63347 9.55922C1.42514 9.73283 1.30469 9.99001 1.30469 10.2612V123.575Z" fill="white" fill-opacity="0.25"/>
<defs>
<linearGradient id="paint0_linear_7904_2455" x1="-28.4914" y1="143.914" x2="178" y2="143.914" gradientUnits="userSpaceOnUse">
<stop stop-color="#F1C6FF"/>
<stop offset="0.348958" stop-color="#BD0AF8"/>
<stop offset="0.994097" stop-color="#365CFC"/>
</linearGradient>
</defs>
</svg>
