<svg preserveAspectRatio="none" width="100%" height="100%" viewBox="0 0 742 150" fill="none" xmlns="http://www.w3.org/2000/svg">
<path d="M29.8171 1.35554L18.8713 4.9187V9.27764V35.6325L1 41.4425V143.198L18.8248 149H297.165L311.782 144.234H673.826L686.399 140.149H724.375L740.922 134.77V9.32158L723.655 3.70826H587.926L579.607 1H246.897L237.416 4.08651H103.242L94.6435 1.28748L29.8171 1.35554Z" fill="white"/>
<path d="M29.8171 1.35554L18.8713 4.9187V9.27764V35.6325L1 41.4425V143.198L18.8248 149H297.165L311.782 144.234H673.826L686.399 140.149H724.375L740.922 134.77V9.32158L723.655 3.70826H587.926L579.607 1H246.897L237.416 4.08651H103.242L94.6435 1.28748L29.8171 1.35554Z" fill="url(#paint0_linear_7735_9433)"/>
<path d="M29.8171 1.35554L18.8713 4.9187V9.27764V35.6325L1 41.4425V143.198L18.8248 149H297.165L311.782 144.234H673.826L686.399 140.149H724.375L740.922 134.77V9.32158L723.655 3.70826H587.926L579.607 1H246.897L237.416 4.08651H103.242L94.6435 1.28748L29.8171 1.35554Z" stroke="white" stroke-width="0.404322" stroke-miterlimit="10"/>
<defs>
<linearGradient id="paint0_linear_7735_9433" x1="-122.284" y1="75.023" x2="740.922" y2="75.0127" gradientUnits="userSpaceOnUse">
<stop stopColor="#F1C6FF"/>
<stop offset="0.348958" stopColor="#BD0AF8"/>
<stop offset="0.994097" stopColor="#365CFC"/>
</linearGradient>
</defs>
</svg>
