<svg width="22" height="22" viewBox="0 0 22 22" fill="none" xmlns="http://www.w3.org/2000/svg">
<g clip-path="url(#clip0_1298_21679)">
<path d="M11.7937 2.75004L20.5259 17.875C20.6063 18.0144 20.6487 18.1725 20.6487 18.3334C20.6487 18.4943 20.6063 18.6523 20.5259 18.7917C20.4454 18.931 20.3297 19.0468 20.1904 19.1272C20.051 19.2077 19.893 19.25 19.732 19.25H2.26772C2.10681 19.25 1.94874 19.2077 1.80939 19.1272C1.67004 19.0468 1.55433 18.931 1.47388 18.7917C1.39343 18.6523 1.35107 18.4943 1.35107 18.3334C1.35108 18.1725 1.39343 18.0144 1.47388 17.875L10.206 2.75004C10.2865 2.6107 10.4022 2.49499 10.5416 2.41455C10.6809 2.3341 10.839 2.29175 10.9999 2.29175C11.1608 2.29175 11.3189 2.3341 11.4582 2.41455C11.5975 2.49499 11.7133 2.6107 11.7937 2.75004ZM10.0832 14.6667V16.5H11.9166V14.6667H10.0832ZM10.0832 8.25004V12.8334H11.9166V8.25004H10.0832Z" fill="white"/>
</g>
<defs>
<clipPath id="clip0_1298_21679">
<rect width="22" height="22" fill="white"/>
</clipPath>
</defs>
</svg>
