<svg width="355" height="365" viewBox="0 0 355 365" fill="none" xmlns="http://www.w3.org/2000/svg">
<path fill-rule="evenodd" clip-rule="evenodd" d="M4 0H99.0869C104.497 0.00366393 109.676 2.1993 113.44 6.08616L135.548 28.9138C139.316 32.8039 144.499 35 149.915 35H208.313C213.729 35 218.913 32.8039 222.68 28.9138L244.788 6.08616C248.551 2.20049 253.728 0.00501266 259.136 0H351C353.209 0 355 1.79086 355 4V361C355 363.209 353.209 365 351 365H287V364.945H259.155C253.74 364.945 248.556 362.749 244.788 358.859L222.68 336.031C218.913 332.141 213.729 329.945 208.313 329.945H149.915C144.499 329.945 139.316 332.141 135.548 336.031L113.44 358.859C109.673 362.749 104.489 364.945 99.0733 364.945H68V365H4C1.79086 365 0 363.209 0 361V4C0 1.79086 1.79086 0 4 0Z" fill="url(#paint0_linear_1047_18846)"/>
<path d="M179.781 14.3331L176.205 10.7571L177.148 9.81445L182.333 14.9998L177.148 20.1851L176.205 19.2425L179.781 15.6665H171.667V14.3331H179.781Z" fill="#8687BC"/>
<path d="M179.781 349.333L176.205 345.757L177.148 344.814L182.333 350L177.148 355.185L176.205 354.242L179.781 350.666H171.667V349.333H179.781Z" fill="#8687BC"/>
<defs>
<linearGradient id="paint0_linear_1047_18846" x1="0" y1="182.5" x2="355" y2="182.5" gradientUnits="userSpaceOnUse">
<stop stop-color="#6567D1"/>
<stop offset="1" stop-color="#12938D"/>
</linearGradient>
</defs>
</svg>
