<svg width="355" height="365" viewBox="0 0 355 365" fill="none" xmlns="http://www.w3.org/2000/svg">
<path fill-rule="evenodd" clip-rule="evenodd" d="M0 0H99.0869C104.497 0.00366393 109.676 2.1993 113.44 6.08616L135.548 28.9138C139.316 32.8039 144.499 35 149.915 35H208.313C213.729 35 218.913 32.8039 222.68 28.9138L244.788 6.08616C248.551 2.20049 253.728 0.00501266 259.136 0H355V365H287V364.945H259.155C253.74 364.945 248.556 362.749 244.788 358.859L222.68 336.031C218.913 332.141 213.729 329.945 208.313 329.945H149.915C144.499 329.945 139.316 332.141 135.548 336.031L113.44 358.859C109.673 362.749 104.489 364.945 99.0733 364.945H68V365H0V0Z" fill="#081129"/>
<path fill-rule="evenodd" clip-rule="evenodd" d="M0 0H99.0869C104.497 0.00366393 109.676 2.1993 113.44 6.08616L135.548 28.9138C139.316 32.8039 144.499 35 149.915 35H208.313C213.729 35 218.913 32.8039 222.68 28.9138L244.788 6.08616C248.551 2.20049 253.728 0.00501266 259.136 0H355V365H287V364.945H259.155C253.74 364.945 248.556 362.749 244.788 358.859L222.68 336.031C218.913 332.141 213.729 329.945 208.313 329.945H149.915C144.499 329.945 139.316 332.141 135.548 336.031L113.44 358.859C109.673 362.749 104.489 364.945 99.0733 364.945H68V365H0V0Z" fill="url(#paint0_linear_1047_18855)" fill-opacity="0.02"/>
<path fill-rule="evenodd" clip-rule="evenodd" d="M0 0H99.0869C104.497 0.00366393 109.676 2.1993 113.44 6.08616L135.548 28.9138C139.316 32.8039 144.499 35 149.915 35H208.313C213.729 35 218.913 32.8039 222.68 28.9138L244.788 6.08616C248.551 2.20049 253.728 0.00501266 259.136 0H355V365H287V364.945H259.155C253.74 364.945 248.556 362.749 244.788 358.859L222.68 336.031C218.913 332.141 213.729 329.945 208.313 329.945H149.915C144.499 329.945 139.316 332.141 135.548 336.031L113.44 358.859C109.673 362.749 104.489 364.945 99.0733 364.945H68V365H0V0Z" fill="url(#paint1_linear_1047_18855)" fill-opacity="0.02"/>
<rect x="166" y="4" width="22" height="22" rx="4" fill="#8CEBE7"/>
<g clip-path="url(#clip0_1047_18855)">
<path d="M175.5 17.3791L182.394 10.4844L183.455 11.5449L175.5 19.5001L170.727 14.7271L171.788 13.6666L175.5 17.3791Z" fill="#070E23"/>
</g>
<path d="M179.781 349.333L176.205 345.757L177.148 344.814L182.333 350L177.148 355.185L176.205 354.242L179.781 350.666H171.667V349.333H179.781Z" fill="#8CEBE7"/>
<defs>
<linearGradient id="paint0_linear_1047_18855" x1="177.5" y1="182.786" x2="177.5" y2="365" gradientUnits="userSpaceOnUse">
<stop stop-color="white" stop-opacity="0"/>
<stop offset="1" stop-color="white"/>
</linearGradient>
<linearGradient id="paint1_linear_1047_18855" x1="177.5" y1="182.786" x2="177.336" y2="-0.000310954" gradientUnits="userSpaceOnUse">
<stop stop-color="white" stop-opacity="0"/>
<stop offset="1" stop-color="white"/>
</linearGradient>
<clipPath id="clip0_1047_18855">
<rect width="18" height="18" fill="white" transform="translate(168 6)"/>
</clipPath>
</defs>
</svg>
