<svg width="209" height="251" viewBox="0 0 209 251" fill="none" xmlns="http://www.w3.org/2000/svg">
<path d="M1.00104 246.349C1.00039 246.588 1.11202 246.814 1.30251 246.958L5.5884 250.207C5.72075 250.307 5.88227 250.362 6.04834 250.362H127.354C127.52 250.362 127.682 250.307 127.814 250.207L133.09 246.207C133.223 246.106 133.384 246.052 133.55 246.052H204.076C204.242 246.052 204.404 245.998 204.536 245.897L208.183 243.13C208.373 242.986 208.484 242.761 208.484 242.523V118.567C208.484 118.329 208.373 118.104 208.183 117.96L205.249 115.734C205.059 115.59 204.948 115.365 204.948 115.127V24.4655C204.948 24.2271 205.059 24.0025 205.249 23.8586L207.988 21.7842C208.178 21.6403 208.289 21.4157 208.289 21.1773V6.75548C208.289 6.51724 208.178 6.29273 207.988 6.14878L201.402 1.15472C201.27 1.05435 201.108 1.00002 200.942 1.00002H71.39C71.2237 1.00002 71.062 1.05442 70.9296 1.15492L68.5302 2.976C68.3978 3.0765 68.2362 3.13091 68.0699 3.13091H12.5054C12.3392 3.13091 12.1775 3.18531 12.0451 3.28581L8.42371 6.03438C8.23403 6.17834 8.12262 6.40275 8.12262 6.64088V117.811C8.12262 118.049 8.01122 118.274 7.82154 118.417L1.63922 123.11C1.45013 123.253 1.33879 123.477 1.33814 123.714L1.00104 246.349Z" stroke="white" stroke-width="0.5" stroke-miterlimit="10"/>
<path d="M1.38086 123.206L8.23354 118.067C7.56499 118.067 7.95498 43.7023 8.23354 6.32983L1.79181 11.6979C1.53142 11.9149 1.38086 12.2364 1.38086 12.5753V123.206Z" fill="white" fill-opacity="0.25"/>
</svg>
