<svg width="167" height="202" viewBox="0 0 167 202" fill="none" xmlns="http://www.w3.org/2000/svg">
<path d="M0.371198 197.783C0.370671 197.975 0.460182 198.155 0.612929 198.271L4.04956 200.876C4.15568 200.956 4.28519 201 4.41836 201H101.687C101.82 201 101.95 200.956 102.056 200.876L106.287 197.668C106.393 197.588 106.522 197.544 106.656 197.544H163.206C163.34 197.544 163.469 197.501 163.575 197.42L166.499 195.201C166.651 195.086 166.741 194.906 166.741 194.715V95.3209C166.741 95.13 166.651 94.95 166.499 94.8346L164.147 93.049C163.995 92.9336 163.905 92.7536 163.905 92.5627V19.866C163.905 19.6749 163.995 19.4948 164.147 19.3793L166.343 17.716C166.495 17.6006 166.585 17.4205 166.585 17.2294V5.66526C166.585 5.47423 166.495 5.29421 166.343 5.17878L161.062 1.17431C160.956 1.09383 160.826 1.05026 160.693 1.05026H56.8123C56.679 1.05026 56.5494 1.09389 56.4432 1.17447L54.5193 2.6347C54.4131 2.71529 54.2834 2.75891 54.1502 2.75891H9.59597C9.46267 2.75891 9.33304 2.80253 9.22686 2.88312L6.32304 5.08705C6.17094 5.20248 6.08161 5.38243 6.08161 5.57337V94.7147C6.08161 94.9057 5.99228 95.0856 5.84019 95.2011L0.88292 98.9635C0.731294 99.0786 0.642019 99.2578 0.641495 99.4482L0.371198 197.783Z" stroke="white" stroke-width="0.400923" stroke-miterlimit="10"/>
<path d="M0.675537 99.0401L6.17034 94.919C5.63426 94.919 5.94697 35.2903 6.17034 5.32324L1.00506 9.62764C0.796261 9.80164 0.675537 10.0594 0.675537 10.3312V99.0401Z" fill="white" fill-opacity="0.25"/>
</svg>
