<svg width="11" height="11" viewBox="0 0 11 11" fill="none" xmlns="http://www.w3.org/2000/svg">
<path d="M9.10071 10.4085H4.09313C3.48399 10.4085 2.98852 9.90584 2.98852 9.28784V4.20747C2.98852 3.58947 3.48399 3.0868 4.09313 3.0868H9.10071C9.70986 3.0868 10.2053 3.58947 10.2053 4.20747V9.28784C10.2053 9.90584 9.70986 10.4085 9.10071 10.4085ZM4.09313 3.83391C3.8901 3.83391 3.72493 4.00149 3.72493 4.20747V9.28784C3.72493 9.49382 3.8901 9.6614 4.09313 9.6614H9.10071C9.30374 9.6614 9.46891 9.49382 9.46891 9.28784V4.20747C9.46891 4.00149 9.30374 3.83391 9.10071 3.83391H4.09313ZM2.25211 7.42006H1.88391C1.68088 7.42006 1.51571 7.25248 1.51571 7.0465V1.96613C1.51571 1.76015 1.68088 1.59257 1.88391 1.59257H6.89148C7.09451 1.59257 7.25969 1.76015 7.25969 1.96613V2.32101H7.9961V1.96613C7.9961 1.34813 7.50063 0.845459 6.89148 0.845459H1.88391C1.27476 0.845459 0.779297 1.34813 0.779297 1.96613V7.0465C0.779297 7.6645 1.27476 8.16717 1.88391 8.16717H2.25211V7.42006Z" fill="white"/>
</svg>
