<svg width="29" height="29" viewBox="0 0 29 29" fill="none" xmlns="http://www.w3.org/2000/svg">
<path d="M28.0273 14.5136V27.7268C28.0273 27.8927 27.8929 28.0271 27.727 28.0271H14.5138" stroke="white" stroke-width="0.300302"/>
<path d="M1 14.5136V1.30035C1 1.1345 1.13445 1.00005 1.3003 1.00005H14.5136" stroke="white" stroke-width="0.300302"/>
<rect x="4.00293" y="4.0031" width="21.0211" height="21.0211" rx="0.300302" fill="white" fill-opacity="0.25"/>
<g clip-path="url(#clip0_140_1816)">
<path d="M12.9173 16.1025L12.7412 18.5797C12.9932 18.5797 13.1023 18.4715 13.2332 18.3415L14.4146 17.2125L16.8626 19.0052C17.3116 19.2554 17.6279 19.1236 17.749 18.5922L19.3558 11.0627L19.3563 11.0623C19.4987 10.3986 19.1163 10.1391 18.6789 10.3019L9.23379 13.918C8.58919 14.1682 8.59895 14.5276 9.12422 14.6904L11.5389 15.4414L17.1479 11.9318C17.4118 11.757 17.6518 11.8537 17.4544 12.0285L12.9173 16.1025Z" fill="white"/>
</g>
<defs>
<clipPath id="clip0_140_1816">
<rect width="11.7118" height="11.7118" fill="white" transform="translate(8.20715 8.65773)"/>
</clipPath>
</defs>
</svg>
