<svg width="219" height="36" viewBox="0 0 219 36" fill="none" xmlns="http://www.w3.org/2000/svg">
<g filter="url(#filter0_f_1146_354)">
<path d="M18.83 16.777L16.9658 18.6412C16.8682 18.7388 16.8682 18.8971 16.9658 18.9948L18.83 20.859C18.9277 20.9566 19.0859 20.9566 19.1836 20.859L21.0478 18.9948C21.1454 18.8971 21.1454 18.7388 21.0478 18.6412L19.1836 16.777C19.0859 16.6794 18.9277 16.6794 18.83 16.777Z" fill="url(#paint0_linear_1146_354)"/>
</g>
<g filter="url(#filter1_f_1146_354)">
<path d="M18.83 16.777L16.9658 18.6412C16.8682 18.7388 16.8682 18.8971 16.9658 18.9948L18.83 20.859C18.9277 20.9566 19.0859 20.9566 19.1836 20.859L21.0478 18.9948C21.1454 18.8971 21.1454 18.7388 21.0478 18.6412L19.1836 16.777C19.0859 16.6794 18.9277 16.6794 18.83 16.777Z" fill="url(#paint1_linear_1146_354)"/>
</g>
<path d="M18.83 16.7769L16.9658 18.6411C16.8682 18.7387 16.8682 18.897 16.9658 18.9946L18.83 20.8588C18.9277 20.9565 19.0859 20.9565 19.1836 20.8588L21.0478 18.9946C21.1454 18.897 21.1454 18.7387 21.0478 18.6411L19.1836 16.7769C19.0859 16.6793 18.9277 16.6793 18.83 16.7769Z" fill="url(#paint2_linear_1146_354)"/>
<g filter="url(#filter2_i_1146_354)">
<path d="M19.0134 2.35714e-06C8.51466 -0.00206821 0.00208041 8.46834 3.63042e-07 18.9193C-0.00133681 25.746 3.69126 32.0443 9.66306 35.4009C9.84551 35.5055 10.0627 35.5323 10.2653 35.475C10.4665 35.4191 10.6373 35.2865 10.7408 35.1059L16.6045 24.7901C16.8195 24.411 16.6855 23.9302 16.3049 23.7157C13.634 22.2224 12.6849 18.8564 14.1852 16.1976C15.6854 13.5389 19.0667 12.5941 21.7376 14.0875C24.4086 15.5809 25.3577 18.9468 23.8574 21.6056C23.3588 22.4894 22.6254 23.2194 21.7376 23.7157C21.3571 23.9302 21.2231 24.411 21.4381 24.7901L27.286 35.1059C27.3891 35.2871 27.5601 35.4204 27.7614 35.4766C27.8305 35.4965 27.9019 35.5066 27.9738 35.5065C28.1105 35.5064 28.2448 35.471 28.3637 35.404C37.5075 30.2686 40.738 18.7268 35.5791 9.62461C32.2071 3.67519 25.8757 -0.0033993 19.0134 2.35714e-06Z" fill="white" fill-opacity="0.35"/>
</g>
<g filter="url(#filter3_i_1146_354)">
<path d="M62.6611 14.0772C61.4619 12.9287 60.0431 12.5909 57.6447 12.5909H50.213C45.9735 12.5909 43.5244 14.7359 43.5244 18.4856V18.5025C43.5244 22.2352 45.9566 24.3803 50.1116 24.3803H57.1211C58.8777 24.3803 60.0093 24.0593 60.8031 23.0628L61.0227 24.3296H62.9651V17.8268H55.3814V20.3942H60.06V20.5968C59.5195 21.2556 58.5567 21.3907 57.1886 21.3907H50.1792C48.0003 21.3907 46.818 20.3942 46.818 18.5025V18.4856C46.818 16.5601 48.0172 15.5804 50.213 15.5804H57.6447C59.0634 15.5804 60.0093 15.7156 60.6511 16.425L62.6611 14.0772ZM71.8478 12.5909C67.659 12.5909 65.2099 14.7359 65.2099 18.4856V18.5025C65.2099 22.2352 67.659 24.3803 71.8478 24.3803H79.6004C83.8061 24.3803 86.2552 22.2352 86.2552 18.5025V18.4856C86.2552 14.7359 83.8061 12.5909 79.6004 12.5909H71.8478ZM71.8478 21.3907C69.5338 21.3907 68.5035 20.3266 68.5035 18.5025V18.4856C68.5035 16.6445 69.5338 15.5804 71.8478 15.5804H79.6004C81.9144 15.5804 82.9616 16.6445 82.9616 18.4856V18.5025C82.9616 20.3266 81.9144 21.3907 79.6004 21.3907H71.8478ZM91.8456 12.6415H87.6399L96.0512 24.3296H99.3279L107.756 12.6415H103.601L97.7403 21.0698L91.8456 12.6415ZM116.134 20.5631L112.722 12.6415H108.855L114.226 24.3296H117.671L121.387 17.4215H121.421L125.137 24.3296H128.582L133.953 12.6415H130.069L126.674 20.5631L123.38 14.5501H119.428L116.134 20.5631ZM142.001 12.5909C137.812 12.5909 135.363 14.7359 135.363 18.4856V18.5025C135.363 22.2352 137.812 24.3803 142.001 24.3803H149.754C153.959 24.3803 156.408 22.2352 156.408 18.5025V18.4856C156.408 14.7359 153.959 12.5909 149.754 12.5909H142.001ZM142.001 21.3907C139.687 21.3907 138.657 20.3266 138.657 18.5025V18.4856C138.657 16.6445 139.687 15.5804 142.001 15.5804H149.754C152.068 15.5804 153.115 16.6445 153.115 18.4856V18.5025C153.115 20.3266 152.068 21.3907 149.754 21.3907H142.001ZM177.352 24.3296L174.751 20.4786C176.457 19.7861 177.048 18.4518 177.048 16.881V16.8641C177.048 14.5164 175.764 12.6415 171.559 12.6415H159.077V24.3296H162.37V20.9853H171.508L173.619 24.3296H177.352ZM171.559 15.5636C173.18 15.5636 173.771 15.952 173.771 16.8641V16.881C173.771 17.81 173.18 18.1815 171.559 18.1815H162.37V15.5636H171.559ZM179.938 12.6415V24.3296H195.848V21.188H183.366V12.6415H179.938ZM198.423 12.6415V24.3296H210.854C215.043 24.3296 217.458 22.2352 217.458 18.5025V18.4856C217.458 14.7359 215.043 12.6415 210.854 12.6415H198.423ZM201.852 15.6311H210.854C213.168 15.6311 214.165 16.6614 214.165 18.4856V18.5025C214.165 20.3097 213.168 21.34 210.854 21.34H201.852V15.6311Z" fill="white" fill-opacity="0.3"/>
</g>
<path d="M62.661 14.0771L62.7781 14.1774L62.8729 14.0666L62.7676 13.9657L62.661 14.0771ZM60.803 23.0627L60.955 23.0364L60.8963 22.6981L60.6824 22.9666L60.803 23.0627ZM61.0226 24.3295L60.8707 24.3558L60.8928 24.4837H61.0226V24.3295ZM62.965 24.3295V24.4837H63.1192V24.3295H62.965ZM62.965 17.8267H63.1192V17.6725H62.965V17.8267ZM55.3813 17.8267V17.6725H55.2271V17.8267H55.3813ZM55.3813 20.3941H55.2271V20.5483H55.3813V20.3941ZM60.0599 20.3941H60.2141V20.2399H60.0599V20.3941ZM60.0599 20.5967L60.1791 20.6946L60.2141 20.6519V20.5967H60.0599ZM60.651 16.4249L60.5367 16.5283L60.6542 16.6582L60.7682 16.5251L60.651 16.4249ZM62.7676 13.9657C61.5251 12.7757 60.0563 12.4366 57.6446 12.4366V12.745C60.0297 12.745 61.3985 13.0815 62.5543 14.1885L62.7676 13.9657ZM57.6446 12.4366H50.2129V12.745H57.6446V12.4366ZM50.2129 12.4366C48.0689 12.4366 46.3559 12.979 45.1769 14.0162C43.9952 15.056 43.3701 16.5755 43.3701 18.4855H43.6785C43.6785 16.6458 44.278 15.2179 45.3807 14.2478C46.4861 13.2751 48.1174 12.745 50.2129 12.745V12.4366ZM43.3701 18.4855V18.5024H43.6785V18.4855H43.3701ZM43.3701 18.5024C43.3701 20.4037 43.9908 21.9186 45.1573 22.9563C46.3213 23.9916 48.009 24.5344 50.1115 24.5344V24.226C48.059 24.226 46.4532 23.6962 45.3623 22.7258C44.2739 21.7577 43.6785 20.3337 43.6785 18.5024H43.3701ZM50.1115 24.5344H57.121V24.226H50.1115V24.5344ZM57.121 24.5344C58.8935 24.5344 60.0855 24.2109 60.9236 23.1588L60.6824 22.9666C59.9329 23.9076 58.8616 24.226 57.121 24.226V24.5344ZM60.6511 23.0891L60.8707 24.3558L61.1745 24.3032L60.955 23.0364L60.6511 23.0891ZM61.0226 24.4837H62.965V24.1753H61.0226V24.4837ZM63.1192 24.3295V17.8267H62.8108V24.3295H63.1192ZM62.965 17.6725H55.3813V17.9809H62.965V17.6725ZM55.2271 17.8267V20.3941H55.5355V17.8267H55.2271ZM55.3813 20.5483H60.0599V20.2399H55.3813V20.5483ZM59.9057 20.3941V20.5967H60.2141V20.3941H59.9057ZM59.9407 20.4989C59.6979 20.7947 59.3561 20.9799 58.8982 21.0908C58.4376 21.2024 57.8701 21.2364 57.1885 21.2364V21.5448C57.8751 21.5448 58.473 21.5112 58.9709 21.3905C59.4715 21.2692 59.8813 21.0575 60.1791 20.6946L59.9407 20.4989ZM57.1885 21.2364H50.1791V21.5448H57.1885V21.2364ZM50.1791 21.2364C49.1104 21.2364 48.3115 20.9917 47.7816 20.5387C47.2559 20.0891 46.9721 19.4147 46.9721 18.5024H46.6637C46.6637 19.4817 46.9711 20.2514 47.5812 20.7731C48.1872 21.2912 49.0689 21.5448 50.1791 21.5448V21.2364ZM46.9721 18.5024V18.4855H46.6637V18.5024H46.9721ZM46.9721 18.4855C46.9721 17.5562 47.2601 16.878 47.7916 16.4286C48.3275 15.9754 49.1349 15.7345 50.2129 15.7345V15.4261C49.0951 15.4261 48.205 15.6751 47.5924 16.1931C46.9753 16.7149 46.6637 17.4893 46.6637 18.4855H46.9721ZM50.2129 15.7345H57.6446V15.4261H50.2129V15.7345ZM57.6446 15.7345C59.0666 15.7345 59.9451 15.8745 60.5367 16.5283L60.7654 16.3214C60.0733 15.5564 59.0601 15.4261 57.6446 15.4261V15.7345ZM60.7682 16.5251L62.7781 14.1774L62.5438 13.9768L60.5339 16.3246L60.7682 16.5251ZM71.8477 12.4366C69.7286 12.4366 68.0282 12.9792 66.8558 14.0165C65.6806 15.0562 65.0556 16.5755 65.0556 18.4855H65.364C65.364 16.6458 65.9635 15.2177 67.0601 14.2475C68.1594 13.2749 69.778 12.745 71.8477 12.745V12.4366ZM65.0556 18.4855V18.5024H65.364V18.4855H65.0556ZM65.0556 18.5024C65.0556 20.4041 65.6808 21.9191 66.8559 22.9566C68.0283 23.9918 69.7286 24.5344 71.8477 24.5344V24.226C69.778 24.226 68.1593 23.696 67.06 22.7254C65.9634 21.7573 65.364 20.3334 65.364 18.5024H65.0556ZM71.8477 24.5344H79.6003V24.226H71.8477V24.5344ZM79.6003 24.5344C81.7277 24.5344 83.4322 23.9918 84.6068 22.9567C85.7841 21.9192 86.4093 20.4041 86.4093 18.5024H86.1009C86.1009 20.3334 85.5015 21.7572 84.4029 22.7254C83.3015 23.696 81.6786 24.226 79.6003 24.226V24.5344ZM86.4093 18.5024V18.4855H86.1009V18.5024H86.4093ZM86.4093 18.4855C86.4093 16.5755 85.7842 15.0562 84.6069 14.0164C83.4323 12.9791 81.7277 12.4366 79.6003 12.4366V12.745C81.6786 12.745 83.3014 13.275 84.4027 14.2476C85.5013 15.2178 86.1009 16.6458 86.1009 18.4855H86.4093ZM79.6003 12.4366H71.8477V12.745H79.6003V12.4366ZM71.8477 21.2364C70.7115 21.2364 69.919 20.9749 69.4112 20.5161C68.9062 20.0599 68.6576 19.3856 68.6576 18.5024H68.3492C68.3492 19.4433 68.6157 20.2131 69.2044 20.7449C69.7903 21.2743 70.6699 21.5448 71.8477 21.5448V21.2364ZM68.6576 18.5024V18.4855H68.3492V18.5024H68.6576ZM68.6576 18.4855C68.6576 17.5934 68.9065 16.9149 69.4114 16.4567C69.9191 15.9961 70.7115 15.7345 71.8477 15.7345V15.4261C70.6699 15.4261 69.7901 15.6967 69.2042 16.2283C68.6155 16.7625 68.3492 17.5365 68.3492 18.4855H68.6576ZM71.8477 15.7345H79.6003V15.4261H71.8477V15.7345ZM79.6003 15.7345C80.7365 15.7345 81.5334 15.9961 82.0454 16.4571C82.5546 16.9155 82.8073 17.5941 82.8073 18.4855H83.1157C83.1157 17.5358 82.8447 16.7618 82.2518 16.2279C81.6618 15.6967 80.7781 15.4261 79.6003 15.4261V15.7345ZM82.8073 18.4855V18.5024H83.1157V18.4855H82.8073ZM82.8073 18.5024C82.8073 19.3849 82.5548 20.0593 82.0457 20.5157C81.5335 20.9749 80.7365 21.2364 79.6003 21.2364V21.5448C80.7781 21.5448 81.6616 21.2742 82.2515 20.7453C82.8445 20.2137 83.1157 19.444 83.1157 18.5024H82.8073ZM79.6003 21.2364H71.8477V21.5448H79.6003V21.2364ZM91.8455 12.6414L91.9718 12.5531L91.9258 12.4872H91.8455V12.6414ZM87.6398 12.6414V12.4872H87.3388L87.5146 12.7315L87.6398 12.6414ZM96.0511 24.3295L95.926 24.4196L95.9721 24.4837H96.0511V24.3295ZM99.3278 24.3295V24.4837H99.4068L99.4529 24.4197L99.3278 24.3295ZM107.756 12.6414L107.881 12.7316L108.057 12.4872H107.756V12.6414ZM103.601 12.6414V12.4872H103.521L103.475 12.5534L103.601 12.6414ZM97.7402 21.0697L97.6138 21.158L97.7405 21.3392L97.8668 21.1577L97.7402 21.0697ZM91.8455 12.4872H87.6398V12.7956H91.8455V12.4872ZM87.5146 12.7315L95.926 24.4196L96.1763 24.2394L87.7649 12.5514L87.5146 12.7315ZM96.0511 24.4837H99.3278V24.1753H96.0511V24.4837ZM99.4529 24.4197L107.881 12.7316L107.631 12.5513L99.2028 24.2393L99.4529 24.4197ZM107.756 12.4872H103.601V12.7956H107.756V12.4872ZM103.475 12.5534L97.6136 20.9816L97.8668 21.1577L103.728 12.7295L103.475 12.5534ZM97.8665 20.9813L91.9718 12.5531L91.7191 12.7298L97.6138 21.158L97.8665 20.9813ZM116.134 20.563L115.993 20.624L116.118 20.9142L116.27 20.637L116.134 20.563ZM112.722 12.6414L112.864 12.5804L112.824 12.4872H112.722V12.6414ZM108.855 12.6414V12.4872H108.614L108.714 12.7058L108.855 12.6414ZM114.226 24.3295L114.086 24.3939L114.127 24.4837H114.226V24.3295ZM117.671 24.3295V24.4837H117.763L117.807 24.4025L117.671 24.3295ZM121.387 17.4214V17.2672H121.295L121.251 17.3483L121.387 17.4214ZM121.421 17.4214L121.557 17.3483L121.513 17.2672H121.421V17.4214ZM125.137 24.3295L125.001 24.4025L125.045 24.4837H125.137V24.3295ZM128.582 24.3295V24.4837H128.681L128.722 24.3939L128.582 24.3295ZM133.953 12.6414L134.094 12.7058L134.194 12.4872H133.953V12.6414ZM130.069 12.6414V12.4872H129.967L129.927 12.5807L130.069 12.6414ZM126.674 20.563L126.539 20.637L126.691 20.9149L126.816 20.6237L126.674 20.563ZM123.38 14.55L123.515 14.476L123.472 14.3958H123.38V14.55ZM119.428 14.55V14.3958H119.337L119.293 14.476L119.428 14.55ZM116.276 20.502L112.864 12.5804L112.581 12.7024L115.993 20.624L116.276 20.502ZM112.722 12.4872H108.855V12.7956H112.722V12.4872ZM108.714 12.7058L114.086 24.3939L114.366 24.2651L108.995 12.5771L108.714 12.7058ZM114.226 24.4837H117.671V24.1753H114.226V24.4837ZM117.807 24.4025L121.523 17.4944L121.251 17.3483L117.535 24.2564L117.807 24.4025ZM121.387 17.5756H121.421V17.2672H121.387V17.5756ZM121.285 17.4944L125.001 24.4025L125.273 24.2564L121.557 17.3483L121.285 17.4944ZM125.137 24.4837H128.582V24.1753H125.137V24.4837ZM128.722 24.3939L134.094 12.7058L133.813 12.5771L128.442 24.2651L128.722 24.3939ZM133.953 12.4872H130.069V12.7956H133.953V12.4872ZM129.927 12.5807L126.532 20.5022L126.816 20.6237L130.21 12.7022L129.927 12.5807ZM126.809 20.4889L123.515 14.476L123.245 14.6241L126.539 20.637L126.809 20.4889ZM123.38 14.3958H119.428V14.7042H123.38V14.3958ZM119.293 14.476L115.999 20.4889L116.27 20.637L119.563 14.6241L119.293 14.476ZM142.001 12.4366C139.882 12.4366 138.182 12.9792 137.009 14.0165C135.834 15.0562 135.209 16.5755 135.209 18.4855H135.517C135.517 16.6458 136.117 15.2177 137.213 14.2475C138.313 13.2749 139.931 12.745 142.001 12.745V12.4366ZM135.209 18.4855V18.5024H135.517V18.4855H135.209ZM135.209 18.5024C135.209 20.4041 135.834 21.9191 137.009 22.9566C138.182 23.9918 139.882 24.5344 142.001 24.5344V24.226C139.931 24.226 138.313 23.696 137.213 22.7254C136.117 21.7573 135.517 20.3334 135.517 18.5024H135.209ZM142.001 24.5344H149.754V24.226H142.001V24.5344ZM149.754 24.5344C151.881 24.5344 153.586 23.9918 154.76 22.9567C155.937 21.9192 156.563 20.4041 156.563 18.5024H156.254C156.254 20.3334 155.655 21.7572 154.556 22.7254C153.455 23.696 151.832 24.226 149.754 24.226V24.5344ZM156.563 18.5024V18.4855H156.254V18.5024H156.563ZM156.563 18.4855C156.563 16.5755 155.938 15.0562 154.76 14.0164C153.586 12.9791 151.881 12.4366 149.754 12.4366V12.745C151.832 12.745 153.455 13.275 154.556 14.2476C155.655 15.2178 156.254 16.6458 156.254 18.4855H156.563ZM149.754 12.4366H142.001V12.745H149.754V12.4366ZM142.001 21.2364C140.865 21.2364 140.072 20.9749 139.565 20.5161C139.06 20.0599 138.811 19.3856 138.811 18.5024H138.503C138.503 19.4433 138.769 20.2131 139.358 20.7449C139.944 21.2743 140.823 21.5448 142.001 21.5448V21.2364ZM138.811 18.5024V18.4855H138.503V18.5024H138.811ZM138.811 18.4855C138.811 17.5934 139.06 16.9149 139.565 16.4567C140.072 15.9961 140.865 15.7345 142.001 15.7345V15.4261C140.823 15.4261 139.943 15.6967 139.358 16.2283C138.769 16.7625 138.503 17.5365 138.503 18.4855H138.811ZM142.001 15.7345H149.754V15.4261H142.001V15.7345ZM149.754 15.7345C150.89 15.7345 151.687 15.9961 152.199 16.4571C152.708 16.9155 152.961 17.5941 152.961 18.4855H153.269C153.269 17.5358 152.998 16.7618 152.405 16.2279C151.815 15.6967 150.931 15.4261 149.754 15.4261V15.7345ZM152.961 18.4855V18.5024H153.269V18.4855H152.961ZM152.961 18.5024C152.961 19.3849 152.708 20.0593 152.199 20.5157C151.687 20.9749 150.89 21.2364 149.754 21.2364V21.5448C150.931 21.5448 151.815 21.2742 152.405 20.7453C152.998 20.2137 153.269 19.444 153.269 18.5024H152.961ZM149.754 21.2364H142.001V21.5448H149.754V21.2364ZM177.352 24.3295V24.4837H177.642L177.48 24.2432L177.352 24.3295ZM174.751 20.4785L174.693 20.3356L174.517 20.4072L174.623 20.5648L174.751 20.4785ZM159.077 12.6414V12.4872H158.923V12.6414H159.077ZM159.077 24.3295H158.923V24.4837H159.077V24.3295ZM162.37 24.3295V24.4837H162.525V24.3295H162.37ZM162.37 20.9852V20.831H162.216V20.9852H162.37ZM171.508 20.9852L171.638 20.9029L171.593 20.831H171.508V20.9852ZM173.619 24.3295L173.489 24.4118L173.534 24.4837H173.619V24.3295ZM162.37 18.1814H162.216V18.3356H162.37V18.1814ZM162.37 15.5635V15.4093H162.216V15.5635H162.37ZM177.48 24.2432L174.879 20.3922L174.623 20.5648L177.224 24.4158L177.48 24.2432ZM174.809 20.6214C175.69 20.2638 176.292 19.7359 176.672 19.087C177.051 18.4402 177.202 17.6848 177.202 16.8809H176.894C176.894 17.6478 176.749 18.3449 176.406 18.9311C176.064 19.5152 175.518 20.0008 174.693 20.3356L174.809 20.6214ZM177.202 16.8809V16.864H176.894V16.8809H177.202ZM177.202 16.864C177.202 15.6625 176.873 14.5584 175.984 13.7577C175.097 12.9599 173.681 12.4872 171.559 12.4872V12.7956C173.642 12.7956 174.97 13.2604 175.777 13.9869C176.581 14.7106 176.894 15.7178 176.894 16.864H177.202ZM171.559 12.4872H159.077V12.7956H171.559V12.4872ZM158.923 12.6414V24.3295H159.231V12.6414H158.923ZM159.077 24.4837H162.37V24.1753H159.077V24.4837ZM162.525 24.3295V20.9852H162.216V24.3295H162.525ZM162.37 21.1394H171.508V20.831H162.37V21.1394ZM171.378 21.0675L173.489 24.4118L173.75 24.2472L171.638 20.9029L171.378 21.0675ZM173.619 24.4837H177.352V24.1753H173.619V24.4837ZM171.559 15.7177C172.365 15.7177 172.881 15.8157 173.193 16.0038C173.345 16.0953 173.448 16.208 173.515 16.3439C173.583 16.4816 173.617 16.6521 173.617 16.864H173.925C173.925 16.6199 173.886 16.3997 173.792 16.2081C173.697 16.0147 173.551 15.8592 173.353 15.7396C172.964 15.5054 172.374 15.4093 171.559 15.4093V15.7177ZM173.617 16.864V16.8809H173.925V16.864H173.617ZM173.617 16.8809C173.617 17.0975 173.583 17.27 173.515 17.4084C173.448 17.5448 173.346 17.6567 173.194 17.7471C172.882 17.9332 172.366 18.0272 171.559 18.0272V18.3356C172.373 18.3356 172.963 18.2439 173.352 18.012C173.551 17.8934 173.697 17.7382 173.792 17.5436C173.886 17.3511 173.925 17.1288 173.925 16.8809H173.617ZM171.559 18.0272H162.37V18.3356H171.559V18.0272ZM162.525 18.1814V15.5635H162.216V18.1814H162.525ZM162.37 15.7177H171.559V15.4093H162.37V15.7177ZM179.938 12.6414V12.4872H179.783V12.6414H179.938ZM179.938 24.3295H179.783V24.4837H179.938V24.3295ZM195.848 24.3295V24.4837H196.002V24.3295H195.848ZM195.848 21.1879H196.002V21.0337H195.848V21.1879ZM183.366 21.1879H183.212V21.3421H183.366V21.1879ZM183.366 12.6414H183.52V12.4872H183.366V12.6414ZM179.783 12.6414V24.3295H180.092V12.6414H179.783ZM179.938 24.4837H195.848V24.1753H179.938V24.4837ZM196.002 24.3295V21.1879H195.694V24.3295H196.002ZM195.848 21.0337H183.366V21.3421H195.848V21.0337ZM183.52 21.1879V12.6414H183.212V21.1879H183.52ZM183.366 12.4872H179.938V12.7956H183.366V12.4872ZM198.423 12.6414V12.4872H198.269V12.6414H198.423ZM198.423 24.3295H198.269V24.4837H198.423V24.3295ZM201.852 15.631V15.4768H201.698V15.631H201.852ZM201.852 21.3399H201.698V21.4941H201.852V21.3399ZM198.269 12.6414V24.3295H198.577V12.6414H198.269ZM198.423 24.4837H210.854V24.1753H198.423V24.4837ZM210.854 24.4837C212.973 24.4837 214.665 23.9542 215.829 22.9316C216.996 21.9063 217.613 20.4035 217.613 18.5024H217.304C217.304 20.3339 216.713 21.7447 215.625 22.6998C214.535 23.6576 212.925 24.1753 210.854 24.1753V24.4837ZM217.613 18.5024V18.4855H217.304V18.5024H217.613ZM217.613 18.4855C217.613 16.576 216.996 15.069 215.829 14.0416C214.665 13.0168 212.973 12.4872 210.854 12.4872V12.7956C212.925 12.7956 214.535 13.3133 215.625 14.2731C216.713 15.2303 217.304 16.6453 217.304 18.4855H217.613ZM210.854 12.4872H198.423V12.7956H210.854V12.4872ZM201.852 15.7852H210.854V15.4768H201.852V15.7852ZM210.854 15.7852C211.992 15.7852 212.775 16.0388 213.274 16.4887C213.77 16.9357 214.011 17.6009 214.011 18.4855H214.319C214.319 17.5459 214.062 16.7838 213.481 16.2597C212.903 15.7384 212.031 15.4768 210.854 15.4768V15.7852ZM214.011 18.4855V18.5024H214.319V18.4855H214.011ZM214.011 18.5024C214.011 19.3781 213.77 20.039 213.274 20.4841C212.775 20.9321 211.992 21.1857 210.854 21.1857V21.4941C212.031 21.4941 212.902 21.2326 213.48 20.7136C214.061 20.1917 214.319 19.4339 214.319 18.5024H214.011ZM210.854 21.1857H201.852V21.4941H210.854V21.1857ZM202.006 21.3399V15.631H201.698V21.3399H202.006Z" fill="white" fill-opacity="0.5"/>
<defs>
<filter id="filter0_f_1146_354" x="15.8926" y="15.7039" width="6.22852" height="6.22827" filterUnits="userSpaceOnUse" color-interpolation-filters="sRGB">
<feFlood flood-opacity="0" result="BackgroundImageFix"/>
<feBlend mode="normal" in="SourceGraphic" in2="BackgroundImageFix" result="shape"/>
<feGaussianBlur stdDeviation="0.5" result="effect1_foregroundBlur_1146_354"/>
</filter>
<filter id="filter1_f_1146_354" x="12.8926" y="12.7039" width="12.2285" height="12.2283" filterUnits="userSpaceOnUse" color-interpolation-filters="sRGB">
<feFlood flood-opacity="0" result="BackgroundImageFix"/>
<feBlend mode="normal" in="SourceGraphic" in2="BackgroundImageFix" result="shape"/>
<feGaussianBlur stdDeviation="2" result="effect1_foregroundBlur_1146_354"/>
</filter>
<filter id="filter2_i_1146_354" x="0" y="0" width="38.0356" height="38.5904" filterUnits="userSpaceOnUse" color-interpolation-filters="sRGB">
<feFlood flood-opacity="0" result="BackgroundImageFix"/>
<feBlend mode="normal" in="SourceGraphic" in2="BackgroundImageFix" result="shape"/>
<feColorMatrix in="SourceAlpha" type="matrix" values="0 0 0 0 0 0 0 0 0 0 0 0 0 0 0 0 0 0 127 0" result="hardAlpha"/>
<feOffset dy="5.13996"/>
<feGaussianBlur stdDeviation="1.54199"/>
<feComposite in2="hardAlpha" operator="arithmetic" k2="-1" k3="1"/>
<feColorMatrix type="matrix" values="0 0 0 0 1 0 0 0 0 1 0 0 0 0 1 0 0 0 0.4 0"/>
<feBlend mode="normal" in2="shape" result="effect1_innerShadow_1146_354"/>
</filter>
<filter id="filter3_i_1146_354" x="43.5244" y="12.5909" width="173.934" height="12.8174" filterUnits="userSpaceOnUse" color-interpolation-filters="sRGB">
<feFlood flood-opacity="0" result="BackgroundImageFix"/>
<feBlend mode="normal" in="SourceGraphic" in2="BackgroundImageFix" result="shape"/>
<feColorMatrix in="SourceAlpha" type="matrix" values="0 0 0 0 0 0 0 0 0 0 0 0 0 0 0 0 0 0 127 0" result="hardAlpha"/>
<feOffset dy="1.02799"/>
<feGaussianBlur stdDeviation="1.54199"/>
<feComposite in2="hardAlpha" operator="arithmetic" k2="-1" k3="1"/>
<feColorMatrix type="matrix" values="0 0 0 0 1 0 0 0 0 1 0 0 0 0 1 0 0 0 0.4 0"/>
<feBlend mode="normal" in2="shape" result="effect1_innerShadow_1146_354"/>
</filter>
<linearGradient id="paint0_linear_1146_354" x1="16.5002" y1="18.4836" x2="21.0002" y2="18.4836" gradientUnits="userSpaceOnUse">
<stop offset="0.375" stop-color="#BD0AF8"/>
<stop offset="1" stop-color="#365CFC"/>
</linearGradient>
<linearGradient id="paint1_linear_1146_354" x1="16.5002" y1="18.4836" x2="21.0002" y2="18.4836" gradientUnits="userSpaceOnUse">
<stop offset="0.375" stop-color="#BD0AF8"/>
<stop offset="1" stop-color="#365CFC"/>
</linearGradient>
<linearGradient id="paint2_linear_1146_354" x1="16.5002" y1="18.4835" x2="21.0002" y2="18.4835" gradientUnits="userSpaceOnUse">
<stop offset="0.375" stop-color="#BD0AF8"/>
<stop offset="1" stop-color="#365CFC"/>
</linearGradient>
</defs>
</svg>
