<svg width="22" height="15" viewBox="0 0 22 15" fill="none" xmlns="http://www.w3.org/2000/svg">
<path d="M0 13.9081C0 14.4604 0.447715 14.9081 1 14.9081H21C21.5523 14.9081 22 14.4604 22 13.9081V13.5079C22 12.9556 21.5523 12.5079 21 12.5079H1C0.447716 12.5079 0 12.9556 0 13.5079V13.9081ZM0 7.90747C0 8.45975 0.447715 8.90747 1 8.90747H21C21.5523 8.90747 22 8.45975 22 7.90747V7.5072C22 6.95492 21.5523 6.5072 21 6.5072H1C0.447716 6.5072 0 6.95492 0 7.5072V7.90747ZM1 0.506531C0.447716 0.506531 0 0.954246 0 1.50653V1.9068C0 2.45908 0.447715 2.9068 1 2.9068H21C21.5523 2.9068 22 2.45908 22 1.9068V1.50653C22 0.954246 21.5523 0.506531 21 0.506531H1Z" fill="white"/>
</svg>
