<svg width="39" height="36" viewBox="0 0 39 36" fill="none" xmlns="http://www.w3.org/2000/svg">
<rect x="16.7891" y="18.8177" width="3.13635" height="3.13635" rx="0.25" transform="rotate(-45 16.7891 18.8177)" fill="white"/>
<g filter="url(#filter0_i_140_1842)">
<path d="M19.0134 2.35713e-06C8.51466 -0.00206821 0.00208041 8.46834 3.63041e-07 18.9193C-0.00133681 25.746 3.69126 32.0443 9.66306 35.4009C9.84551 35.5055 10.0627 35.5323 10.2653 35.475C10.4665 35.4191 10.6373 35.2865 10.7408 35.1059L16.6045 24.7901C16.8195 24.411 16.6855 23.9302 16.3049 23.7157C13.634 22.2224 12.6849 18.8564 14.1852 16.1976C15.6854 13.5389 19.0667 12.5941 21.7376 14.0875C24.4086 15.5809 25.3577 18.9468 23.8574 21.6056C23.3588 22.4894 22.6254 23.2194 21.7376 23.7157C21.3571 23.9302 21.2231 24.411 21.4381 24.7901L27.286 35.1059C27.3891 35.287 27.5601 35.4204 27.7614 35.4766C27.8305 35.4965 27.9019 35.5066 27.9738 35.5065C28.1105 35.5064 28.2448 35.471 28.3637 35.404C37.5075 30.2686 40.7379 18.7268 35.5791 9.62461C32.2071 3.67519 25.8757 -0.0033993 19.0134 2.35713e-06Z" fill="white" fill-opacity="0.35"/>
</g>
<path d="M9.73862 35.2664L9.73978 35.2671C9.88624 35.3511 10.0607 35.3726 10.2234 35.3266L10.224 35.3265C10.3862 35.2814 10.5237 35.1745 10.6069 35.0293C10.6069 35.0293 10.6069 35.0293 10.6069 35.0293L16.4704 24.714L9.73862 35.2664ZM9.73862 35.2664C3.81519 31.9371 0.152873 25.6901 0.154199 18.9193C0.156262 8.5542 8.59912 0.152147 19.0134 0.154201L19.0135 0.154201M9.73862 35.2664L19.0135 0.154201M19.0135 0.154201C25.8204 0.150827 32.1005 3.79977 35.445 9.70064C40.5615 18.7283 37.3578 30.1758 28.2882 35.2695L28.2879 35.2697C28.1922 35.3237 28.0839 35.3522 27.9737 35.3523C27.9164 35.3524 27.8593 35.3443 27.8042 35.3284L27.8029 35.3281M19.0135 0.154201L27.8029 35.3281M21.5722 24.714L21.5723 24.714L27.42 35.0296L21.5722 24.714ZM21.5722 24.714C21.3995 24.4096 21.5067 24.0232 21.8129 23.8503C22.7253 23.3402 23.4792 22.5899 23.9917 21.6814C25.5341 18.9479 24.5581 15.4878 21.8129 13.9529C19.0681 12.4182 15.593 13.3888 14.0509 16.1219C12.5085 18.8552 13.4845 22.3153 16.2295 23.8502M21.5722 24.714L16.2295 23.8502M27.8029 35.3281C27.6407 35.2828 27.5031 35.1754 27.4202 35.0298L27.8029 35.3281ZM16.2295 23.8502C16.5358 24.023 16.6431 24.4094 16.4704 24.7139L16.2295 23.8502Z" stroke="white" stroke-opacity="0.5" stroke-width="0.308398"/>
<defs>
<filter id="filter0_i_140_1842" x="0" y="0" width="38.0358" height="38.5905" filterUnits="userSpaceOnUse" color-interpolation-filters="sRGB">
<feFlood flood-opacity="0" result="BackgroundImageFix"/>
<feBlend mode="normal" in="SourceGraphic" in2="BackgroundImageFix" result="shape"/>
<feColorMatrix in="SourceAlpha" type="matrix" values="0 0 0 0 0 0 0 0 0 0 0 0 0 0 0 0 0 0 127 0" result="hardAlpha"/>
<feOffset dy="5.13996"/>
<feGaussianBlur stdDeviation="1.54199"/>
<feComposite in2="hardAlpha" operator="arithmetic" k2="-1" k3="1"/>
<feColorMatrix type="matrix" values="0 0 0 0 1 0 0 0 0 1 0 0 0 0 1 0 0 0 0.4 0"/>
<feBlend mode="normal" in2="shape" result="effect1_innerShadow_140_1842"/>
</filter>
</defs>
</svg>
