<svg width="332" height="77" viewBox="0 0 332 77" fill="none" xmlns="http://www.w3.org/2000/svg">
<path d="M133.93 76.0599L137.55 72.4399H217.38L213.29 76.53L133.93 76.0599Z" fill="white" fill-opacity="0.35"/>
<path d="M133.93 76.0599L137.55 72.4399H217.38L213.29 76.53L133.93 76.0599Z" fill="url(#paint0_linear_1158_377)"/>
<path d="M219.66 72.4399L215.54 76.5699H221.13L225.25 72.45L219.66 72.4399Z" fill="white" fill-opacity="0.35"/>
<path d="M219.66 72.4399L215.54 76.5699H221.13L225.25 72.45L219.66 72.4399Z" fill="url(#paint1_linear_1158_377)"/>
<path d="M227.12 72.48L223 76.61H228.6L232.71 72.49L227.12 72.48Z" fill="white" fill-opacity="0.35"/>
<path d="M227.12 72.48L223 76.61H228.6L232.71 72.49L227.12 72.48Z" fill="url(#paint2_linear_1158_377)"/>
<path d="M235.39 72.4399L231.26 76.5699H236.86L240.98 72.45L235.39 72.4399Z" fill="white" fill-opacity="0.35"/>
<path d="M235.39 72.4399L231.26 76.5699H236.86L240.98 72.45L235.39 72.4399Z" fill="url(#paint3_linear_1158_377)"/>
<path d="M235.39 72.4399L231.26 76.5699H236.86L240.98 72.45L235.39 72.4399Z" fill="url(#paint4_linear_1158_377)"/>
<path d="M243.25 72.4399L239.12 76.5699H244.72L248.84 72.45L243.25 72.4399Z" fill="white" fill-opacity="0.35"/>
<path d="M243.25 72.4399L239.12 76.5699H244.72L248.84 72.45L243.25 72.4399Z" fill="url(#paint5_linear_1158_377)"/>
<path d="M87.49 0.179932L83.97 3.68994H88.75L92.26 0.179932H87.49Z" fill="white" fill-opacity="0.35"/>
<path d="M87.49 0.179932L83.97 3.68994H88.75L92.26 0.179932H87.49Z" fill="url(#paint6_linear_1158_377)"/>
<path d="M94.1899 0.179932L90.6799 3.68994H95.4499L98.9599 0.179932H94.1899Z" fill="white" fill-opacity="0.35"/>
<path d="M94.1899 0.179932L90.6799 3.68994H95.4499L98.9599 0.179932H94.1899Z" fill="url(#paint7_linear_1158_377)"/>
<path d="M100.9 0.179932L97.3801 3.68994H102.15L105.66 0.179932H100.9Z" fill="white" fill-opacity="0.35"/>
<path d="M100.9 0.179932L97.3801 3.68994H102.15L105.66 0.179932H100.9Z" fill="url(#paint8_linear_1158_377)"/>
<path d="M107.6 0.179932L104.08 3.68994H108.85L112.36 0.179932H107.6Z" fill="white" fill-opacity="0.35"/>
<path d="M107.6 0.179932L104.08 3.68994H108.85L112.36 0.179932H107.6Z" fill="url(#paint9_linear_1158_377)"/>
<path d="M221.31 0.210022L228.09 6.98999H264.38L267.99 3.37H242.4L239.03 0L221.31 0.210022Z" fill="white" fill-opacity="0.35"/>
<path d="M312.32 64.34L321.9 54.76V33.59L319.87 31.56V5.72998L325.11 10.96V57.23L317.87 64.46L312.32 64.34Z" fill="white" fill-opacity="0.35"/>
<path d="M13.4 0.949951L8.69 5.65997V27.47L1 35.15V68.64L8.67 76.3099H134.91L141.2 70.0099H289.07L294.48 64.61H324.25L331.37 57.4999V11.48L323.94 4.05994H248.91L245.33 0.47998H113.28L109.2 4.55994H62.58L58.88 0.859985L13.4 0.949951Z" fill="#23B44C" stroke="white" stroke-width="0.5" stroke-miterlimit="10"/>
<defs>
<linearGradient id="paint0_linear_1158_377" x1="120.026" y1="74.4856" x2="217.38" y2="74.4808" gradientUnits="userSpaceOnUse">
<stop stopColor="#F1C6FF"/>
<stop offset="0.348958" stopColor="#BD0AF8"/>
<stop offset="0.994097" stopColor="#365CFC"/>
</linearGradient>
<linearGradient id="paint1_linear_1158_377" x1="213.922" y1="74.5056" x2="225.25" y2="74.5055" gradientUnits="userSpaceOnUse">
<stop stopColor="#F1C6FF"/>
<stop offset="0.348958" stopColor="#BD0AF8"/>
<stop offset="0.994097" stopColor="#365CFC"/>
</linearGradient>
<linearGradient id="paint2_linear_1158_377" x1="221.382" y1="74.5456" x2="232.71" y2="74.5456" gradientUnits="userSpaceOnUse">
<stop stopColor="#F1C6FF"/>
<stop offset="0.348958" stopColor="#BD0AF8"/>
<stop offset="0.994097" stopColor="#365CFC"/>
</linearGradient>
<linearGradient id="paint3_linear_1158_377" x1="229.64" y1="74.5056" x2="240.98" y2="74.5055" gradientUnits="userSpaceOnUse">
<stop stopColor="#F1C6FF"/>
<stop offset="0.348958" stopColor="#BD0AF8"/>
<stop offset="0.994097" stopColor="#365CFC"/>
</linearGradient>
<linearGradient id="paint4_linear_1158_377" x1="229.64" y1="74.5056" x2="240.98" y2="74.5055" gradientUnits="userSpaceOnUse">
<stop stopColor="#F1C6FF"/>
<stop offset="0.348958" stopColor="#BD0AF8"/>
<stop offset="0.994097" stopColor="#365CFC"/>
</linearGradient>
<linearGradient id="paint5_linear_1158_377" x1="237.5" y1="74.5056" x2="248.84" y2="74.5055" gradientUnits="userSpaceOnUse">
<stop stopColor="#F1C6FF"/>
<stop offset="0.348958" stopColor="#BD0AF8"/>
<stop offset="0.994097" stopColor="#365CFC"/>
</linearGradient>
<linearGradient id="paint6_linear_1158_377" x1="82.5887" y1="1.93548" x2="92.26" y2="1.93543" gradientUnits="userSpaceOnUse">
<stop stopColor="#F1C6FF"/>
<stop offset="0.348958" stopColor="#BD0AF8"/>
<stop offset="0.994097" stopColor="#365CFC"/>
</linearGradient>
<linearGradient id="paint7_linear_1158_377" x1="89.3003" y1="1.93548" x2="98.9599" y2="1.93543" gradientUnits="userSpaceOnUse">
<stop stopColor="#F1C6FF"/>
<stop offset="0.348958" stopColor="#BD0AF8"/>
<stop offset="0.994097" stopColor="#365CFC"/>
</linearGradient>
<linearGradient id="paint8_linear_1158_377" x1="96.0005" y1="1.93548" x2="105.66" y2="1.93543" gradientUnits="userSpaceOnUse">
<stop stopColor="#F1C6FF"/>
<stop offset="0.348958" stopColor="#BD0AF8"/>
<stop offset="0.994097" stopColor="#365CFC"/>
</linearGradient>
<linearGradient id="paint9_linear_1158_377" x1="102.7" y1="1.93548" x2="112.36" y2="1.93543" gradientUnits="userSpaceOnUse">
<stop stopColor="#F1C6FF"/>
<stop offset="0.348958" stopColor="#BD0AF8"/>
<stop offset="0.994097" stopColor="#365CFC"/>
</linearGradient>
</defs>
</svg>
