<svg width="29" height="29" viewBox="0 0 29 29" fill="none" xmlns="http://www.w3.org/2000/svg">
<path d="M28.0547 14.5136V27.7269C28.0547 27.8928 27.9202 28.0272 27.7544 28.0272H14.5411" stroke="white" stroke-width="0.300302"/>
<path d="M1.02734 14.5137V1.30042C1.02734 1.13457 1.16179 1.00012 1.32765 1.00012H14.5409" stroke="white" stroke-width="0.300302"/>
<rect x="4.03027" y="4.00317" width="21.0211" height="21.0211" rx="0.300302" fill="white" fill-opacity="0.25"/>
<mask id="path-4-inside-1_9705_395" fill="white">
<path d="M9 10L13.2354 15.0625L9.08971 19H10.0082L13.641 15.5473L16.5297 19H20L15.5751 13.7113L19.4798 10H18.5641L15.1688 13.2251L12.4703 10H9ZM10.0968 10.4737H12.1662L18.9032 18.5263H16.8338L10.0968 10.4737Z"/>
</mask>
<path d="M9 10L13.2354 15.0625L9.08971 19H10.0082L13.641 15.5473L16.5297 19H20L15.5751 13.7113L19.4798 10H18.5641L15.1688 13.2251L12.4703 10H9ZM10.0968 10.4737H12.1662L18.9032 18.5263H16.8338L10.0968 10.4737Z" fill="white"/>
<path d="M9 10V9H6.85957L8.23302 10.6417L9 10ZM13.2354 15.0625L13.924 15.7876L14.6048 15.141L14.0024 14.4208L13.2354 15.0625ZM9.08971 19L8.40104 18.2749L6.58476 20H9.08971V19ZM10.0082 19V20H10.4076L10.6971 19.7248L10.0082 19ZM13.641 15.5473L14.408 14.9056L13.7244 14.0885L12.9521 14.8224L13.641 15.5473ZM16.5297 19L15.7627 19.6417L16.0625 20H16.5297V19ZM20 19V20H22.1405L20.767 18.3583L20 19ZM15.5751 13.7113L14.8861 12.9865L14.2058 13.6331L14.8081 14.353L15.5751 13.7113ZM19.4798 10L20.1687 10.7248L21.9835 9H19.4798V10ZM18.5641 10V9H18.1649L17.8754 9.27496L18.5641 10ZM15.1688 13.2251L14.4019 13.8668L15.0854 14.6837L15.8576 13.9502L15.1688 13.2251ZM12.4703 10L13.2373 9.35829L12.9375 9H12.4703V10ZM10.0968 10.4737V9.47368H7.95635L9.3298 11.1154L10.0968 10.4737ZM12.1662 10.4737L12.9332 9.83201L12.6334 9.47368H12.1662V10.4737ZM18.9032 18.5263V19.5263H21.0436L19.6702 17.8846L18.9032 18.5263ZM16.8338 18.5263L16.0668 19.168L16.3666 19.5263H16.8338V18.5263ZM8.23302 10.6417L12.4684 15.7042L14.0024 14.4208L9.76698 9.35833L8.23302 10.6417ZM12.5467 14.3374L8.40104 18.2749L9.77837 19.7251L13.924 15.7876L12.5467 14.3374ZM9.08971 20H10.0082V18H9.08971V20ZM10.6971 19.7248L14.3299 16.2721L12.9521 14.8224L9.3193 18.2752L10.6971 19.7248ZM12.874 16.189L15.7627 19.6417L17.2966 18.3583L14.408 14.9056L12.874 16.189ZM16.5297 20H20V18H16.5297V20ZM20.767 18.3583L16.342 13.0696L14.8081 14.353L19.233 19.6417L20.767 18.3583ZM16.264 14.4361L20.1687 10.7248L18.7909 9.27517L14.8861 12.9865L16.264 14.4361ZM19.4798 9H18.5641V11H19.4798V9ZM17.8754 9.27496L14.4801 12.5001L15.8576 13.9502L19.2528 10.725L17.8754 9.27496ZM15.9358 12.5834L13.2373 9.35829L11.7034 10.6417L14.4019 13.8668L15.9358 12.5834ZM12.4703 9H9V11H12.4703V9ZM10.0968 11.4737H12.1662V9.47368H10.0968V11.4737ZM11.3993 11.1154L18.1362 19.168L19.6702 17.8846L12.9332 9.83201L11.3993 11.1154ZM18.9032 17.5263H16.8338V19.5263H18.9032V17.5263ZM17.6007 17.8846L10.8638 9.83201L9.3298 11.1154L16.0668 19.168L17.6007 17.8846Z" fill="white" mask="url(#path-4-inside-1_9705_395)"/>
</svg>
