<svg width="22" height="22" viewBox="0 0 22 22" fill="none" xmlns="http://www.w3.org/2000/svg">
<path d="M4.46675 2.75H17.5329C17.6776 2.74998 17.8202 2.78419 17.949 2.84983C18.0779 2.91547 18.1895 3.01067 18.2745 3.12767L21.7789 7.94567C21.8412 8.03139 21.8719 8.13606 21.8657 8.24186C21.8595 8.34765 21.8169 8.44803 21.745 8.52592L11.3363 19.8018C11.2933 19.8482 11.2413 19.8852 11.1834 19.9105C11.1255 19.9358 11.063 19.9489 10.9998 19.9489C10.9367 19.9489 10.8742 19.9358 10.8163 19.9105C10.7584 19.8852 10.7063 19.8482 10.6634 19.8018L0.254668 8.52683C0.182573 8.44888 0.139777 8.34832 0.133591 8.24233C0.127405 8.13633 0.158213 8.03147 0.220751 7.94567L3.72517 3.12767C3.81022 3.01067 3.92174 2.91547 4.05063 2.84983C4.17952 2.78419 4.32211 2.74998 4.46675 2.75Z" fill="#6567D1"/>
</svg>