<svg width="22" height="22" viewBox="0 0 22 22" fill="none" xmlns="http://www.w3.org/2000/svg">
<path d="M4.88566 14.6016C4.68386 13.7209 4.58239 12.8202 4.58316 11.9167C4.58316 7.25267 7.24424 3.267 10.9998 1.6665C14.7554 3.267 17.4165 7.25267 17.4165 11.9167C17.4165 12.8425 17.312 13.7418 17.114 14.6016L18.9657 16.2479C19.0454 16.3188 19.0978 16.4153 19.1141 16.5207C19.1303 16.6261 19.1093 16.7339 19.0546 16.8254L16.8014 20.5801C16.7655 20.6397 16.7166 20.6904 16.6582 20.7284C16.5998 20.7663 16.5335 20.7904 16.4644 20.7988C16.3954 20.8073 16.3252 20.8 16.2594 20.7773C16.1936 20.7546 16.1338 20.7173 16.0846 20.6681L14.0184 18.6019C13.8465 18.43 13.6134 18.3334 13.3703 18.3333H8.62933C8.38623 18.3334 8.15311 18.43 7.98124 18.6019L5.91508 20.6681C5.86585 20.7173 5.80605 20.7546 5.74023 20.7773C5.67441 20.8 5.6043 20.8073 5.53521 20.7988C5.46612 20.7904 5.39986 20.7663 5.34148 20.7284C5.2831 20.6904 5.23411 20.6397 5.19824 20.5801L2.94508 16.8263C2.89015 16.7347 2.86897 16.6267 2.88521 16.5211C2.90144 16.4155 2.95407 16.3188 3.03399 16.2479L4.88566 14.6016ZM10.9998 11.9167C11.4861 11.9167 11.9524 11.7235 12.2962 11.3797C12.64 11.0359 12.8332 10.5696 12.8332 10.0833C12.8332 9.59711 12.64 9.13079 12.2962 8.78698C11.9524 8.44316 11.4861 8.25 10.9998 8.25C10.5136 8.25 10.0473 8.44316 9.70347 8.78698C9.35965 9.13079 9.16649 9.59711 9.16649 10.0833C9.16649 10.5696 9.35965 11.0359 9.70347 11.3797C10.0473 11.7235 10.5136 11.9167 10.9998 11.9167Z" fill="#6567D1"/>
</svg>