<svg width="22" height="22" viewBox="0 0 22 22" fill="none" xmlns="http://www.w3.org/2000/svg">
<path d="M2.75016 2.75H19.2502C19.4933 2.75 19.7264 2.84658 19.8983 3.01849C20.0703 3.19039 20.1668 3.42355 20.1668 3.66667V18.3333C20.1668 18.5764 20.0703 18.8096 19.8983 18.9815C19.7264 19.1534 19.4933 19.25 19.2502 19.25H2.75016C2.50705 19.25 2.27389 19.1534 2.10198 18.9815C1.93007 18.8096 1.8335 18.5764 1.8335 18.3333V3.66667C1.8335 3.42355 1.93007 3.19039 2.10198 3.01849C2.27389 2.84658 2.50705 2.75 2.75016 2.75ZM7.79183 12.8333V14.6667H10.0835V16.5H11.9168V14.6667H12.8335C13.4413 14.6667 14.0242 14.4252 14.4539 13.9955C14.8837 13.5657 15.1252 12.9828 15.1252 12.375C15.1252 11.7672 14.8837 11.1843 14.4539 10.7545C14.0242 10.3248 13.4413 10.0833 12.8335 10.0833H9.16683C9.04527 10.0833 8.92869 10.035 8.84274 9.94909C8.75678 9.86314 8.7085 9.74656 8.7085 9.625C8.7085 9.50344 8.75678 9.38686 8.84274 9.30091C8.92869 9.21495 9.04527 9.16667 9.16683 9.16667H14.2085V7.33333H11.9168V5.5H10.0835V7.33333H9.16683C8.55904 7.33333 7.97615 7.57478 7.54638 8.00455C7.11661 8.43432 6.87516 9.01721 6.87516 9.625C6.87516 10.2328 7.11661 10.8157 7.54638 11.2455C7.97615 11.6752 8.55904 11.9167 9.16683 11.9167H12.8335C12.9551 11.9167 13.0716 11.965 13.1576 12.0509C13.2435 12.1369 13.2918 12.2534 13.2918 12.375C13.2918 12.4966 13.2435 12.6131 13.1576 12.6991C13.0716 12.785 12.9551 12.8333 12.8335 12.8333H7.79183Z" fill="#6567D1"/>
</svg>
