<svg width="22" height="22" viewBox="0 0 22 22" fill="none" xmlns="http://www.w3.org/2000/svg">
<path d="M15.5833 14.6667H17.4167V3.66666H8.25V5.49999H15.5833V14.6667ZM15.5833 16.5V19.25C15.5833 19.756 15.1708 20.1667 14.6603 20.1667H3.67308C3.5522 20.1674 3.43236 20.1442 3.32046 20.0985C3.20856 20.0528 3.1068 19.9854 3.02102 19.9002C2.93524 19.815 2.86714 19.7137 2.82063 19.6021C2.77412 19.4906 2.75012 19.3709 2.75 19.25L2.75275 6.41666C2.75275 5.91066 3.16525 5.49999 3.67583 5.49999H6.41667V2.74999C6.41667 2.50688 6.51324 2.27372 6.68515 2.10181C6.85706 1.92991 7.09022 1.83333 7.33333 1.83333H18.3333C18.5764 1.83333 18.8096 1.92991 18.9815 2.10181C19.1534 2.27372 19.25 2.50688 19.25 2.74999V15.5833C19.25 15.8264 19.1534 16.0596 18.9815 16.2315C18.8096 16.4034 18.5764 16.5 18.3333 16.5H15.5833ZM6.41667 14.6667V16.5H8.25V17.4167H10.0833V16.5H10.5417C11.1495 16.5 11.7323 16.2586 12.1621 15.8288C12.5919 15.399 12.8333 14.8161 12.8333 14.2083C12.8333 13.6005 12.5919 13.0176 12.1621 12.5879C11.7323 12.1581 11.1495 11.9167 10.5417 11.9167H7.79167C7.67011 11.9167 7.55353 11.8684 7.46758 11.7824C7.38162 11.6965 7.33333 11.5799 7.33333 11.4583C7.33333 11.3368 7.38162 11.2202 7.46758 11.1342C7.55353 11.0483 7.67011 11 7.79167 11H11.9167V9.16666H10.0833V8.25H8.25V9.16666H7.79167C7.18388 9.16666 6.60098 9.4081 6.17121 9.83788C5.74144 10.2676 5.5 10.8505 5.5 11.4583C5.5 12.0661 5.74144 12.649 6.17121 13.0788C6.60098 13.5086 7.18388 13.75 7.79167 13.75H10.5417C10.6632 13.75 10.7798 13.7983 10.8658 13.8842C10.9517 13.9702 11 14.0868 11 14.2083C11 14.3299 10.9517 14.4465 10.8658 14.5324C10.7798 14.6184 10.6632 14.6667 10.5417 14.6667H6.41667Z" fill="#6567D1"/>
</svg>