<svg width="22" height="22" viewBox="0 0 22 22" fill="none" xmlns="http://www.w3.org/2000/svg">
<path d="M17.4167 9.16666H18.3333C18.5764 9.16666 18.8096 9.26324 18.9815 9.43515C19.1534 9.60706 19.25 9.84021 19.25 10.0833V19.25C19.25 19.4931 19.1534 19.7263 18.9815 19.8982C18.8096 20.0701 18.5764 20.1667 18.3333 20.1667H3.66667C3.42355 20.1667 3.19039 20.0701 3.01849 19.8982C2.84658 19.7263 2.75 19.4931 2.75 19.25V10.0833C2.75 9.84021 2.84658 9.60706 3.01849 9.43515C3.19039 9.26324 3.42355 9.16666 3.66667 9.16666H4.58333V8.24999C4.58333 7.40735 4.74931 6.57295 5.07177 5.79444C5.39424 5.01594 5.86689 4.30857 6.46273 3.71273C7.05857 3.11688 7.76594 2.64424 8.54445 2.32177C9.32295 1.9993 10.1574 1.83333 11 1.83333C11.8426 1.83333 12.677 1.9993 13.4556 2.32177C14.2341 2.64424 14.9414 3.11688 15.5373 3.71273C16.1331 4.30857 16.6058 5.01594 16.9282 5.79444C17.2507 6.57295 17.4167 7.40735 17.4167 8.24999V9.16666ZM15.5833 9.16666V8.24999C15.5833 7.03442 15.1004 5.86863 14.2409 5.00909C13.3814 4.14955 12.2156 3.66666 11 3.66666C9.78442 3.66666 8.61864 4.14955 7.75909 5.00909C6.89955 5.86863 6.41667 7.03442 6.41667 8.24999V9.16666H15.5833ZM10.0833 12.8333V16.5H11.9167V12.8333H10.0833Z" fill="#6567D1"/>
</svg>