<svg width="22" height="22" viewBox="0 0 22 22" fill="none" xmlns="http://www.w3.org/2000/svg">
<path d="M11.0002 1.83331C16.0629 1.83331 20.1668 5.93723 20.1668 11C20.1668 16.0627 16.0629 20.1666 11.0002 20.1666C5.93741 20.1666 1.8335 16.0627 1.8335 11C1.8335 5.93723 5.93741 1.83331 11.0002 1.83331ZM15.2132 6.78698C15.0262 6.59906 14.731 6.5734 14.5137 6.72556C11.8646 8.58456 10.3704 9.6864 10.0276 10.0274C9.49133 10.5646 9.49133 11.4354 10.0276 11.9726C10.5647 12.5088 11.4356 12.5088 11.9727 11.9726C12.1735 11.7709 13.2726 10.2758 15.2709 7.48365C15.4249 7.26915 15.4002 6.97398 15.2132 6.78698ZM16.0418 10.0833C15.5358 10.0833 15.1252 10.494 15.1252 11C15.1252 11.506 15.5358 11.9166 16.0418 11.9166C16.5478 11.9166 16.9585 11.506 16.9585 11C16.9585 10.494 16.5478 10.0833 16.0418 10.0833ZM5.9585 10.0833C5.4525 10.0833 5.04183 10.494 5.04183 11C5.04183 11.506 5.4525 11.9166 5.9585 11.9166C6.4645 11.9166 6.87516 11.506 6.87516 11C6.87516 10.494 6.4645 10.0833 5.9585 10.0833ZM8.08333 6.78698C7.72583 6.42948 7.14466 6.42948 6.78716 6.78698C6.42966 7.14448 6.42966 7.72473 6.78716 8.08315C7.14466 8.44065 7.72491 8.44065 8.08333 8.08315C8.44083 7.72565 8.44083 7.14448 8.08333 6.78698ZM11.0002 5.04165C10.4942 5.04165 10.0835 5.45231 10.0835 5.95831C10.0835 6.46431 10.4942 6.87498 11.0002 6.87498C11.5062 6.87498 11.9168 6.46431 11.9168 5.95831C11.9168 5.45231 11.5062 5.04165 11.0002 5.04165Z" fill="#6567D1"/>
</svg>
