<svg width="20" height="21" viewBox="0 0 20 21" fill="none" xmlns="http://www.w3.org/2000/svg">
<path d="M16.6571 4.79409C15.2144 3.30175 13.3473 2.3528 11.3209 2.06413L11.8984 1.48655C12.1273 1.25772 12.1273 0.886748 11.8984 0.65792C11.6696 0.429131 11.2986 0.429131 11.0698 0.65792L9.58593 2.14175C9.3571 2.37054 9.3571 2.74155 9.58593 2.97038L11.0698 4.45421C11.1842 4.56862 11.3341 4.62585 11.4841 4.62585C11.634 4.62585 11.784 4.56862 11.8984 4.45421C12.1272 4.22542 12.1272 3.8544 11.8984 3.62558L11.5665 3.29374C13.1764 3.60878 14.6529 4.40698 15.8145 5.60854C17.2796 7.12401 18.0864 9.11979 18.0864 11.2282C18.0865 15.6869 14.459 19.3144 10.0003 19.3144C5.54156 19.3144 1.91406 15.6869 1.91406 11.2282C1.91406 9.52686 2.43621 7.89936 3.4241 6.52171C4.39148 5.17261 5.72508 4.16593 7.28082 3.61054C7.58558 3.50171 7.74441 3.16647 7.63562 2.86167C7.52683 2.5569 7.19152 2.39808 6.88675 2.50687C5.10539 3.14284 3.57871 4.29503 2.47172 5.83882C1.34023 7.41679 0.742188 9.28042 0.742188 11.2283C0.742188 13.7012 1.70519 16.0261 3.45383 17.7747C5.20246 19.5232 7.52734 20.4863 10.0003 20.4863C12.4732 20.4863 14.7981 19.5233 16.5467 17.7747C18.2953 16.026 19.2583 13.7012 19.2583 11.2282C19.2583 8.81425 18.3345 6.52921 16.6571 4.79409Z" fill="white"/>
<path d="M3.98047 11.2282C3.98047 14.5477 6.68109 17.2483 10.0006 17.2483C13.3201 17.2483 16.0207 14.5477 16.0207 11.2282C16.0207 7.90871 13.3201 5.20801 10.0006 5.20801C6.68105 5.20801 3.98047 7.90867 3.98047 11.2282ZM10.3603 11.7497C9.51688 11.4516 9.0282 11.2166 8.67367 10.9385C8.23734 10.5963 8.03762 10.0052 8.15238 9.39602C8.27691 8.73516 8.73777 8.20907 9.35516 8.02309C9.36371 8.02051 9.37211 8.01844 9.38063 8.01594V7.78C9.38063 7.45641 9.64297 7.19406 9.96656 7.19406C10.2902 7.19406 10.5525 7.45641 10.5525 7.78V7.97864C10.9616 8.07446 11.2471 8.26145 11.3626 8.34774C11.6218 8.54153 11.6748 8.90868 11.4811 9.1679C11.2873 9.42711 10.9202 9.48008 10.6609 9.28637C10.5368 9.19364 10.1944 8.99411 9.69316 9.14512C9.39703 9.23434 9.32043 9.52579 9.30398 9.61301C9.27152 9.78528 9.30883 9.94743 9.39684 10.0164C9.70336 10.2568 10.2533 10.469 10.7508 10.6448C11.661 10.9666 12.1671 11.8097 12.0102 12.7429C11.9332 13.2011 11.7027 13.6262 11.3611 13.94C11.1263 14.1558 10.8525 14.3092 10.5525 14.3958V14.6763C10.5525 14.9999 10.2902 15.2623 9.96656 15.2623C9.64297 15.2623 9.38063 14.9999 9.38063 14.6763V14.4534C8.99082 14.4076 8.66555 14.2875 8.22809 14.0014C7.95727 13.8242 7.88137 13.4611 8.05852 13.1902C8.23566 12.9194 8.59887 12.8435 8.86965 13.0207C9.27523 13.286 9.42859 13.3104 9.96266 13.3067C10.4885 13.3032 10.7936 12.9113 10.8545 12.5486C10.8844 12.3715 10.8958 11.939 10.3603 11.7497Z" fill="white"/>
</svg>
