<svg width="16" height="15" viewBox="0 0 16 15" fill="none" xmlns="http://www.w3.org/2000/svg">
<path fillRule="evenodd" clipRule="evenodd" d="M0.499878 4.1601V7.92963C0.499878 8.14536 0.674767 8.32025 0.890503 8.32025H3.83972H6.78894C7.00468 8.32025 7.17957 8.14536 7.17957 7.92963V4.1601V0.390564C7.17957 0.174828 7.00468 -6.10352e-05 6.78894 -6.10352e-05H3.83972H0.890503C0.674767 -6.10352e-05 0.499878 0.174828 0.499878 0.390564V4.1601ZM8.82019 2.49994V4.60931C8.82019 4.82505 8.99508 4.99994 9.21082 4.99994H12.16H15.1093C15.325 4.99994 15.4999 4.82505 15.4999 4.60931V2.49994V0.390564C15.4999 0.174828 15.325 -6.10352e-05 15.1093 -6.10352e-05H12.16H9.21082C8.99508 -6.10352e-05 8.82019 0.174828 8.82019 0.390564V2.49994ZM8.82019 10.8398V14.6093C8.82019 14.8251 8.99508 14.9999 9.21082 14.9999H12.16H15.1093C15.325 14.9999 15.4999 14.8251 15.4999 14.6093V10.8398V7.07025C15.4999 6.85452 15.325 6.67963 15.1093 6.67963H12.16H9.21082C8.99508 6.67963 8.82019 6.85452 8.82019 7.07025V10.8398ZM0.499878 12.4999V14.6093C0.499878 14.8251 0.674767 14.9999 0.890503 14.9999H3.83972H6.78894C7.00468 14.9999 7.17957 14.8251 7.17957 14.6093V12.4999V10.3906C7.17957 10.1748 7.00468 9.99994 6.78894 9.99994H3.83972H0.890503C0.674767 9.99994 0.499878 10.1748 0.499878 10.3906V12.4999Z" fill="white"/>
</svg>
