<svg width="20" height="21" viewBox="0 0 20 21" fill="none" xmlns="http://www.w3.org/2000/svg">
<path d="M5.20226 13.1722C4.89666 12.8667 4.78157 13.0202 4.71359 13.0883C2.95379 14.8481 1.39146 19.0942 2.2174 18.6795C5.22413 17.1698 5.72512 17.6193 7.48486 15.8596C7.5529 15.7916 7.70933 15.6794 7.39484 15.3649L5.20226 13.1722Z" fill="white"/>
<path d="M14.6893 13.1486C14.6095 12.8948 14.7766 12.7725 14.8469 12.6966C18.731 8.50327 21.1995 2.91644 19.3702 1.08703C17.5505 -0.732515 12.136 1.8081 7.94381 5.66415C7.86088 5.74053 7.69741 5.88519 7.40497 5.82413L6.09885 5.51312C5.73621 5.42688 5.22381 5.57184 4.96022 5.83543L0.167651 10.6279C-0.0959419 10.8916 -0.0103013 11.1546 0.357983 11.2125L3.82429 11.7572C4.19258 11.8151 4.70954 11.6468 4.97308 11.3831C4.97308 11.3831 5.15193 11.2038 5.33163 11.3834C6.32301 12.3747 8.16528 14.217 9.10979 15.1615C9.29753 15.3492 9.11772 15.5278 9.11772 15.5278C8.85407 15.7914 8.68579 16.3083 8.74373 16.6766L9.2884 20.1429C9.34627 20.5113 9.60933 20.5969 9.87292 20.3333L14.6655 15.5406C14.9291 15.2771 15.0741 14.7648 14.9877 14.4021L14.6893 13.1486ZM13.6163 6.95693C12.8045 6.14518 12.8045 4.8292 13.6163 4.01757C14.428 3.20581 15.744 3.20581 16.5558 4.01757C17.3674 4.82914 17.3674 6.14518 16.5558 6.95687C15.744 7.76863 14.4279 7.76863 13.6163 6.95693Z" fill="white"/>
</svg>
