<svg width="16" height="23" viewBox="0 0 16 23" fill="none" xmlns="http://www.w3.org/2000/svg">
<path d="M4.40047 6.59442C4.40047 6.59068 4.40047 6.58737 4.40047 6.58363C4.40047 4.6595 5.99658 3.09951 7.92047 3.09951C9.84461 3.09951 11.4405 4.65953 11.4405 6.58363C11.4405 6.5854 11.4405 6.58737 11.4405 6.58892C11.4405 6.59179 11.4405 6.59442 11.4405 6.5973C11.4405 6.59751 11.4405 6.59794 11.4405 6.59841C11.4405 6.88879 11.4405 9.50636 11.4405 9.50636H13.8605C13.8605 9.50636 13.8605 6.90001 13.8605 6.59996C13.8605 6.59622 13.8605 6.59269 13.8605 6.58896C13.8605 6.58719 13.8605 6.58522 13.8605 6.58367C13.8605 3.21609 11.288 0.486328 7.92047 0.486328C4.55292 0.486328 1.98047 3.21609 1.98047 6.58363C1.98047 6.5854 1.98047 6.58737 1.98047 6.58892C1.98047 6.59025 1.98047 6.59133 1.98047 6.59266C1.98047 6.84918 1.98047 9.50633 1.98047 9.50633H4.40047C4.40047 9.50633 4.40047 6.8604 4.40047 6.59442Z" fill="white"/>
<path d="M0 10.6064V20.3984C0 21.5528 1.03048 22.4864 2.18483 22.4864H13.8712C15.026 22.4864 15.84 21.5528 15.84 20.3984V10.6064H0ZM10.2494 19.5222C9.83555 19.8594 9.24751 20.0698 8.48521 20.1529V20.867H7.38301V20.1877C6.92982 20.1736 6.50366 20.1333 6.10414 20.0662C5.7044 19.9991 5.37264 19.9059 5.10928 19.7855V18.4268C5.28945 18.4915 5.46524 18.5482 5.63617 18.5967C5.80689 18.645 5.98267 18.6866 6.16306 18.7212C6.34323 18.7559 6.53289 18.7837 6.73153 18.8043C6.92996 18.8252 7.14756 18.838 7.38316 18.8426V17.3246C7.09187 17.283 6.80303 17.2265 6.51657 17.1548C6.22992 17.0833 5.9725 16.9759 5.74369 16.8324C5.51488 16.6892 5.32878 16.4996 5.18556 16.264C5.04235 16.0283 4.97063 15.7232 4.97063 15.349C4.97063 15.0439 5.02606 14.7726 5.13696 14.5346C5.24808 14.2965 5.40733 14.0908 5.61546 13.9174C5.82335 13.7441 6.07635 13.6044 6.37446 13.4981C6.67233 13.3919 7.00873 13.3179 7.38316 13.2761V12.5623H8.48535V13.2555C8.82261 13.2739 9.1658 13.312 9.51471 13.3699C9.86362 13.4277 10.1837 13.5074 10.4748 13.609V14.9816C9.76311 14.7504 9.10002 14.621 8.48535 14.5933V16.1321C8.77642 16.1783 9.06418 16.2395 9.34842 16.3158C9.63266 16.3922 9.88677 16.5031 10.1109 16.6487C10.3351 16.7941 10.5177 16.9849 10.6585 17.2207C10.7996 17.4564 10.8699 17.7591 10.8699 18.1289C10.8695 18.7205 10.6627 19.1849 10.2494 19.5222Z" fill="white"/>
<path d="M6.48828 15.2796C6.48828 15.4738 6.56219 15.6217 6.71026 15.7233C6.85811 15.8252 7.08207 15.9035 7.3828 15.9589V14.6279C7.04533 14.6651 6.81192 14.7401 6.68254 14.8532C6.55295 14.9665 6.48828 15.1088 6.48828 15.2796Z" fill="white"/>
<path d="M9.13349 17.7163C8.99225 17.6168 8.77642 17.5418 8.48535 17.491V18.7943C9.05821 18.7203 9.3449 18.5078 9.3449 18.1567C9.3449 17.9624 9.2743 17.8159 9.13349 17.7163Z" fill="white"/>
</svg>
