<svg width="17" height="16" viewBox="0 0 17 16" fill="none" xmlns="http://www.w3.org/2000/svg">
<g clip-path="url(#clip0_140_1948)">
<path d="M8.50782 0.771179C6.1608 0.771179 4.25134 2.68063 4.25134 5.02765C4.25134 7.37468 6.1608 9.28413 8.50782 9.28413C10.8548 9.28413 12.7643 7.37468 12.7643 5.02765C12.7643 2.68063 10.8548 0.771179 8.50782 0.771179ZM8.94814 7.15354V7.6696H8.06749V7.19314L7.44279 7.1396L7.51803 6.26215L8.48419 6.34496C8.51674 6.34775 8.54442 6.34772 8.56644 6.34481C8.78402 6.31619 8.94817 6.12853 8.94817 5.90828C8.94817 5.66548 8.75064 5.46795 8.50785 5.46795C7.77946 5.46795 7.18687 4.87536 7.18687 4.14698C7.18687 3.85184 7.28213 3.57264 7.46234 3.33954C7.61851 3.13752 7.83033 2.99024 8.06752 2.90855V2.3857H8.94817V2.88447L9.59753 2.97724L9.47301 3.84902L8.5729 3.72045C8.41083 3.69729 8.25219 3.75773 8.15908 3.87817C8.09917 3.95564 8.06752 4.04861 8.06752 4.147C8.06752 4.3898 8.26505 4.58733 8.50785 4.58733C9.23623 4.58733 9.82882 5.17992 9.82882 5.9083C9.82879 6.47541 9.46503 6.97031 8.94814 7.15354Z" fill="white"/>
<path d="M15.7408 8.82397C15.3491 8.41702 14.6878 8.42462 14.2884 8.82403L12.2072 10.9052C12.1236 10.9889 12.0587 11.089 12.0135 11.1983C11.7301 11.8835 11.0545 12.3668 10.2681 12.3668H7.33065V11.4862H10.2681C10.8244 11.4862 11.2754 11.0352 11.2754 10.4789C11.2754 10.118 11.0854 9.80155 10.8002 9.62369C10.1095 9.96967 9.33076 10.1648 8.50717 10.1648C7.11114 10.1648 5.84365 9.60478 4.91682 8.69795C4.32177 8.76185 3.7494 9.02373 3.304 9.46913L0.993408 11.7808L5.01352 15.801C5.72297 15.0915 6.6852 14.693 7.68849 14.693H10.0358C10.8401 14.693 11.6111 14.3724 12.1783 13.8022L15.727 10.2345C16.1158 9.84576 16.1203 9.21832 15.7408 8.82397Z" fill="white"/>
</g>
<defs>
<clipPath id="clip0_140_1948">
<rect width="15.0298" height="15.0298" fill="white" transform="translate(0.993164 0.771179)"/>
</clipPath>
</defs>
</svg>
