<svg width="20" height="21" viewBox="0 0 20 21" fill="none" xmlns="http://www.w3.org/2000/svg">
<g clip-path="url(#clip0_6141_3550)">
<path fillRule="evenodd" clipRule="evenodd" d="M8.85101 13.0962C8.85101 12.9453 8.88074 12.7958 8.93851 12.6563C8.99627 12.5169 9.08094 12.3902 9.18767 12.2835C9.2944 12.1767 9.42111 12.0921 9.56056 12.0343C9.70002 11.9765 9.84948 11.9468 10.0004 11.9468C10.1514 11.9468 10.3008 11.9765 10.4403 12.0343C10.5797 12.0921 10.7065 12.1767 10.8132 12.2835C10.9199 12.3902 11.0046 12.5169 11.0623 12.6563C11.1201 12.7958 11.1498 12.9453 11.1498 13.0962C11.151 13.235 11.207 13.3677 11.3056 13.4654C11.4041 13.5631 11.5373 13.618 11.6761 13.618C11.8149 13.618 11.9481 13.5631 12.0466 13.4654C12.1452 13.3677 12.2012 13.235 12.2024 13.0962C12.2017 12.6258 12.0507 12.168 11.7714 11.7895C11.4921 11.4109 11.0992 11.1316 10.6499 10.9921L10.5264 10.9539V10.1754C10.5264 10.0358 10.4709 9.90193 10.3722 9.80324C10.2735 9.70455 10.1397 9.6491 10.0001 9.6491C9.86054 9.6491 9.72669 9.70455 9.628 9.80324C9.52931 9.90193 9.47386 10.0358 9.47386 10.1754V10.9539L9.35031 10.9921C8.84669 11.1477 8.41558 11.4787 8.13528 11.9251C7.85498 12.3715 7.7441 12.9036 7.82277 13.4248C7.90143 13.946 8.16444 14.4217 8.564 14.7655C8.96356 15.1092 9.47318 15.2983 10.0003 15.2983C10.2276 15.2982 10.4499 15.3656 10.6389 15.4919C10.828 15.6182 10.9754 15.7977 11.0624 16.0078C11.1494 16.2178 11.1722 16.4489 11.1278 16.6719C11.0835 16.8949 10.974 17.0998 10.8133 17.2605C10.6525 17.4213 10.4477 17.5308 10.2247 17.5751C10.0017 17.6195 9.77054 17.5967 9.5605 17.5097C9.35046 17.4226 9.17094 17.2753 9.04465 17.0862C8.91836 16.8972 8.85097 16.6749 8.85101 16.4475C8.84982 16.3087 8.79383 16.176 8.69523 16.0782C8.59664 15.9805 8.46342 15.9256 8.32459 15.9256C8.18575 15.9256 8.05254 15.9805 7.95394 16.0782C7.85535 16.176 7.79936 16.3087 7.79816 16.4475C7.79891 16.9179 7.94989 17.3758 8.22911 17.7543C8.50832 18.1329 8.90116 18.4123 9.35035 18.552L9.47386 18.5902V19.3681C9.47386 19.5077 9.52931 19.6415 9.628 19.7402C9.72669 19.8389 9.86054 19.8943 10.0001 19.8943C10.1397 19.8943 10.2735 19.8389 10.3722 19.7402C10.4709 19.6415 10.5264 19.5077 10.5264 19.3681V18.5902L10.6499 18.5519C11.1535 18.3964 11.5847 18.0654 11.865 17.6191C12.1454 17.1727 12.2563 16.6406 12.1777 16.1194C12.099 15.5982 11.8361 15.1225 11.4365 14.7787C11.037 14.4349 10.5274 14.2458 10.0003 14.2458C9.69554 14.2454 9.40342 14.1241 9.18797 13.9086C8.97252 13.6931 8.85134 13.4009 8.85101 13.0962ZM1.12988 0.486328H4.59473L4.27371 4.95781H0.19793L1.12988 0.486328ZM19.803 4.95781H15.7268L15.4059 0.486328H18.8708L19.8031 4.95781H19.803ZM4.87527 7.7875C5.17016 8.16779 5.54813 8.47559 5.98026 8.68734C6.4124 8.89908 6.88725 9.00917 7.36847 9.00917C7.8497 9.00917 8.32455 8.89908 8.75669 8.68734C9.18882 8.47559 9.56679 8.16779 9.86168 7.7875L10.0003 7.60961L10.1387 7.7875C10.4336 8.16779 10.8115 8.47558 11.2436 8.68733C11.6757 8.89908 12.1505 9.00916 12.6317 9.00916C13.1129 9.00916 13.5878 8.89908 14.0199 8.68733C14.452 8.47558 14.8299 8.16779 15.1248 7.7875L15.2632 7.60957L15.4017 7.78742C15.6965 8.16776 16.0745 8.4756 16.5066 8.68736C16.9387 8.89913 17.4136 9.00921 17.8948 9.00918C17.9943 9.00918 18.0937 9.00453 18.193 8.99523L18.3848 8.97719V19.4778C18.3845 19.7452 18.2781 20.0016 18.089 20.1907C17.8999 20.3798 17.6434 20.4861 17.376 20.4863H2.62484C2.35739 20.4861 2.10095 20.3798 1.9118 20.1907C1.72265 20.0016 1.61625 19.7452 1.61594 19.4778V8.97719L1.80781 8.99523C1.90677 9.00453 2.00595 9.00918 2.10535 9.00918C2.58659 9.00929 3.06147 8.89925 3.49361 8.6875C3.92576 8.47575 4.30371 8.1679 4.59851 7.78754L4.73695 7.60957L4.87543 7.7875H4.87527ZM-0.00390625 6.01062L0.0322266 6.21641C0.117995 6.70394 0.372845 7.14566 0.751992 7.46392C1.13114 7.78219 1.61033 7.95666 2.10535 7.95666C2.60037 7.95666 3.07956 7.78219 3.45871 7.46392C3.83786 7.14566 4.09271 6.70394 4.17848 6.21641L4.21449 6.0107L-0.00390625 6.01062ZM9.44168 6.21641L9.47781 6.01062H5.25976L5.29582 6.21633C5.38154 6.70386 5.63635 7.14559 6.01547 7.46387C6.3946 7.78215 6.87377 7.95662 7.36879 7.95662C7.8638 7.95662 8.34298 7.78215 8.7221 7.46387C9.10122 7.14559 9.35604 6.70386 9.44175 6.21633L9.44168 6.21641ZM14.705 6.21641L14.7411 6.01062H10.523L10.5591 6.21633C10.6448 6.70386 10.8996 7.14559 11.2788 7.46387C11.6579 7.78215 12.1371 7.95662 12.6321 7.95662C13.1271 7.95662 13.6063 7.78215 13.9854 7.46387C14.3645 7.14559 14.6193 6.70386 14.705 6.21633L14.705 6.21641ZM17.8948 7.95668C18.3897 7.95619 18.8687 7.78156 19.2478 7.46337C19.6269 7.14519 19.8819 6.70375 19.9682 6.21641L20.0044 6.01062H15.786L15.8221 6.21641C15.9083 6.70364 16.1633 7.145 16.5422 7.46317C16.9212 7.78135 17.4 7.95605 17.8948 7.95668ZM14.3509 0.486328L14.6715 4.95781H10.5264V0.486328H14.3509ZM9.47386 0.486328V4.95781H5.32867L5.65 0.486328H9.47386Z" fill="white"/>
</g>
<defs>
<clipPath id="clip0_6141_3550">
<rect width="20" height="20" fill="white" transform="translate(0 0.486328)"/>
</clipPath>
</defs>
</svg>
