<svg width="20" height="19" viewBox="0 0 20 19" fill="none" xmlns="http://www.w3.org/2000/svg">
<path d="M19.4998 1.48638H11.9999V0.986355C11.9999 0.710173 11.776 0.486328 11.4999 0.486328H8.49984C8.22381 0.486328 7.99982 0.710173 7.99982 0.986355V1.48638H0.500027C0.223845 1.48638 0 1.71023 0 1.98641V11.9863C0 12.2625 0.223845 12.4864 0.500027 12.4864H7.99997V17.9863C7.99997 18.2625 8.22381 18.4864 8.5 18.4864H11.5C11.776 18.4864 12 18.2625 12 17.9863V12.4864H19.5C19.7762 12.4864 20 12.2625 20 11.9863V1.98641C19.9998 1.71023 19.776 1.48638 19.4998 1.48638ZM6.00002 6.98637C6.00002 7.26255 5.77617 7.4864 5.49999 7.4864H5.30895L5.94707 8.76278C6.07066 9.00967 5.97057 9.31011 5.72353 9.43356C5.47649 9.55715 5.1762 9.45705 5.0526 9.21002L4.19079 7.4864H3.99991V8.98648C3.99991 9.26251 3.77606 9.48635 3.49988 9.48635C3.2237 9.48635 2.99986 9.26251 2.99986 8.98648V4.98642C2.99986 4.71023 3.2237 4.48639 3.49988 4.48639H5.49984C5.77602 4.48639 5.99986 4.71023 5.99986 4.98642V6.98637H6.00002ZM8.99987 6.48634C9.27605 6.48634 9.4999 6.71019 9.4999 6.98637C9.4999 7.26255 9.27605 7.4864 8.99987 7.4864H7.99997V8.48645H8.99987C9.27605 8.48645 9.4999 8.71029 9.4999 8.98648C9.4999 9.26251 9.27605 9.48635 8.99987 9.48635H7.49994C7.22376 9.48635 6.99992 9.26251 6.99992 8.98648V4.98642C6.99992 4.71023 7.22376 4.48639 7.49994 4.48639H8.99987C9.27605 4.48639 9.4999 4.71023 9.4999 4.98642C9.4999 5.2626 9.27605 5.48644 8.99987 5.48644H7.99997V6.48634H8.99987ZM13.2499 8.98632C13.2499 9.21826 13.0906 9.41967 12.8649 9.47308C12.8272 9.48193 12.7886 9.48635 12.7498 9.48635C12.5605 9.48635 12.3873 9.37939 12.3026 9.21002L11.2499 7.10447V8.98632C11.2499 9.26251 11.0261 9.48635 10.7499 9.48635C10.4737 9.48635 10.2499 9.26251 10.2499 8.98632V4.98642C10.2499 4.71023 10.4736 4.48639 10.7497 4.48624C10.9392 4.48624 11.1123 4.5932 11.1971 4.76272L12.2498 6.86812V4.98626C12.2498 4.71008 12.4737 4.48624 12.7498 4.48624C13.026 4.48624 13.2499 4.71008 13.2499 4.98626V8.98632ZM16.5 5.48629H15.9999V8.98632C15.9999 9.26251 15.7761 9.48635 15.4999 9.48635C15.2237 9.48635 14.9999 9.26251 14.9999 8.98632V5.48629H14.4999C14.2237 5.48629 13.9998 5.26245 13.9998 4.98626C13.9998 4.71008 14.2237 4.48624 14.4999 4.48624H16.4998C16.776 4.48624 16.9998 4.71008 16.9998 4.98626C16.9998 5.26245 16.776 5.48629 16.5 5.48629Z" fill="white"/>
</svg>
