<svg width="697" height="48" viewBox="0 0 697 48" fill="none" xmlns="http://www.w3.org/2000/svg">
<g filter="url(#filter0_f_548_227)">
<path d="M591.189 33H100.674L90.3682 24.2734L90 23.9808L100.553 15H591.447L602 24.1732L591.189 33Z" fill="url(#paint0_linear_548_227)" fill-opacity="0.5"/>
</g>
<path d="M48.6364 23.0063L53.7327 17.5179C53.8841 17.3549 54.0965 17.2622 54.3189 17.2622H80.8844L82.2172 18.0058L93.4806 6H136.629L132.467 11.7307C132.316 11.938 132.076 12.0606 131.82 12.0606H97.6997C97.4776 12.0606 97.2655 12.1529 97.1141 12.3155L87.2044 22.9619C86.9185 23.2691 86.9185 23.7449 87.2044 24.052L97.1141 34.6984C97.2655 34.861 97.4776 34.9533 97.6997 34.9533H131.82C132.076 34.9533 132.316 35.0757 132.467 35.2825L136.629 41H93.4806L82.2172 28.9943L80.8844 29.7517H54.3189C54.0965 29.7517 53.8841 29.6591 53.7327 29.4961L48.6364 24.0077L77.855 23.7573L78.114 23.507L77.855 23.2427L48.6364 23.0063Z" fill="white" fill-opacity="0.25"/>
<path d="M647.575 23.0063L642.478 17.5179C642.327 17.3549 642.114 17.2622 641.892 17.2622H615.327L613.994 18.0058L602.73 6H559.582L563.744 11.7307C563.895 11.938 564.135 12.0606 564.391 12.0606H598.511C598.733 12.0606 598.945 12.1529 599.097 12.3155L609.007 22.9619C609.292 23.2691 609.292 23.7449 609.007 24.052L599.097 34.6984C598.945 34.861 598.733 34.9533 598.511 34.9533H564.391C564.135 34.9533 563.895 35.0757 563.744 35.2825L559.582 41H602.73L613.994 28.9943L615.327 29.7517H641.892C642.114 29.7517 642.327 29.6591 642.478 29.4961L647.575 24.0077L618.356 23.7573L618.097 23.507L618.356 23.2427L647.575 23.0063Z" fill="white" fill-opacity="0.25"/>
<path d="M-0.000732422 24.0215H77.5574L93.1832 40.6695H336.999H337.247H603.26" stroke="white" stroke-width="0.3"/>
<path d="M-0.000244141 22.9786H77.558L93.1838 6.33057H264.897H337.29H603.274" stroke="white" stroke-width="0.3"/>
<path d="M603.15 40.6695L610.963 32.3455L618.776 24.0215H696.334" stroke="white" stroke-width="0.3"/>
<path d="M603.151 6.33057L618.777 22.9786H696.335" stroke="white" stroke-width="0.3"/>
<defs>
<filter id="filter0_f_548_227" x="75" y="0" width="542" height="48" filterUnits="userSpaceOnUse" color-interpolation-filters="sRGB">
<feFlood flood-opacity="0" result="BackgroundImageFix"/>
<feBlend mode="normal" in="SourceGraphic" in2="BackgroundImageFix" result="shape"/>
<feGaussianBlur stdDeviation="7.5" result="effect1_foregroundBlur_548_227"/>
</filter>
<linearGradient id="paint0_linear_548_227" x1="640.644" y1="24.0029" x2="90" y2="23.9684" gradientUnits="userSpaceOnUse">
<stop stopColor="#F1C6FF"/>
<stop offset="0.348958" stopColor="#BD0AF8"/>
<stop offset="0.994097" stopColor="#365CFC"/>
</linearGradient>
</defs>
</svg>
