<svg width="466" height="49" viewBox="0 0 466 49" fill="none" xmlns="http://www.w3.org/2000/svg">
<g filter="url(#filter0_f_512_264)">
<path d="M362.578 33.8208H102.269L90.4251 25.0942L90.002 24.8016L102.13 15.8208H362.874L375.002 24.994L362.578 33.8208Z" fill="url(#paint0_linear_512_264)" fill-opacity="0.5"/>
</g>
<path d="M48.6374 24.0063L53.7337 18.5179C53.885 18.3549 54.0975 18.2622 54.3199 18.2622H80.8854L82.2182 19.0058L93.4816 7H136.63L132.468 12.7307C132.317 12.938 132.077 13.0606 131.821 13.0606H97.7007C97.4786 13.0606 97.2664 13.1529 97.1151 13.3155L87.2054 23.9619C86.9195 24.2691 86.9195 24.7449 87.2054 25.052L97.1151 35.6984C97.2664 35.861 97.4786 35.9533 97.7007 35.9533H131.821C132.077 35.9533 132.317 36.0757 132.468 36.2825L136.63 42H93.4816L82.2182 29.9943L80.8854 30.7517H54.3199C54.0975 30.7517 53.885 30.6591 53.7337 30.4961L48.6374 25.0077L77.856 24.7573L78.1149 24.507L77.856 24.2427L48.6374 24.0063Z" fill="white" fill-opacity="0.25"/>
<path d="M416.573 24.0063L411.476 18.5179C411.325 18.3549 411.112 18.2622 410.89 18.2622H384.325L382.992 19.0058L371.728 7H328.58L332.742 12.7307C332.893 12.938 333.133 13.0606 333.389 13.0606H367.509C367.731 13.0606 367.944 13.1529 368.095 13.3155L378.005 23.9619C378.291 24.2691 378.291 24.7449 378.005 25.052L368.095 35.6984C367.944 35.861 367.731 35.9533 367.509 35.9533H333.389C333.133 35.9533 332.893 36.0757 332.742 36.2825L328.58 42H371.728L382.992 29.9943L384.325 30.7517H410.89C411.112 30.7517 411.325 30.6591 411.476 30.4961L416.573 25.0077L387.354 24.7573L387.095 24.507L387.354 24.2427L416.573 24.0063Z" fill="white" fill-opacity="0.25"/>
<path d="M436.609 41.6695H93.1836L77.558 25.0215H-0.000227392" stroke="white" stroke-width="0.3"/>
<path d="M-0.000183105 23.9786H77.558L93.1836 7.33057H264.896" stroke="white" stroke-width="0.3"/>
<path d="M465.336 25.0215H387.778L379.965 33.3455L372.152 41.6695H200.439" stroke="white" stroke-width="0.3"/>
<path d="M465.336 23.9786H387.778L372.152 7.33057H200.439" stroke="white" stroke-width="0.3"/>
<defs>
<filter id="filter0_f_512_264" x="75.002" y="0.820801" width="315" height="48" filterUnits="userSpaceOnUse" color-interpolation-filters="sRGB">
<feFlood flood-opacity="0" result="BackgroundImageFix"/>
<feBlend mode="normal" in="SourceGraphic" in2="BackgroundImageFix" result="shape"/>
<feGaussianBlur stdDeviation="7.5" result="effect1_foregroundBlur_512_264"/>
</filter>
<linearGradient id="paint0_linear_512_264" x1="422.488" y1="24.8236" x2="90.002" y2="24.811" gradientUnits="userSpaceOnUse">
<stop stopColor="#F1C6FF"/>
<stop offset="0.348958" stopColor="#BD0AF8"/>
<stop offset="0.994097" stopColor="#365CFC"/>
</linearGradient>
</defs>
</svg>
